{
.appVersion = "3151";
DisplayStrings = (
e
);
classes = (
{
automatic = 1;
code = "A Adieresis B C D E Eogonek F G H I J K L M N O Odieresis P Q R S T U Udieresis V W X Y Z Q.ss01 R.ss02 Z.ss03 F.ss04 A.ss05 Adieresis.ss05 B.ss05 K.ss05 Q.ss05 R.ss05 S.ss05 T.ss05 Adieresis.ss07 Odieresis.ss07 Udieresis.ss07";
name = Uppercase;
}
);
customParameters = (
{
name = localizedDesigner;
value = "German;Sebastian Hauser";
},
{
name = Axes;
value = (
{
Name = Weight;
Tag = wght;
},
{
Name = Italic;
Tag = ital;
}
);
}
);
date = "2020-10-21 12:00:43 +0000";
familyName = TurkeltonTwo;
featurePrefixes = (
{
automatic = 1;
code = "languagesystem DFLT dflt;\012";
name = Languagesystems;
}
);
features = (
{
automatic = 1;
code = "feature pnum;\012feature tnum;\012feature case;\012feature ital;\012feature ss01;\012feature ss02;\012feature ss03;\012feature ss04;\012feature ss05;\012feature ss06;\012feature ss07;\012feature ss08;\012feature ss09;\012";
name = aalt;
},
{
automatic = 1;
code = "lookup ccmp_Other_1 {\012	@CombiningTopAccents = [acutecomb circumflexcomb dieresiscomb dotaccentcomb gravecomb ringcomb tildecomb];\012	@CombiningNonTopAccents = [cedillacomb];\012	sub [i j]' @CombiningTopAccents by [idotless jdotless];\012	sub [i j]' @CombiningNonTopAccents @CombiningTopAccents by [idotless jdotless];\012	@Markscomb = [dieresiscomb];\012	@MarkscombCase = [dieresiscomb.case];\012	sub @Markscomb @Markscomb' by @MarkscombCase;\012	sub @Uppercase @Markscomb' by @MarkscombCase;\012} ccmp_Other_1;\012\012lookup ccmp_Other_2 {\012	sub @Markscomb' @MarkscombCase by @MarkscombCase;\012	sub @MarkscombCase @Markscomb' by @MarkscombCase;\012} ccmp_Other_2;\012";
name = ccmp;
},
{
automatic = 1;
code = "sub zero.tf by zero;\012sub one.tf by one;\012sub two.tf by two;\012sub three.tf by three;\012sub four.tf by four;\012sub five.tf by five;\012sub six.tf by six;\012sub seven.tf by seven;\012sub eight.tf by eight;\012sub nine.tf by nine;\012";
name = pnum;
},
{
automatic = 1;

glyphs = (
{
glyphname = A;
lastChange = "2025-01-09 17:18:02 +0000";
layers = (
{
anchors = (
{
name = bottom;
position = "{318, 0}";
},
{
name = ogonek;
position = "{572, 10}";
},
{
name = top;
position = "{318, 700}";
}
);
layerId = "AAB0E2D1-7A47-467B-B788-A2CC53DD9722";
paths = (
{
closed = 1;
nodes = (
"636 0 LINE",
"378 700 LINE",
"287 700 LINE",
"540 0 LINE"
);
},
{
closed = 1;
nodes = (
"91 0 LINE",
"344 700 LINE",
"258 700 LINE",
"0 0 LINE"
);
},
{
closed = 1;
nodes = (
"507 214 LINE",
"507 295 LINE",
"137 295 LINE",
"137 214 LINE"
);
}
);
width = 636;
},
{
anchors = (
{
name = bottom;
position = "{376, 0}";
},
{
name = ogonek;
position = "{671, 10}";
},
{
name = top;
position = "{376, 700}";
}
);
layerId = "1BF19B54-F320-4FA0-AF52-273918486B89";
paths = (
{
closed = 1;
nodes = (
"761 0 LINE",
"518 700 LINE",
"324 700 LINE",
"540 0 LINE"
);
},
{
closed = 1;
nodes = (
"208 0 LINE",
"419 700 LINE",
"233 700 LINE",
"-10 0 LINE"
);
},
{
closed = 1;
nodes = (
"564 125 LINE",
"564 300 LINE",
"194 300 LINE",
"194 125 LINE"
);
}
);
width = 751;
},
{
anchors = (
{
name = bottom;
position = "{282, 0}";
},
{
name = ogonek;
position = "{508, 10}";
},
{
name = top;
position = "{282, 700}";
}
);
guideLines = (
{
angle = 90;
position = "{282, 67}";
}
);
layerId = m003;
paths = (
{
closed = 1;
nodes = (
"564 0 LINE",
"296 700 LINE",
"270 700 LINE",
"536 0 LINE"
);
},
{
closed = 1;
nodes = (
"28 0 LINE",
"294 700 LINE",
"268 700 LINE",
"0 0 LINE"
);
},
{
closed = 1;
nodes = (
"451 237 LINE",
"451 259 LINE",
"111 259 LINE",
"111 237 LINE"
);
}
);
width = 564;
},
{
anchors = (
{
name = bottom;
position = "{341, 0}";
},
{
name = ogonek;
position = "{642, 10}";
},
{
name = top;
position = "{432, 700}";
}
);
layerId = "2146FA84-FF4E-4FEC-ADE7-E3206BD202A0";
paths = (
{
closed = 1;
nodes = (
"726 0 LINE",
"581 700 LINE",
"394 700 LINE",
"512 0 LINE"
);
},
{
closed = 1;
nodes = (
"180 0 LINE",
"489 700 LINE",
"296 700 LINE",
"-45 0 LINE"
);
},
{
closed = 1;
nodes = (
"553 125 LINE",
"578 300 LINE",
"208 300 LINE",
"183 125 LINE"
);
}
);
width = 751;
},
{
anchors = (
{
name = bottom;
position = "{286, 0}";
},
{
name = ogonek;
position = "{543, 10}";
},
{
name = top;
position = "{384, 700}";
}
);
layerId = "C724B7CD-248E-4D7B-8006-7CFF52EADE8B";
paths = (
{
closed = 1;
nodes = (
"601 0 LINE",
"441 700 LINE",
"356 700 LINE",
"511 0 LINE"
);
},
{
closed = 1;
nodes = (
"62 0 LINE",
"413 700 LINE",
"321 700 LINE",
"-35 0 LINE"
);
},
{
closed = 1;
nodes = (
"508 214 LINE",
"519 295 LINE",
"149 295 LINE",
"138 214 LINE"
);
}
);
width = 641;
},
{
anchors = (
{
name = bottom;
position = "{250, 0}";
},
{
name = ogonek;
position = "{478, 10}";
},
{
name = top;
position = "{348, 700}";
}
);
guideLines = (
{
angle = 90;
position = "{359, 67}";
}
);
layerId = "747A76F5-4D21-4F4C-BD8F-BF7AFE68B107";
paths = (
{
closed = 1;
nodes = (
"529 0 LINE",
"359 700 LINE",
"334 700 LINE",
"502 0 LINE"
);
},
{
closed = 1;
nodes = (
"-6 0 LINE",
"358 700 LINE",
"331 700 LINE",
"-35 0 LINE"
);
},
{
closed = 1;
nodes = (
"450 237 LINE",
"453 259 LINE",
"113 259 LINE",
"110 237 LINE"
);
}
);
width = 569;
},
{
anchors = (
{
name = bottom;
position = "{370, 0}";
},
{
name = ogonek;
position = "{682, 10}";
},
{
name = top;
position = "{370, 700}";
}
);
associatedMasterId = "1BF19B54-F320-4FA0-AF52-273918486B89";
layerId = "1452A65C-C687-4929-99AE-975DEBDBA597";
name = "10. Okt. 22, 20:11";
paths = (
{
closed = 1;
nodes = (
"755 0 LINE",
"502 700 LINE",
"293 700 LINE",
"534 0 LINE"
);
},
{
closed = 1;
nodes = (
"202 0 LINE",
"438 700 LINE",
"237 700 LINE",
"-16 0 LINE"
);
},
{
closed = 1;
nodes = (
"558 125 LINE",
"558 300 LINE",
"188 300 LINE",
"188 125 LINE"
);
}
);
width = 739;
},
{
anchors = (
{
name = bottom;
position = "{318, 0}";
},
{
name = ogonek;
position = "{584, 10}";
},
{
name = top;
position = "{318, 700}";
}
);
associatedMasterId = "AAB0E2D1-7A47-467B-B788-A2CC53DD9722";
layerId = "7543B595-D046-47F0-ADAC-636E6900A287";
name = "11. Okt. 22, 13:55";
paths = (
{
closed = 1;
nodes = (
"636 0 LINE",
"368 700 LINE",
"277 700 LINE",
"540 0 LINE"
);
},
{
closed = 1;
nodes = (
"91 0 LINE",
"354 700 LINE",
"268 700 LINE",
"0 0 LINE"
);
},
{
closed = 1;
nodes = (
"507 214 LINE",
"507 295 LINE",
"137 295 LINE",
"137 214 LINE"
);
}
);
width = 636;
},
{
anchors = (
{
name = bottom;
position = "{287, 0}";
},
{
name = ogonek;
position = "{554, 10}";
},
{
name = top;
position = "{385, 700}";
}
);
associatedMasterId = "C724B7CD-248E-4D7B-8006-7CFF52EADE8B";
layerId = "82DDF483-4E41-4770-ABF9-9790E74AC3AD";
name = "22. Nov. 22, 16:21";
paths = (
{
closed = 1;
nodes = (
"601 0 LINE",
"431 700 LINE",
"344 700 LINE",
"509 0 LINE"
);
},
{
closed = 1;
nodes = (
"60 0 LINE",
"421 700 LINE",
"331 700 LINE",
"-35 0 LINE"
);
},
{
closed = 1;
nodes = (
"506 214 LINE",
"517 295 LINE",
"147 295 LINE",
"136 214 LINE"
);
}
);
width = 642;
}
);
leftKerningGroup = LeftUpA;
rightKerningGroup = RightUpA;
unicode = 0041;
},
{
glyphname = B;
lastChange = "2025-01-09 16:19:00 +0000";
layers = (
{
layerId = "AAB0E2D1-7A47-467B-B788-A2CC53DD9722";
paths = (
{
closed = 1;
nodes = (
"393 0 LINE SMOOTH",
"538 0 OFFCURVE",
"622 67 OFFCURVE",
"622 195 CURVE SMOOTH",
"622 291 OFFCURVE",
"573 350 OFFCURVE",
"466 369 CURVE",
"466 371 LINE",
"554 394 OFFCURVE",
"595 441 OFFCURVE",
"595 523 CURVE SMOOTH",
"595 639 OFFCURVE",
"519 700 OFFCURVE",
"388 700 CURVE SMOOTH",
"102 700 LINE",
"102 619 LINE",
"385 619 LINE SMOOTH",
"462 619 OFFCURVE",
"502 583 OFFCURVE",
"502 516 CURVE SMOOTH",
"502 443 OFFCURVE",
"455 404 OFFCURVE",
"366 404 CURVE SMOOTH",
"102 404 LINE",
"102 323 LINE",
"366 323 LINE SMOOTH",
"473 323 OFFCURVE",
"529 280 OFFCURVE",
"529 200 CURVE SMOOTH",
"529 122 OFFCURVE",
"481 81 OFFCURVE",
"390 81 CURVE SMOOTH",
"102 81 LINE",
"102 0 LINE"
);
},
{
closed = 1;
nodes = (
"166 0 LINE",
"166 700 LINE",
"78 700 LINE",
"78 0 LINE"
);
}
);
width = 681;
},
{
layerId = m003;
paths = (
{
closed = 1;
nodes = (
"359 0 LINE SMOOTH",
"486 0 OFFCURVE",
"563 72 OFFCURVE",
"563 192 CURVE SMOOTH",
"563 291 OFFCURVE",
"511 359 OFFCURVE",
"415 366 CURVE",
"415 367 LINE",
"494 379 OFFCURVE",
"535 440 OFFCURVE",
"535 525 CURVE SMOOTH",
"535 635 OFFCURVE",
"467 700 OFFCURVE",
"354 700 CURVE SMOOTH",
"96 700 LINE",
"96 678 LINE",
"354 678 LINE SMOOTH",
"452 678 OFFCURVE",
"511 621 OFFCURVE",
"511 525 CURVE SMOOTH",
"511 434 OFFCURVE",
"460 377 OFFCURVE",
"375 377 CURVE SMOOTH",
"96 377 LINE",
"96 355 LINE",
"375 355 LINE SMOOTH",
"477 355 OFFCURVE",
"538 294 OFFCURVE",
"538 192 CURVE SMOOTH",
"538 86 OFFCURVE",
"470 22 OFFCURVE",
"359 22 CURVE SMOOTH",
"96 22 LINE",
"96 0 LINE"
);
},
{
closed = 1;
nodes = (
"108 0 LINE",
"108 700 LINE",
"84 700 LINE",
"84 0 LINE"
);
}
);
width = 633;
},
{
layerId = "2146FA84-FF4E-4FEC-ADE7-E3206BD202A0";
name = "Ultra Black";
paths = (
{
closed = 1;
nodes = (
"407 0 LINE SMOOTH",
"564 0 OFFCURVE",
"676 76 OFFCURVE",
"676 211 CURVE SMOOTH",
"676 305 OFFCURVE",
"621 356 OFFCURVE",
"515 369 CURVE",
"515 372 LINE",
"627 394 OFFCURVE",
"698 454 OFFCURVE",
"698 552 CURVE SMOOTH",
"698 647 OFFCURVE",
"631 700 OFFCURVE",
"500 700 CURVE SMOOTH",
"207 700 LINE",
"182 523 LINE",
"416 523 LINE SMOOTH",
"457 523 OFFCURVE",
"477 510 OFFCURVE",
"477 478 CURVE SMOOTH",
"477 439 OFFCURVE",
"448 420 OFFCURVE",
"387 420 CURVE SMOOTH",
"168 420 LINE",
"149 283 LINE",
"395 283 LINE SMOOTH",
"446 283 OFFCURVE",
"470 270 OFFCURVE",
"470 235 CURVE SMOOTH",
"470 195 OFFCURVE",
"438 177 OFFCURVE",
"392 177 CURVE SMOOTH",
"134 177 LINE",
"109 0 LINE"
);
},
{
closed = 1;
nodes = (
"233 0 LINE",
"331 700 LINE",
"123 700 LINE",
"25 0 LINE"
);
}
);
width = 719;
},
{
layerId = "C724B7CD-248E-4D7B-8006-7CFF52EADE8B";
paths = (
{
closed = 1;
nodes = (
"352 0 LINE SMOOTH",
"516 0 OFFCURVE",
"611 91 OFFCURVE",
"611 220 CURVE SMOOTH",
"611 305 OFFCURVE",
"568 352 OFFCURVE",
"477 369 CURVE",
"477 371 LINE",
"581 397 OFFCURVE",
"630 460 OFFCURVE",
"630 547 CURVE SMOOTH",
"630 651 OFFCURVE",
"563 700 OFFCURVE",
"445 700 CURVE SMOOTH",
"159 700 LINE",
"148 619 LINE",
"431 619 LINE SMOOTH",
"499 619 OFFCURVE",
"535 591 OFFCURVE",
"535 531 CURVE SMOOTH",
"535 456 OFFCURVE",
"481 404 OFFCURVE",
"382 404 CURVE SMOOTH",
"118 404 LINE",
"106 323 LINE",
"370 323 LINE SMOOTH",
"467 323 OFFCURVE",
"517 287 OFFCURVE",
"517 214 CURVE SMOOTH",
"517 138 OFFCURVE",
"463 81 OFFCURVE",
"360 81 CURVE SMOOTH",
"72 81 LINE",
"61 0 LINE"
);
},
{
closed = 1;
nodes = (
"125 0 LINE",
"223 700 LINE",
"135 700 LINE",
"37 0 LINE"
);
}
);
width = 668;
},
{
layerId = "747A76F5-4D21-4F4C-BD8F-BF7AFE68B107";
paths = (
{
closed = 1;
nodes = (
"325 0 LINE SMOOTH",
"474 0 OFFCURVE",
"559 101 OFFCURVE",
"559 221 CURVE SMOOTH",
"559 307 OFFCURVE",
"515 360 OFFCURVE",
"432 366 CURVE",
"432 367 LINE",
"533 375 OFFCURVE",
"577 472 OFFCURVE",
"577 554 CURVE SMOOTH",
"577 648 OFFCURVE",
"519 700 OFFCURVE",
"418 700 CURVE SMOOTH",
"160 700 LINE",
"157 678 LINE",
"415 678 LINE SMOOTH",
"503 678 OFFCURVE",
"553 632 OFFCURVE",
"553 549 CURVE SMOOTH",
"553 461 OFFCURVE",
"497 377 OFFCURVE",
"394 377 CURVE SMOOTH",
"115 377 LINE",
"112 355 LINE",
"391 355 LINE SMOOTH",
"482 355 OFFCURVE",
"533 306 OFFCURVE",
"533 219 CURVE SMOOTH",
"533 121 OFFCURVE",
"467 22 OFFCURVE",
"328 22 CURVE SMOOTH",
"65 22 LINE",
"62 0 LINE"
);
},
{
closed = 1;
nodes = (
"74 0 LINE",
"172 700 LINE",
"148 700 LINE",
"50 0 LINE"
);
}
);
width = 626;
},
{
layerId = "1BF19B54-F320-4FA0-AF52-273918486B89";
name = "Ultra Black";
paths = (
{
closed = 1;
nodes = (
"437 0 LINE SMOOTH",
"595 0 OFFCURVE",
"678 71 OFFCURVE",
"678 189 CURVE SMOOTH",
"678 292 OFFCURVE",
"614 354 OFFCURVE",
"493 369 CURVE",
"493 372 LINE",
"596 393 OFFCURVE",
"651 443 OFFCURVE",
"651 532 CURVE SMOOTH",
"651 637 OFFCURVE",
"575 700 OFFCURVE",
"432 700 CURVE SMOOTH",
"139 700 LINE",
"139 523 LINE",
"373 523 LINE SMOOTH",
"419 523 OFFCURVE",
"440 507 OFFCURVE",
"440 472 CURVE SMOOTH",
"440 436 OFFCURVE",
"414 420 OFFCURVE",
"358 420 CURVE SMOOTH",
"139 420 LINE",
"139 283 LINE",
"385 283 LINE SMOOTH",
"441 283 OFFCURVE",
"467 267 OFFCURVE",
"467 231 CURVE SMOOTH",
"467 194 OFFCURVE",
"445 177 OFFCURVE",
"397 177 CURVE SMOOTH",
"139 177 LINE",
"139 0 LINE"
);
},
{
closed = 1;
nodes = (
"263 0 LINE",
"263 700 LINE",
"55 700 LINE",
"55 0 LINE"
);
}
);
width = 711;
},
{
associatedMasterId = "1BF19B54-F320-4FA0-AF52-273918486B89";
layerId = "B2EAE83B-6789-4B3E-A8AE-8271680B1D6B";
name = "19. Okt. 22, 21:45";
paths = (
{
closed = 1;
nodes = (
"437 0 LINE SMOOTH",
"580 0 OFFCURVE",
"678 68 OFFCURVE",
"678 190 CURVE SMOOTH",
"678 292 OFFCURVE",
"608 351 OFFCURVE",
"493 371 CURVE",
"593 391 OFFCURVE",
"651 441 OFFCURVE",
"651 529 CURVE SMOOTH",
"651 642 OFFCURVE",
"563 700 OFFCURVE",
"432 700 CURVE SMOOTH",
"139 700 LINE",
"139 523 LINE",
"373 523 LINE SMOOTH",
"415 523 OFFCURVE",
"440 504 OFFCURVE",
"440 472 CURVE SMOOTH",
"440 440 OFFCURVE",
"415 420 OFFCURVE",
"358 420 CURVE SMOOTH",
"139 420 LINE",
"139 283 LINE",
"385 283 LINE SMOOTH",
"436 283 OFFCURVE",
"467 266 OFFCURVE",
"467 231 CURVE SMOOTH",
"467 196 OFFCURVE",
"436 177 OFFCURVE",
"397 177 CURVE SMOOTH",
"139 177 LINE",
"139 0 LINE"
);
},
{
closed = 1;
nodes = (
"263 0 LINE",
"263 700 LINE",
"55 700 LINE",
"55 0 LINE"
);
}
);
width = 711;
},
{
associatedMasterId = "AAB0E2D1-7A47-467B-B788-A2CC53DD9722";
layerId = "BA7D6CB6-8D13-4DCC-A696-EA2561EF24E8";
name = "19. Okt. 22, 21:47";
paths = (
{
closed = 1;
nodes = (
"380 0 LINE SMOOTH",
"513 0 OFFCURVE",
"622 61 OFFCURVE",
"622 195 CURVE SMOOTH",
"622 326 OFFCURVE",
"531 357 OFFCURVE",
"481 370 CURVE",
"526 384 OFFCURVE",
"595 421 OFFCURVE",
"595 523 CURVE SMOOTH",
"595 633 OFFCURVE",
"513 700 OFFCURVE",
"375 700 CURVE SMOOTH",
"102 700 LINE",
"102 619 LINE",
"385 619 LINE SMOOTH",
"463 619 OFFCURVE",
"502 577 OFFCURVE",
"502 516 CURVE SMOOTH",
"502 447 OFFCURVE",
"454 404 OFFCURVE",
"366 404 CURVE SMOOTH",
"102 404 LINE",
"102 323 LINE",
"366 323 LINE SMOOTH",
"473 323 OFFCURVE",
"529 275 OFFCURVE",
"529 200 CURVE SMOOTH",
"529 129 OFFCURVE",
"477 81 OFFCURVE",
"390 81 CURVE SMOOTH",
"102 81 LINE",
"102 0 LINE"
);
},
{
closed = 1;
nodes = (
"166 0 LINE",
"166 700 LINE",
"78 700 LINE",
"78 0 LINE"
);
}
);
width = 681;
},
{
associatedMasterId = "AAB0E2D1-7A47-467B-B788-A2CC53DD9722";
layerId = "8148EB65-CE56-4198-A990-4FD9FC76C91E";
name = "20. Okt. 22, 18:25";
paths = (
{
closed = 1;
nodes = (
"380 0 LINE SMOOTH",
"538 0 OFFCURVE",
"622 67 OFFCURVE",
"622 195 CURVE SMOOTH",
"622 286 OFFCURVE",
"573 346 OFFCURVE",
"481 370 CURVE",
"556 393 OFFCURVE",
"595 446 OFFCURVE",
"595 523 CURVE SMOOTH",
"595 639 OFFCURVE",
"519 700 OFFCURVE",
"375 700 CURVE SMOOTH",
"102 700 LINE",
"102 619 LINE",
"385 619 LINE SMOOTH",
"462 619 OFFCURVE",
"502 583 OFFCURVE",
"502 516 CURVE SMOOTH",
"502 443 OFFCURVE",
"455 404 OFFCURVE",
"366 404 CURVE SMOOTH",
"102 404 LINE",
"102 323 LINE",
"366 323 LINE SMOOTH",
"473 323 OFFCURVE",
"529 280 OFFCURVE",
"529 200 CURVE SMOOTH",
"529 122 OFFCURVE",
"481 81 OFFCURVE",
"390 81 CURVE SMOOTH",
"102 81 LINE",
"102 0 LINE"
);
},
{
closed = 1;
nodes = (
"166 0 LINE",
"166 700 LINE",
"78 700 LINE",
"78 0 LINE"
);
}
);
width = 681;
},
{
associatedMasterId = m003;
layerId = "6F59911B-E848-4FA2-A661-FEDFE3F7E450";
name = "4. Nov. 22, 15:43";
paths = (
{
closed = 1;
nodes = (
"359 0 LINE SMOOTH",
"487 0 OFFCURVE",
"563 84 OFFCURVE",
"563 192 CURVE SMOOTH",
"563 300 OFFCURVE",
"485 360 OFFCURVE",
"425 367 CURVE",
"480 377 OFFCURVE",
"535 431 OFFCURVE",
"535 527 CURVE SMOOTH",
"535 629 OFFCURVE",
"473 700 OFFCURVE",
"354 700 CURVE SMOOTH",
"96 700 LINE",
"96 678 LINE",
"354 678 LINE SMOOTH",
"452 678 OFFCURVE",
"511 621 OFFCURVE",
"511 527 CURVE SMOOTH",
"511 433 OFFCURVE",
"452 377 OFFCURVE",
"375 377 CURVE SMOOTH",
"96 377 LINE",
"96 355 LINE",
"375 355 LINE SMOOTH",
"462 355 OFFCURVE",
"538 295 OFFCURVE",
"538 192 CURVE SMOOTH",
"538 91 OFFCURVE",
"466 22 OFFCURVE",
"359 22 CURVE SMOOTH",
"96 22 LINE",
"96 0 LINE"
);
},
{
closed = 1;
nodes = (
"108 0 LINE",
"108 700 LINE",
"84 700 LINE",
"84 0 LINE"
);
}
);
width = 633;
}
);
leftMetricsKey = H;
unicode = 0042;
},
{
glyphname = C;
lastChange = "2025-01-09 16:19:00 +0000";
layers = (
{
layerId = m003;
name = Regular;
paths = (
{
closed = 1;
nodes = (
"508 -15 OFFCURVE",
"600 61 OFFCURVE",
"638 226 CURVE",
"614 234 LINE",
"576 80 OFFCURVE",
"492 9 OFFCURVE",
"361 9 CURVE SMOOTH",
"184 9 OFFCURVE",
"82 137 OFFCURVE",
"82 353 CURVE SMOOTH",
"82 562 OFFCURVE",
"182 691 OFFCURVE",
"360 691 CURVE SMOOTH",
"486 691 OFFCURVE",
"566 627 OFFCURVE",
"608 488 CURVE",
"632 496 LINE",
"589 646 OFFCURVE",
"501 715 OFFCURVE",
"360 715 CURVE SMOOTH",
"164 715 OFFCURVE",
"56 577 OFFCURVE",
"56 353 CURVE SMOOTH",
"56 122 OFFCURVE",
"165 -15 OFFCURVE",
"361 -15 CURVE SMOOTH"
);
}
);
width = 694;
},
{
layerId = "2146FA84-FF4E-4FEC-ADE7-E3206BD202A0";
paths = (
{
closed = 1;
nodes = (
"568 -15 OFFCURVE",
"694 88 OFFCURVE",
"760 284 CURVE",
"555 309 LINE",
"523 216 OFFCURVE",
"476 170 OFFCURVE",
"392 170 CURVE SMOOTH",
"310 170 OFFCURVE",
"264 215 OFFCURVE",
"264 313 CURVE SMOOTH",
"264 418 OFFCURVE",
"317 530 OFFCURVE",
"438 530 CURVE SMOOTH",
"514 530 OFFCURVE",
"544 488 OFFCURVE",
"559 403 CURVE",
"769 445 LINE",
"752 622 OFFCURVE",
"655 715 OFFCURVE",
"464 715 CURVE SMOOTH",
"179 715 OFFCURVE",
"51 505 OFFCURVE",
"51 289 CURVE SMOOTH",
"51 84 OFFCURVE",
"166 -15 OFFCURVE",
"366 -15 CURVE SMOOTH"
);
}
);
width = 795;
},
{
layerId = "C724B7CD-248E-4D7B-8006-7CFF52EADE8B";
name = Regular;
paths = (
{
closed = 1;
nodes = (
"502 -15 OFFCURVE",
"629 82 OFFCURVE",
"686 241 CURVE",
"602 270 LINE",
"555 138 OFFCURVE",
"476 68 OFFCURVE",
"352 68 CURVE SMOOTH",
"224 68 OFFCURVE",
"152 143 OFFCURVE",
"152 296 CURVE SMOOTH",
"152 464 OFFCURVE",
"240 632 OFFCURVE",
"433 632 CURVE SMOOTH",
"540 632 OFFCURVE",
"598 582 OFFCURVE",
"618 459 CURVE",
"708 487 LINE",
"692 639 OFFCURVE",
"594 715 OFFCURVE",
"444 715 CURVE SMOOTH",
"202 715 OFFCURVE",
"59 516 OFFCURVE",
"59 291 CURVE SMOOTH",
"59 95 OFFCURVE",
"166 -15 OFFCURVE",
"341 -15 CURVE SMOOTH"
);
}
);
width = 735;
},
{
layerId = "747A76F5-4D21-4F4C-BD8F-BF7AFE68B107";
name = Regular;
paths = (
{
closed = 1;
nodes = (
"482 -15 OFFCURVE",
"584 61 OFFCURVE",
"646 226 CURVE",
"623 234 LINE",
"563 80 OFFCURVE",
"469 9 OFFCURVE",
"338 9 CURVE SMOOTH",
"185 9 OFFCURVE",
"101 105 OFFCURVE",
"101 284 CURVE SMOOTH",
"101 482 OFFCURVE",
"207 691 OFFCURVE",
"433 691 CURVE SMOOTH",
"559 691 OFFCURVE",
"636 627 OFFCURVE",
"652 488 CURVE",
"678 496 LINE",
"656 646 OFFCURVE",
"575 715 OFFCURVE",
"434 715 CURVE SMOOTH",
"191 715 OFFCURVE",
"75 499 OFFCURVE",
"75 279 CURVE SMOOTH",
"75 88 OFFCURVE",
"165 -15 OFFCURVE",
"335 -15 CURVE SMOOTH"
);
}
);
width = 714;
},
{
associatedMasterId = "AAB0E2D1-7A47-467B-B788-A2CC53DD9722";
layerId = "72E3818F-2C25-44F9-B5A2-5B9D6B975E7D";
name = "10. Okt. 22, 16:11";
paths = (
{
closed = 1;
nodes = (
"515 -15 OFFCURVE",
"658 51 OFFCURVE",
"684 253 CURVE",
"592 253 LINE",
"574 133 OFFCURVE",
"483 68 OFFCURVE",
"380 68 CURVE SMOOTH",
"238 68 OFFCURVE",
"145 190 OFFCURVE",
"145 357 CURVE SMOOTH",
"145 521 OFFCURVE",
"241 632 OFFCURVE",
"380 632 CURVE SMOOTH",
"486 632 OFFCURVE",
"568 568 OFFCURVE",
"588 468 CURVE",
"680 468 LINE",
"661 634 OFFCURVE",
"538 715 OFFCURVE",
"380 715 CURVE SMOOTH",
"164 715 OFFCURVE",
"52 559 OFFCURVE",
"52 354 CURVE SMOOTH",
"52 146 OFFCURVE",
"168 -15 OFFCURVE",
"380 -15 CURVE SMOOTH"
);
}
);
width = 736;
},
{
layerId = "AAB0E2D1-7A47-467B-B788-A2CC53DD9722";
name = Regular;
paths = (
{
closed = 1;
nodes = (
"541 -15 OFFCURVE",
"655 82 OFFCURVE",
"689 241 CURVE",
"601 270 LINE",
"573 138 OFFCURVE",
"504 68 OFFCURVE",
"380 68 CURVE SMOOTH",
"233 68 OFFCURVE",
"145 168 OFFCURVE",
"145 352 CURVE SMOOTH",
"145 537 OFFCURVE",
"234 632 OFFCURVE",
"381 632 CURVE SMOOTH",
"488 632 OFFCURVE",
"553 582 OFFCURVE",
"591 459 CURVE",
"677 487 LINE",
"639 639 OFFCURVE",
"531 715 OFFCURVE",
"381 715 CURVE SMOOTH",
"180 715 OFFCURVE",
"52 580 OFFCURVE",
"52 352 CURVE SMOOTH",
"52 125 OFFCURVE",
"183 -15 OFFCURVE",
"380 -15 CURVE SMOOTH"
);
}
);
width = 741;
},
{
layerId = "1BF19B54-F320-4FA0-AF52-273918486B89";
name = "Ultra Black";
paths = (
{
closed = 1;
nodes = (
"595 -15 OFFCURVE",
"707 88 OFFCURVE",
"745 284 CURVE",
"537 309 LINE",
"518 216 OFFCURVE",
"477 170 OFFCURVE",
"393 170 CURVE SMOOTH",
"298 170 OFFCURVE",
"243 230 OFFCURVE",
"243 350 CURVE SMOOTH",
"243 470 OFFCURVE",
"299 530 OFFCURVE",
"389 530 CURVE SMOOTH",
"465 530 OFFCURVE",
"501 488 OFFCURVE",
"528 403 CURVE",
"732 445 LINE",
"690 622 OFFCURVE",
"580 715 OFFCURVE",
"389 715 CURVE SMOOTH",
"165 715 OFFCURVE",
"33 589 OFFCURVE",
"33 350 CURVE SMOOTH",
"33 111 OFFCURVE",
"167 -15 OFFCURVE",
"393 -15 CURVE SMOOTH"
);
}
);
width = 778;
},
{
associatedMasterId = "AAB0E2D1-7A47-467B-B788-A2CC53DD9722";
layerId = "BA22B100-D81D-4A3C-97E5-C0ECF6E806E0";
name = "28. Okt. 22, 11:38";
paths = (
{
closed = 1;
nodes = (
"518 -15 OFFCURVE",
"644 54 OFFCURVE",
"689 241 CURVE",
"601 270 LINE",
"572 133 OFFCURVE",
"489 68 OFFCURVE",
"383 68 CURVE SMOOTH",
"239 68 OFFCURVE",
"145 190 OFFCURVE",
"145 357 CURVE SMOOTH",
"145 521 OFFCURVE",
"241 632 OFFCURVE",
"380 632 CURVE SMOOTH",
"486 632 OFFCURVE",
"554 568 OFFCURVE",
"591 459 CURVE",
"677 487 LINE",
"638 633 OFFCURVE",
"536 715 OFFCURVE",
"380 715 CURVE SMOOTH",
"164 715 OFFCURVE",
"52 558 OFFCURVE",
"52 357 CURVE SMOOTH",
"52 145 OFFCURVE",
"177 -15 OFFCURVE",
"383 -15 CURVE SMOOTH"
);
}
);
width = 741;
},
{
associatedMasterId = "1BF19B54-F320-4FA0-AF52-273918486B89";
layerId = "FFCBE045-35D0-4B65-9058-B2E5AACEDF03";
name = "28. Okt. 22, 12:25";
paths = (
{
closed = 1;
nodes = (
"558 -15 OFFCURVE",
"700 54 OFFCURVE",
"745 284 CURVE",
"537 309 LINE",
"518 216 OFFCURVE",
"475 170 OFFCURVE",
"392 170 CURVE SMOOTH",
"295 170 OFFCURVE",
"243 234 OFFCURVE",
"243 350 CURVE SMOOTH",
"243 465 OFFCURVE",
"294 530 OFFCURVE",
"390 530 CURVE SMOOTH",
"466 530 OFFCURVE",
"501 488 OFFCURVE",
"528 403 CURVE",
"732 445 LINE",
"689 624 OFFCURVE",
"582 715 OFFCURVE",
"392 715 CURVE SMOOTH",
"146 715 OFFCURVE",
"33 551 OFFCURVE",
"33 350 CURVE SMOOTH",
"33 138 OFFCURVE",
"161 -15 OFFCURVE",
"395 -15 CURVE SMOOTH"
);
}
);
width = 778;
},
{
associatedMasterId = m003;
layerId = "FB29787F-FA51-4888-A528-05208C0094A9";
name = "4. Nov. 22, 15:47";
paths = (
{
closed = 1;
nodes = (
"567 -15 OFFCURVE",
"685 123 OFFCURVE",
"685 352 CURVE SMOOTH",
"685 578 OFFCURVE",
"567 715 OFFCURVE",
"372 715 CURVE SMOOTH",
"175 715 OFFCURVE",
"56 578 OFFCURVE",
"56 351 CURVE SMOOTH",
"56 123 OFFCURVE",
"175 -15 OFFCURVE",
"372 -15 CURVE SMOOTH"
);
},
{
closed = 1;
nodes = (
"191 9 OFFCURVE",
"82 138 OFFCURVE",
"82 351 CURVE SMOOTH",
"82 563 OFFCURVE",
"191 691 OFFCURVE",
"372 691 CURVE SMOOTH",
"551 691 OFFCURVE",
"659 563 OFFCURVE",
"659 351 CURVE SMOOTH",
"659 138 OFFCURVE",
"551 9 OFFCURVE",
"372 9 CURVE SMOOTH"
);
}
);
width = 689;
},
{
associatedMasterId = "1BF19B54-F320-4FA0-AF52-273918486B89";
components = (
{
name = O;
}
);
layerId = "5E8DAD36-1576-497F-A6F9-894A1E03E091";
name = "9. Jan. 25, 12:11";
visible = 1;
width = 810;
}
);
leftKerningGroup = LeftUpO;
leftMetricsKey = O;
rightKerningGroup = RightUpO;
rightMetricsKey = O;
unicode = 0043;
},
{
glyphname = D;
lastChange = "2025-01-09 16:19:00 +0000";
layers = (
{
guideLines = (
{
position = "{178, 350}";
}
);
layerId = "AAB0E2D1-7A47-467B-B788-A2CC53DD9722";
paths = (
{
closed = 1;
nodes = (
"354 0 LINE SMOOTH",
"548 0 OFFCURVE",
"665 132 OFFCURVE",
"665 350 CURVE SMOOTH",
"665 568 OFFCURVE",
"548 700 OFFCURVE",
"354 700 CURVE SMOOTH",
"78 700 LINE",
"78 0 LINE"
);
},
{
closed = 1;
nodes = (
"166 619 LINE",
"344 619 LINE SMOOTH",
"493 619 OFFCURVE",
"572 526 OFFCURVE",
"572 350 CURVE SMOOTH",
"572 174 OFFCURVE",
"493 81 OFFCURVE",
"344 81 CURVE SMOOTH",
"166 81 LINE"
);
}
);
width = 717;
},
{
guideLines = (
{
position = "{172, 350}";
}
);
layerId = m003;
name = air;
paths = (
{
closed = 1;
nodes = (
"333 0 LINE SMOOTH",
"520 0 OFFCURVE",
"636 132 OFFCURVE",
"636 350 CURVE SMOOTH",
"636 568 OFFCURVE",
"520 700 OFFCURVE",
"333 700 CURVE SMOOTH",
"84 700 LINE",
"84 0 LINE"
);
},
{
closed = 1;
nodes = (
"108 678 LINE",
"325 678 LINE SMOOTH",
"503 678 OFFCURVE",
"610 554 OFFCURVE",
"610 350 CURVE SMOOTH",
"610 146 OFFCURVE",
"503 22 OFFCURVE",
"325 22 CURVE SMOOTH",
"108 22 LINE"
);
}
);
width = 692;
},
{
layerId = "2146FA84-FF4E-4FEC-ADE7-E3206BD202A0";
paths = (
{
closed = 1;
nodes = (
"336 0 LINE SMOOTH",
"650 0 OFFCURVE",
"758 213 OFFCURVE",
"758 409 CURVE SMOOTH",
"758 605 OFFCURVE",
"648 700 OFFCURVE",
"434 700 CURVE SMOOTH",
"123 700 LINE",
"25 0 LINE"
);
},
{
closed = 1;
nodes = (
"307 525 LINE",
"400 525 LINE SMOOTH",
"499 525 OFFCURVE",
"546 484 OFFCURVE",
"546 381 CURVE SMOOTH",
"546 276 OFFCURVE",
"498 175 OFFCURVE",
"350 175 CURVE SMOOTH",
"257 175 LINE"
);
}
);
width = 781;
},
{
guideLines = (
{
position = "{205, 350}";
}
);
layerId = "C724B7CD-248E-4D7B-8006-7CFF52EADE8B";
paths = (
{
closed = 1;
nodes = (
"313 0 LINE SMOOTH",
"550 0 OFFCURVE",
"679 199 OFFCURVE",
"679 413 CURVE SMOOTH",
"679 598 OFFCURVE",
"581 700 OFFCURVE",
"411 700 CURVE SMOOTH",
"135 700 LINE",
"37 0 LINE"
);
},
{
closed = 1;
nodes = (
"212 619 LINE",
"390 619 LINE SMOOTH",
"518 619 OFFCURVE",
"585 550 OFFCURVE",
"585 404 CURVE SMOOTH",
"585 250 OFFCURVE",
"510 81 OFFCURVE",
"314 81 CURVE SMOOTH",
"136 81 LINE"
);
}
);
width = 709;
},
{
guideLines = (
{
position = "{202, 350}";
}
);
layerId = "747A76F5-4D21-4F4C-BD8F-BF7AFE68B107";
name = air;
paths = (
{
closed = 1;
nodes = (
"299 0 LINE SMOOTH",
"532 0 OFFCURVE",
"657 205 OFFCURVE",
"657 415 CURVE SMOOTH",
"657 598 OFFCURVE",
"561 700 OFFCURVE",
"397 700 CURVE SMOOTH",
"148 700 LINE",
"50 0 LINE"
);
},
{
closed = 1;
nodes = (
"169 678 LINE",
"386 678 LINE SMOOTH",
"542 678 OFFCURVE",
"630 583 OFFCURVE",
"630 411 CURVE SMOOTH",
"630 214 OFFCURVE",
"515 22 OFFCURVE",
"294 22 CURVE SMOOTH",
"77 22 LINE"
);
}
);
width = 704;
},
{
layerId = "1BF19B54-F320-4FA0-AF52-273918486B89";
name = "Ultra Black";
paths = (
{
closed = 1;
nodes = (
"366 0 LINE SMOOTH",
"607 0 OFFCURVE",
"734 121 OFFCURVE",
"734 350 CURVE SMOOTH",
"734 579 OFFCURVE",
"607 700 OFFCURVE",
"366 700 CURVE SMOOTH",
"55 700 LINE",
"55 0 LINE"
);
},
{
closed = 1;
nodes = (
"263 525 LINE",
"356 525 LINE SMOOTH",
"471 525 OFFCURVE",
"524 470 OFFCURVE",
"524 350 CURVE SMOOTH",
"524 230 OFFCURVE",
"471 175 OFFCURVE",
"356 175 CURVE SMOOTH",
"263 175 LINE"
);
}
);
width = 767;
},
{
associatedMasterId = "AAB0E2D1-7A47-467B-B788-A2CC53DD9722";
guideLines = (
{
position = "{178, 350}";
}
);
layerId = "C6E39714-E031-4DAD-BF51-855E0C82B86A";
name = "20. Okt. 22, 18:56";
paths = (
{
closed = 1;
nodes = (
"354 0 LINE SMOOTH",
"544 0 OFFCURVE",
"665 133 OFFCURVE",
"665 350 CURVE SMOOTH",
"665 567 OFFCURVE",
"544 700 OFFCURVE",
"354 700 CURVE SMOOTH",
"78 700 LINE",
"78 0 LINE"
);
},
{
closed = 1;
nodes = (
"166 619 LINE",
"344 619 LINE SMOOTH",
"478 619 OFFCURVE",
"572 514 OFFCURVE",
"572 350 CURVE SMOOTH",
"572 186 OFFCURVE",
"478 81 OFFCURVE",
"344 81 CURVE SMOOTH",
"166 81 LINE"
);
}
);
width = 717;
},
{
associatedMasterId = "1BF19B54-F320-4FA0-AF52-273918486B89";
layerId = "A675D3F7-F844-4DC6-B172-FBF6F6339C93";
name = "20. Okt. 22, 19:03";
paths = (
{
closed = 1;
nodes = (
"366 0 LINE SMOOTH",
"586 0 OFFCURVE",
"734 124 OFFCURVE",
"734 350 CURVE SMOOTH",
"734 576 OFFCURVE",
"586 700 OFFCURVE",
"366 700 CURVE SMOOTH",
"55 700 LINE",
"55 0 LINE"
);
},
{
closed = 1;
nodes = (
"263 525 LINE",
"356 525 LINE SMOOTH",
"460 525 OFFCURVE",
"524 467 OFFCURVE",
"524 350 CURVE SMOOTH",
"524 233 OFFCURVE",
"460 175 OFFCURVE",
"356 175 CURVE SMOOTH",
"263 175 LINE"
);
}
);
width = 767;
},
{
associatedMasterId = m003;
guideLines = (
{
position = "{152, 350}";
}
);
layerId = "ADFD46B6-84B7-4158-B578-DA0A7CC9D7F9";
name = "4. Nov. 22, 16:00";
paths = (
{
closed = 1;
nodes = (
"308 0 LINE SMOOTH",
"497 0 OFFCURVE",
"616 136 OFFCURVE",
"616 350 CURVE SMOOTH",
"616 564 OFFCURVE",
"497 700 OFFCURVE",
"308 700 CURVE SMOOTH",
"84 700 LINE",
"84 0 LINE"
);
},
{
closed = 1;
nodes = (
"108 678 LINE",
"305 678 LINE SMOOTH",
"481 678 OFFCURVE",
"590 553 OFFCURVE",
"590 350 CURVE SMOOTH",
"590 147 OFFCURVE",
"481 22 OFFCURVE",
"305 22 CURVE SMOOTH",
"108 22 LINE"
);
}
);
width = 672;
}
);
leftMetricsKey = H;
rightKerningGroup = RightUpO;
rightMetricsKey = O;
unicode = 0044;
},
{
glyphname = E;
lastChange = "2025-01-09 16:19:00 +0000";
layers = (
{
anchors = (
{
name = bottom;
position = "{326, 0}";
},
{
name = ogonek;
position = "{587, 10}";
},
{
name = top;
position = "{326, 700}";
},
{
name = topleft;
position = "{20, 700}";
}
);
layerId = "AAB0E2D1-7A47-467B-B788-A2CC53DD9722";
paths = (
{
closed = 1;
nodes = (
"166 0 LINE",
"166 700 LINE",
"78 700 LINE",
"78 0 LINE"
);
},
{
closed = 1;
nodes = (
"580 0 LINE",
"580 81 LINE",
"105 81 LINE",
"105 0 LINE"
);
},
{
closed = 1;
nodes = (
"550 320 LINE",
"550 401 LINE",
"105 401 LINE",
"105 320 LINE"
);
},
{
closed = 1;
nodes = (
"575 619 LINE",
"575 700 LINE",
"105 700 LINE",
"105 619 LINE"
);
}
);
width = 652;
},
{
anchors = (
{
name = bottom;
position = "{326, 0}";
},
{
name = ogonek;
position = "{586, 10}";
},
{
name = top;
position = "{326, 700}";
},
{
name = topleft;
position = "{20, 700}";
}
);
layerId = "1BF19B54-F320-4FA0-AF52-273918486B89";
paths = (
{
closed = 1;
nodes = (
"263 0 LINE",
"263 700 LINE",
"55 700 LINE",
"55 0 LINE"
);
},
{
closed = 1;
nodes = (
"607 0 LINE",
"607 175 LINE",
"142 175 LINE",
"142 0 LINE"
);
},
{
closed = 1;
nodes = (
"577 264 LINE",
"577 439 LINE",
"142 439 LINE",
"142 264 LINE"
);
},
{
closed = 1;
nodes = (
"602 525 LINE",
"602 700 LINE",
"142 700 LINE",
"142 525 LINE"
);
}
);
width = 651;
},
{
anchors = (
{
name = bottom;
position = "{301, 0}";
},
{
name = ogonek;
position = "{542, 10}";
},
{
name = top;
position = "{301, 700}";
},
{
name = topleft;
position = "{20, 700}";
}
);
layerId = m003;
paths = (
{
closed = 1;
nodes = (
"108 0 LINE",
"108 700 LINE",
"84 700 LINE",
"84 0 LINE"
);
},
{
closed = 1;
nodes = (
"532 0 LINE",
"532 22 LINE",
"107 22 LINE",
"107 0 LINE"
);
},
{
closed = 1;
nodes = (
"502 349 LINE",
"502 371 LINE",
"107 371 LINE",
"107 349 LINE"
);
},
{
closed = 1;
nodes = (
"527 678 LINE",
"527 700 LINE",
"107 700 LINE",
"107 678 LINE"
);
}
);
width = 602;
},
{
anchors = (
{
name = bottom;
position = "{293, 0}";
},
{
name = ogonek;
position = "{556, 10}";
},
{
name = top;
position = "{391, 700}";
},
{
name = topleft;
position = "{83, 700}";
}
);
layerId = "2146FA84-FF4E-4FEC-ADE7-E3206BD202A0";
paths = (
{
closed = 1;
nodes = (
"233 0 LINE",
"331 700 LINE",
"123 700 LINE",
"25 0 LINE"
);
},
{
closed = 1;
nodes = (
"577 0 LINE",
"601 175 LINE",
"136 175 LINE",
"112 0 LINE"
);
},
{
closed = 1;
nodes = (
"584 264 LINE",
"609 439 LINE",
"174 439 LINE",
"149 264 LINE"
);
},
{
closed = 1;
nodes = (
"646 525 LINE",
"670 700 LINE",
"210 700 LINE",
"186 525 LINE"
);
}
);
width = 656;
},
{
anchors = (
{
name = bottom;
position = "{288, 0}";
},
{
name = ogonek;
position = "{547, 10}";
},
{
name = top;
position = "{386, 700}";
},
{
name = topleft;
position = "{83, 700}";
}
);
layerId = "C724B7CD-248E-4D7B-8006-7CFF52EADE8B";
paths = (
{
closed = 1;
nodes = (
"125 0 LINE",
"223 700 LINE",
"135 700 LINE",
"37 0 LINE"
);
},
{
closed = 1;
nodes = (
"539 0 LINE",
"550 81 LINE",
"75 81 LINE",
"64 0 LINE"
);
},
{
closed = 1;
nodes = (
"554 320 LINE",
"565 401 LINE",
"120 401 LINE",
"109 320 LINE"
);
},
{
closed = 1;
nodes = (
"621 619 LINE",
"632 700 LINE",
"162 700 LINE",
"151 619 LINE"
);
}
);
width = 646;
},
{
anchors = (
{
name = bottom;
position = "{252, 0}";
},
{
name = ogonek;
position = "{497, 10}";
},
{
name = top;
position = "{350, 700}";
},
{
name = topleft;
position = "{64, 700}";
}
);
layerId = "747A76F5-4D21-4F4C-BD8F-BF7AFE68B107";
paths = (
{
closed = 1;
nodes = (
"74 0 LINE",
"172 700 LINE",
"148 700 LINE",
"50 0 LINE"
);
},
{
closed = 1;
nodes = (
"498 0 LINE",
"501 22 LINE",
"76 22 LINE",
"73 0 LINE"
);
},
{
closed = 1;
nodes = (
"517 349 LINE",
"520 371 LINE",
"125 371 LINE",
"122 349 LINE"
);
},
{
closed = 1;
nodes = (
"588 678 LINE",
"591 700 LINE",
"171 700 LINE",
"168 678 LINE"
);
}
);
width = 592;
}
);
leftMetricsKey = H;
unicode = 0045;
},
{
glyphname = F;
lastChange = "2025-01-09 16:19:00 +0000";
layers = (
{
layerId = "AAB0E2D1-7A47-467B-B788-A2CC53DD9722";
paths = (
{
closed = 1;
nodes = (
"166 0 LINE",
"166 700 LINE",
"78 700 LINE",
"78 0 LINE"
);
},
{
closed = 1;
nodes = (
"508 290 LINE",
"508 371 LINE",
"107 371 LINE",
"107 290 LINE"
);
},
{
closed = 1;
nodes = (
"543 619 LINE",
"543 700 LINE",
"107 700 LINE",
"107 619 LINE"
);
}
);
width = 569;
},
{
layerId = "1BF19B54-F320-4FA0-AF52-273918486B89";
paths = (
{
closed = 1;
nodes = (
"263 0 LINE",
"263 700 LINE",
"55 700 LINE",
"55 0 LINE"
);
},
{
closed = 1;
nodes = (
"565 253 LINE",
"565 428 LINE",
"144 428 LINE",
"144 253 LINE"
);
},
{
closed = 1;
nodes = (
"600 525 LINE",
"600 700 LINE",
"144 700 LINE",
"144 525 LINE"
);
}
);
width = 622;
},
{
layerId = m003;
paths = (
{
closed = 1;
nodes = (
"108 0 LINE",
"108 700 LINE",
"84 700 LINE",
"84 0 LINE"
);
},
{
closed = 1;
nodes = (
"484 317 LINE",
"484 339 LINE",
"93 339 LINE",
"93 317 LINE"
);
},
{
closed = 1;
nodes = (
"519 678 LINE",
"519 700 LINE",
"93 700 LINE",
"93 678 LINE"
);
}
);
width = 547;
},
{
layerId = "2146FA84-FF4E-4FEC-ADE7-E3206BD202A0";
paths = (
{
closed = 1;
nodes = (
"233 0 LINE",
"331 700 LINE",
"123 700 LINE",
"25 0 LINE"
);
},
{
closed = 1;
nodes = (
"570 253 LINE",
"595 428 LINE",
"174 428 LINE",
"149 253 LINE"
);
},
{
closed = 1;
nodes = (
"644 525 LINE",
"668 700 LINE",
"212 700 LINE",
"188 525 LINE"
);
}
);
width = 627;
},
{
layerId = "C724B7CD-248E-4D7B-8006-7CFF52EADE8B";
paths = (
{
closed = 1;
nodes = (
"125 0 LINE",
"223 700 LINE",
"135 700 LINE",
"37 0 LINE"
);
},
{
closed = 1;
nodes = (
"508 290 LINE",
"519 371 LINE",
"118 371 LINE",
"107 290 LINE"
);
},
{
closed = 1;
nodes = (
"589 619 LINE",
"600 700 LINE",
"164 700 LINE",
"153 619 LINE"
);
}
);
width = 567;
},
{
layerId = "747A76F5-4D21-4F4C-BD8F-BF7AFE68B107";
paths = (
{
closed = 1;
nodes = (
"93 0 LINE",
"191 700 LINE",
"167 700 LINE",
"69 0 LINE"
);
},
{
closed = 1;
nodes = (
"513 317 LINE",
"516 339 LINE",
"125 339 LINE",
"122 317 LINE"
);
},
{
closed = 1;
nodes = (
"599 678 LINE",
"602 700 LINE",
"176 700 LINE",
"173 678 LINE"
);
}
);
width = 579;
},
{
associatedMasterId = "1BF19B54-F320-4FA0-AF52-273918486B89";
layerId = "A8FC9CED-856B-447F-B0C4-AA726D2B5798";
name = "28. Nov. 22, 15:56";
paths = (
{
closed = 1;
nodes = (
"456 0 LINE",
"456 700 LINE",
"248 700 LINE",
"248 0 LINE"
);
},
{
closed = 1;
nodes = (
"659 233 LINE",
"659 408 LINE",
"45 408 LINE",
"45 233 LINE"
);
},
{
closed = 1;
nodes = (
"659 525 LINE",
"659 700 LINE",
"45 700 LINE",
"45 525 LINE"
);
}
);
width = 704;
}
);
unicode = 0046;
},
{
glyphname = G;
lastChange = "2025-01-09 16:19:00 +0000";
layers = (
{
layerId = "AAB0E2D1-7A47-467B-B788-A2CC53DD9722";
paths = (
{
closed = 1;
nodes = (
"505 -15 OFFCURVE",
"591 67 OFFCURVE",
"608 202 CURVE",
"591 278 LINE",
"584 141 OFFCURVE",
"510 68 OFFCURVE",
"377 68 CURVE SMOOTH",
"225 68 OFFCURVE",
"145 168 OFFCURVE",
"145 352 CURVE SMOOTH",
"145 537 OFFCURVE",
"228 632 OFFCURVE",
"383 632 CURVE SMOOTH",
"490 632 OFFCURVE",
"551 585 OFFCURVE",
"591 459 CURVE",
"677 487 LINE",
"635 644 OFFCURVE",
"537 715 OFFCURVE",
"383 715 CURVE SMOOTH",
"171 715 OFFCURVE",
"52 577 OFFCURVE",
"52 350 CURVE SMOOTH",
"52 123 OFFCURVE",
"176 -15 OFFCURVE",
"362 -15 CURVE SMOOTH"
);
},
{
closed = 1;
nodes = (
"687 0 LINE",
"687 276 LINE",
"591 276 LINE",
"590 227 LINE",
"601 197 LINE",
"601 0 LINE"
);
},
{
closed = 1;
nodes = (
"687 276 LINE",
"687 355 LINE",
"345 355 LINE",
"345 276 LINE"
);
}
);
width = 746;
},
{
layerId = "1BF19B54-F320-4FA0-AF52-273918486B89";
name = "Ultra Black";
paths = (
{
closed = 1;
nodes = (
"505 -15 OFFCURVE",
"583 75 OFFCURVE",
"583 223 CURVE",
"548 258 LINE",
"536 197 OFFCURVE",
"485 165 OFFCURVE",
"408 165 CURVE SMOOTH",
"298 165 OFFCURVE",
"243 229 OFFCURVE",
"243 348 CURVE SMOOTH",
"243 468 OFFCURVE",
"310 530 OFFCURVE",
"410 530 CURVE SMOOTH",
"489 530 OFFCURVE",
"531 491 OFFCURVE",
"557 418 CURVE",
"761 460 LINE",
"718 627 OFFCURVE",
"607 715 OFFCURVE",
"410 715 CURVE SMOOTH",
"173 715 OFFCURVE",
"33 594 OFFCURVE",
"33 348 CURVE SMOOTH",
"33 116 OFFCURVE",
"165 -15 OFFCURVE",
"351 -15 CURVE SMOOTH"
);
},
{
closed = 1;
nodes = (
"757 0 LINE",
"757 278 LINE",
"548 258 LINE",
"564 228 LINE",
"581 217 LINE",
"581 0 LINE"
);
},
{
closed = 1;
nodes = (
"757 258 LINE",
"757 393 LINE",
"365 393 LINE",
"365 258 LINE"
);
}
);
width = 794;
},
{
layerId = "2146FA84-FF4E-4FEC-ADE7-E3206BD202A0";
name = "Ultra Black Italic";
paths = (
{
closed = 1;
nodes = (
"477 -15 OFFCURVE",
"567 75 OFFCURVE",
"588 223 CURVE",
"558 258 LINE",
"537 197 OFFCURVE",
"482 165 OFFCURVE",
"405 165 CURVE SMOOTH",
"310 165 OFFCURVE",
"263 213 OFFCURVE",
"263 310 CURVE SMOOTH",
"263 424 OFFCURVE",
"326 530 OFFCURVE",
"458 530 CURVE SMOOTH",
"537 530 OFFCURVE",
"574 491 OFFCURVE",
"590 418 CURVE",
"799 460 LINE",
"780 627 OFFCURVE",
"681 715 OFFCURVE",
"484 715 CURVE SMOOTH",
"170 715 OFFCURVE",
"50 496 OFFCURVE",
"50 285 CURVE SMOOTH",
"50 87 OFFCURVE",
"159 -15 OFFCURVE",
"323 -15 CURVE SMOOTH"
);
},
{
closed = 1;
nodes = (
"731 0 LINE",
"770 278 LINE",
"558 258 LINE",
"570 228 LINE",
"585 217 LINE",
"555 0 LINE"
);
},
{
closed = 1;
nodes = (
"767 258 LINE",
"786 393 LINE",
"394 393 LINE",
"375 258 LINE"
);
}
);
width = 804;
},
{
layerId = "C724B7CD-248E-4D7B-8006-7CFF52EADE8B";
paths = (
{
closed = 1;
nodes = (
"467 -15 OFFCURVE",
"564 67 OFFCURVE",
"600 202 CURVE",
"594 278 LINE",
"568 141 OFFCURVE",
"483 68 OFFCURVE",
"350 68 CURVE SMOOTH",
"220 68 OFFCURVE",
"152 142 OFFCURVE",
"152 294 CURVE SMOOTH",
"152 457 OFFCURVE",
"231 632 OFFCURVE",
"436 632 CURVE SMOOTH",
"543 632 OFFCURVE",
"597 585 OFFCURVE",
"619 459 CURVE",
"709 487 LINE",
"689 644 OFFCURVE",
"601 715 OFFCURVE",
"447 715 CURVE SMOOTH",
"189 715 OFFCURVE",
"59 506 OFFCURVE",
"59 287 CURVE SMOOTH",
"59 92 OFFCURVE",
"160 -15 OFFCURVE",
"324 -15 CURVE SMOOTH"
);
},
{
closed = 1;
nodes = (
"651 0 LINE",
"690 276 LINE",
"594 276 LINE",
"586 227 LINE",
"592 197 LINE",
"565 0 LINE"
);
},
{
closed = 1;
nodes = (
"690 276 LINE",
"701 355 LINE",
"359 355 LINE",
"348 276 LINE"
);
}
);
width = 736;
},
{
layerId = "747A76F5-4D21-4F4C-BD8F-BF7AFE68B107";
paths = (
{
closed = 1;
nodes = (
"502 -15 OFFCURVE",
"605 91 OFFCURVE",
"633 292 CURVE",
"630 311 LINE",
"590 113 OFFCURVE",
"489 9 OFFCURVE",
"334 9 CURVE SMOOTH",
"184 9 OFFCURVE",
"101 105 OFFCURVE",
"101 281 CURVE SMOOTH",
"101 481 OFFCURVE",
"207 691 OFFCURVE",
"434 691 CURVE SMOOTH",
"559 691 OFFCURVE",
"635 627 OFFCURVE",
"657 488 CURVE",
"683 496 LINE",
"661 646 OFFCURVE",
"577 715 OFFCURVE",
"437 715 CURVE SMOOTH",
"193 715 OFFCURVE",
"75 499 OFFCURVE",
"75 279 CURVE SMOOTH",
"75 88 OFFCURVE",
"164 -15 OFFCURVE",
"331 -15 CURVE SMOOTH"
);
},
{
closed = 1;
nodes = (
"611 0 LINE",
"655 311 LINE",
"630 311 LINE",
"623 267 LINE",
"623 257 LINE",
"587 0 LINE"
);
},
{
closed = 1;
nodes = (
"655 311 LINE",
"658 333 LINE",
"349 333 LINE",
"346 311 LINE"
);
}
);
width = 708;
},
{
associatedMasterId = "AAB0E2D1-7A47-467B-B788-A2CC53DD9722";
layerId = "65546BE8-E7F2-4C28-9A18-39C330B22190";
name = "10. Okt. 22, 16:15";
paths = (
{
closed = 1;
nodes = (
"516 -15 OFFCURVE",
"602 69 OFFCURVE",
"608 182 CURVE",
"591 278 LINE",
"585 155 OFFCURVE",
"493 68 OFFCURVE",
"377 68 CURVE SMOOTH",
"244 68 OFFCURVE",
"145 187 OFFCURVE",
"145 357 CURVE SMOOTH",
"145 524 OFFCURVE",
"244 632 OFFCURVE",
"383 632 CURVE SMOOTH",
"489 632 OFFCURVE",
"569 571 OFFCURVE",
"589 468 CURVE",
"681 468 LINE",
"662 634 OFFCURVE",
"542 715 OFFCURVE",
"382 715 CURVE SMOOTH",
"162 715 OFFCURVE",
"52 562 OFFCURVE",
"52 350 CURVE SMOOTH",
"52 137 OFFCURVE",
"166 -15 OFFCURVE",
"368 -15 CURVE SMOOTH"
);
},
{
closed = 1;
nodes = (
"687 0 LINE",
"687 276 LINE",
"591 276 LINE",
"590 187 LINE",
"601 177 LINE",
"601 0 LINE"
);
},
{
closed = 1;
nodes = (
"687 276 LINE",
"687 355 LINE",
"345 355 LINE",
"345 276 LINE"
);
}
);
width = 746;
},
{
associatedMasterId = "1BF19B54-F320-4FA0-AF52-273918486B89";
layerId = "479E542A-145C-446E-AF0B-3C0A8A5D741B";
name = "10. Okt. 22, 16:40";
paths = (
{
closed = 1;
nodes = (
"528 -15 OFFCURVE",
"578 85 OFFCURVE",
"586 163 CURVE",
"548 258 LINE",
"537 203 OFFCURVE",
"473 165 OFFCURVE",
"404 165 CURVE SMOOTH",
"305 165 OFFCURVE",
"243 243 OFFCURVE",
"243 350 CURVE SMOOTH",
"243 458 OFFCURVE",
"307 525 OFFCURVE",
"404 525 CURVE SMOOTH",
"475 525 OFFCURVE",
"535 489 OFFCURVE",
"549 428 CURVE",
"761 428 LINE",
"740 634 OFFCURVE",
"594 715 OFFCURVE",
"407 715 CURVE SMOOTH",
"156 715 OFFCURVE",
"33 560 OFFCURVE",
"33 352 CURVE SMOOTH",
"33 135 OFFCURVE",
"169 -15 OFFCURVE",
"367 -15 CURVE SMOOTH"
);
},
{
closed = 1;
nodes = (
"757 0 LINE",
"757 278 LINE",
"548 258 LINE",
"540 187 LINE",
"581 176 LINE",
"581 0 LINE"
);
},
{
closed = 1;
nodes = (
"757 258 LINE",
"757 393 LINE",
"365 393 LINE",
"365 258 LINE"
);
}
);
width = 794;
},
{
associatedMasterId = "AAB0E2D1-7A47-467B-B788-A2CC53DD9722";
layerId = "DFB4BA69-D7DC-4090-A6F8-E6214A38BF5D";
name = "11. Okt. 22, 15:05";
paths = (
{
closed = 1;
nodes = (
"516 -15 OFFCURVE",
"602 69 OFFCURVE",
"608 182 CURVE",
"591 278 LINE",
"585 155 OFFCURVE",
"493 68 OFFCURVE",
"377 68 CURVE SMOOTH",
"244 68 OFFCURVE",
"145 187 OFFCURVE",
"145 357 CURVE SMOOTH",
"145 524 OFFCURVE",
"244 632 OFFCURVE",
"383 632 CURVE SMOOTH",
"489 632 OFFCURVE",
"551 585 OFFCURVE",
"591 459 CURVE",
"677 487 LINE",
"635 644 OFFCURVE",
"542 715 OFFCURVE",
"382 715 CURVE SMOOTH",
"162 715 OFFCURVE",
"52 562 OFFCURVE",
"52 350 CURVE SMOOTH",
"52 137 OFFCURVE",
"166 -15 OFFCURVE",
"368 -15 CURVE SMOOTH"
);
},
{
closed = 1;
nodes = (
"687 0 LINE",
"687 276 LINE",
"591 276 LINE",
"590 187 LINE",
"601 177 LINE",
"601 0 LINE"
);
},
{
closed = 1;
nodes = (
"687 276 LINE",
"687 355 LINE",
"345 355 LINE",
"345 276 LINE"
);
}
);
width = 746;
},
{
associatedMasterId = "1BF19B54-F320-4FA0-AF52-273918486B89";
layerId = "EA9D0B9F-771D-491E-BAE8-405F3A93C788";
name = "28. Okt. 22, 12:32";
paths = (
{
closed = 1;
nodes = (
"538 -15 OFFCURVE",
"583 125 OFFCURVE",
"583 223 CURVE",
"548 258 LINE",
"537 203 OFFCURVE",
"473 165 OFFCURVE",
"404 165 CURVE SMOOTH",
"305 165 OFFCURVE",
"243 243 OFFCURVE",
"243 350 CURVE SMOOTH",
"243 458 OFFCURVE",
"307 525 OFFCURVE",
"404 525 CURVE SMOOTH",
"475 525 OFFCURVE",
"528 495 OFFCURVE",
"557 418 CURVE",
"761 460 LINE",
"714 643 OFFCURVE",
"594 715 OFFCURVE",
"407 715 CURVE SMOOTH",
"156 715 OFFCURVE",
"33 560 OFFCURVE",
"33 352 CURVE SMOOTH",
"33 135 OFFCURVE",
"163 -15 OFFCURVE",
"353 -15 CURVE SMOOTH"
);
},
{
closed = 1;
nodes = (
"757 0 LINE",
"757 278 LINE",
"548 258 LINE",
"564 228 LINE",
"581 217 LINE",
"581 0 LINE"
);
},
{
closed = 1;
nodes = (
"757 258 LINE",
"757 393 LINE",
"365 393 LINE",
"365 258 LINE"
);
}
);
width = 794;
},
{
associatedMasterId = "1BF19B54-F320-4FA0-AF52-273918486B89";
layerId = "1062D01A-45D4-42D9-A925-4B1D3A908A48";
name = "28. Okt. 22, 12:37";
paths = (
{
closed = 1;
nodes = (
"595 -15 OFFCURVE",
"707 88 OFFCURVE",
"745 284 CURVE",
"537 309 LINE",
"518 216 OFFCURVE",
"477 170 OFFCURVE",
"393 170 CURVE SMOOTH",
"298 170 OFFCURVE",
"243 230 OFFCURVE",
"243 350 CURVE SMOOTH",
"243 470 OFFCURVE",
"299 530 OFFCURVE",
"389 530 CURVE SMOOTH",
"465 530 OFFCURVE",
"501 488 OFFCURVE",
"528 403 CURVE",
"732 445 LINE",
"690 622 OFFCURVE",
"580 715 OFFCURVE",
"389 715 CURVE SMOOTH",
"165 715 OFFCURVE",
"33 589 OFFCURVE",
"33 350 CURVE SMOOTH",
"33 111 OFFCURVE",
"167 -15 OFFCURVE",
"393 -15 CURVE SMOOTH"
);
}
);
width = 794;
},
{
associatedMasterId = m003;
layerId = "ADC62072-B2B7-4178-9D77-FA51263ADC9B";
name = "4. Nov. 22, 16:02";
paths = (
{
closed = 1;
nodes = (
"508 -15 OFFCURVE",
"600 61 OFFCURVE",
"638 226 CURVE",
"614 234 LINE",
"576 80 OFFCURVE",
"492 9 OFFCURVE",
"361 9 CURVE SMOOTH",
"184 9 OFFCURVE",
"82 137 OFFCURVE",
"82 353 CURVE SMOOTH",
"82 562 OFFCURVE",
"182 691 OFFCURVE",
"360 691 CURVE SMOOTH",
"486 691 OFFCURVE",
"566 627 OFFCURVE",
"608 488 CURVE",
"632 496 LINE",
"589 646 OFFCURVE",
"501 715 OFFCURVE",
"360 715 CURVE SMOOTH",
"164 715 OFFCURVE",
"56 577 OFFCURVE",
"56 353 CURVE SMOOTH",
"56 122 OFFCURVE",
"165 -15 OFFCURVE",
"361 -15 CURVE SMOOTH"
);
}
);
width = 706;
},
{
associatedMasterId = m003;
layerId = "77F9552E-4BAF-4EFF-A477-126C5500713F";
name = "4. Nov. 22, 16:06";
paths = (
{
closed = 1;
nodes = (
"522 -15 OFFCURVE",
"616 116 OFFCURVE",
"616 292 CURVE",
"610 311 LINE",
"603 134 OFFCURVE",
"507 9 OFFCURVE",
"352 9 CURVE SMOOTH",
"188 9 OFFCURVE",
"82 148 OFFCURVE",
"82 353 CURVE SMOOTH",
"82 556 OFFCURVE",
"179 691 OFFCURVE",
"363 691 CURVE SMOOTH",
"508 691 OFFCURVE",
"595 608 OFFCURVE",
"611 488 CURVE",
"636 488 LINE",
"619 634 OFFCURVE",
"511 715 OFFCURVE",
"363 715 CURVE SMOOTH",
"159 715 OFFCURVE",
"56 561 OFFCURVE",
"56 353 CURVE SMOOTH",
"56 136 OFFCURVE",
"169 -15 OFFCURVE",
"352 -15 CURVE SMOOTH"
);
},
{
closed = 1;
nodes = (
"635 0 LINE",
"635 311 LINE",
"610 311 LINE",
"610 267 LINE",
"611 257 LINE",
"611 0 LINE"
);
},
{
closed = 1;
nodes = (
"635 311 LINE",
"635 333 LINE",
"333 333 LINE",
"333 311 LINE"
);
}
);
width = 706;
},
{
layerId = m003;
name = Air;
paths = (
{
closed = 1;
nodes = (
"528 -15 OFFCURVE",
"616 91 OFFCURVE",
"616 292 CURVE",
"610 311 LINE",
"598 113 OFFCURVE",
"512 9 OFFCURVE",
"357 9 CURVE SMOOTH",
"184 9 OFFCURVE",
"82 137 OFFCURVE",
"82 353 CURVE SMOOTH",
"82 562 OFFCURVE",
"182 691 OFFCURVE",
"361 691 CURVE SMOOTH",
"486 691 OFFCURVE",
"571 627 OFFCURVE",
"613 488 CURVE",
"637 496 LINE",
"594 646 OFFCURVE",
"501 715 OFFCURVE",
"361 715 CURVE SMOOTH",
"164 715 OFFCURVE",
"56 577 OFFCURVE",
"56 353 CURVE SMOOTH",
"56 122 OFFCURVE",
"165 -15 OFFCURVE",
"357 -15 CURVE SMOOTH"
);
},
{
closed = 1;
nodes = (
"635 0 LINE",
"635 311 LINE",
"610 311 LINE",
"610 267 LINE",
"611 257 LINE",
"611 0 LINE"
);
},
{
closed = 1;
nodes = (
"635 311 LINE",
"635 333 LINE",
"326 333 LINE",
"326 311 LINE"
);
}
);
width = 707;
}
);
leftKerningGroup = LeftUpO;
leftMetricsKey = O;
rightMetricsKey = B;
unicode = 0047;
},
{
glyphname = H;
lastChange = "2025-01-09 16:19:00 +0000";
layers = (
{
layerId = "AAB0E2D1-7A47-467B-B788-A2CC53DD9722";
paths = (
{
closed = 1;
nodes = (
"166 0 LINE",
"166 319 LINE",
"562 319 LINE",
"562 0 LINE",
"650 0 LINE",
"650 700 LINE",
"562 700 LINE",
"562 400 LINE",
"166 400 LINE",
"166 700 LINE",
"78 700 LINE",
"78 0 LINE"
);
}
);
width = 728;
},
{
layerId = "1BF19B54-F320-4FA0-AF52-273918486B89";
paths = (
{
closed = 1;
nodes = (
"263 0 LINE",
"263 272 LINE",
"499 272 LINE",
"499 0 LINE",
"707 0 LINE",
"707 700 LINE",
"499 700 LINE",
"499 447 LINE",
"263 447 LINE",
"263 700 LINE",
"55 700 LINE",
"55 0 LINE"
);
}
);
width = 762;
},
{
associatedMasterId = "AAB0E2D1-7A47-467B-B788-A2CC53DD9722";
layerId = "C30B41DE-27B1-4747-8CA1-A19749502C3C";
name = "20. Nov. 21, 16:47";
paths = (
{
closed = 1;
nodes = (
"60 0 LINE",
"148 0 LINE",
"148 700 LINE",
"60 700 LINE"
);
},
{
closed = 1;
nodes = (
"119 321 LINE",
"544 321 LINE",
"544 398 LINE",
"119 398 LINE"
);
},
{
closed = 1;
nodes = (
"544 0 LINE",
"632 0 LINE",
"632 700 LINE",
"544 700 LINE"
);
}
);
width = 692;
},
{
layerId = m003;
paths = (
{
closed = 1;
nodes = (
"108 0 LINE",
"108 356 LINE",
"570 356 LINE",
"570 0 LINE",
"594 0 LINE",
"594 700 LINE",
"570 700 LINE",
"570 378 LINE",
"108 378 LINE",
"108 700 LINE",
"84 700 LINE",
"84 0 LINE"
);
}
);
width = 678;
},
{
associatedMasterId = m003;
layerId = "2EE81A7E-0734-400A-AD70-FB7C2E45E0AE";
name = "20. Nov. 21, 16:47";
paths = (
{
closed = 1;
nodes = (
"60 0 LINE",
"148 0 LINE",
"148 700 LINE",
"60 700 LINE"
);
},
{
closed = 1;
nodes = (
"119 321 LINE",
"544 321 LINE",
"544 398 LINE",
"119 398 LINE"
);
},
{
closed = 1;
nodes = (
"544 0 LINE",
"632 0 LINE",
"632 700 LINE",
"544 700 LINE"
);
}
);
width = 692;
},
{
layerId = "2146FA84-FF4E-4FEC-ADE7-E3206BD202A0";
paths = (
{
closed = 1;
nodes = (
"233 0 LINE",
"271 272 LINE",
"507 272 LINE",
"469 0 LINE",
"677 0 LINE",
"775 700 LINE",
"567 700 LINE",
"532 447 LINE",
"296 447 LINE",
"331 700 LINE",
"123 700 LINE",
"25 0 LINE"
);
}
);
width = 772;
},
{
layerId = "C724B7CD-248E-4D7B-8006-7CFF52EADE8B";
paths = (
{
closed = 1;
nodes = (
"128 0 LINE",
"173 319 LINE",
"566 319 LINE",
"521 0 LINE",
"612 0 LINE",
"710 700 LINE",
"619 700 LINE",
"577 400 LINE",
"184 400 LINE",
"226 700 LINE",
"135 700 LINE",
"37 0 LINE"
);
}
);
width = 719;
},
{
layerId = "747A76F5-4D21-4F4C-BD8F-BF7AFE68B107";
paths = (
{
closed = 1;
nodes = (
"75 0 LINE",
"125 356 LINE",
"586 356 LINE",
"536 0 LINE",
"561 0 LINE",
"659 700 LINE",
"634 700 LINE",
"589 378 LINE",
"128 378 LINE",
"173 700 LINE",
"148 700 LINE",
"50 0 LINE"
);
}
);
width = 681;
}
);
unicode = 0048;
},
{
glyphname = I;
lastChange = "2025-01-09 16:19:00 +0000";
layers = (
{
layerId = "AAB0E2D1-7A47-467B-B788-A2CC53DD9722";
paths = (
{
closed = 1;
nodes = (
"166 0 LINE",
"166 700 LINE",
"78 700 LINE",
"78 0 LINE"
);
}
);
width = 244;
},
{
layerId = "1BF19B54-F320-4FA0-AF52-273918486B89";
paths = (
{
closed = 1;
nodes = (
"263 0 LINE",
"263 700 LINE",
"55 700 LINE",
"55 0 LINE"
);
}
);
width = 318;
},
{
layerId = m003;
paths = (
{
closed = 1;
nodes = (
"108 0 LINE",
"108 700 LINE",
"84 700 LINE",
"84 0 LINE"
);
}
);
width = 192;
},
{
layerId = "2146FA84-FF4E-4FEC-ADE7-E3206BD202A0";
paths = (
{
closed = 1;
nodes = (
"233 0 LINE",
"331 700 LINE",
"123 700 LINE",
"25 0 LINE"
);
}
);
width = 328;
},
{
layerId = "C724B7CD-248E-4D7B-8006-7CFF52EADE8B";
paths = (
{
closed = 1;
nodes = (
"128 0 LINE",
"226 700 LINE",
"135 700 LINE",
"37 0 LINE"
);
}
);
width = 235;
},
{
associatedMasterId = "C724B7CD-248E-4D7B-8006-7CFF52EADE8B";
layerId = "033B0B0F-6B6D-46FD-919C-8915143E9961";
name = "20. Juli 22, 19:00";
paths = (
{
closed = 1;
nodes = (
"148 0 LINE",
"148 700 LINE",
"60 700 LINE",
"60 0 LINE"
);
}
);
width = 208;
},
{
layerId = "747A76F5-4D21-4F4C-BD8F-BF7AFE68B107";
paths = (
{
closed = 1;
nodes = (
"75 0 LINE",
"173 700 LINE",
"148 700 LINE",
"50 0 LINE"
);
}
);
width = 195;
},
{
associatedMasterId = "747A76F5-4D21-4F4C-BD8F-BF7AFE68B107";
layerId = "F2FCAD23-9E8F-4DEF-AAFF-F984DDECE59F";
name = "23. Juli 22, 14:54";
paths = (
{
closed = 1;
nodes = (
"84 0 LINE",
"84 700 LINE",
"60 700 LINE",
"60 0 LINE"
);
}
);
width = 144;
}
);
leftMetricsKey = H;
rightMetricsKey = H;
unicode = 0049;
},
{
glyphname = J;
lastChange = "2025-01-09 16:19:00 +0000";
layers = (
{
layerId = "AAB0E2D1-7A47-467B-B788-A2CC53DD9722";
paths = (
{
closed = 1;
nodes = (
"384 -15 OFFCURVE",
"441 86 OFFCURVE",
"441 241 CURVE SMOOTH",
"441 700 LINE",
"353 700 LINE",
"353 264 LINE SMOOTH",
"353 139 OFFCURVE",
"325 68 OFFCURVE",
"231 68 CURVE SMOOTH",
"133 68 OFFCURVE",
"114 146 OFFCURVE",
"94 237 CURVE",
"6 208 LINE",
"39 82 OFFCURVE",
"71 -15 OFFCURVE",
"228 -15 CURVE SMOOTH"
);
}
);
width = 519;
},
{
layerId = "1BF19B54-F320-4FA0-AF52-273918486B89";
paths = (
{
closed = 1;
nodes = (
"487 -15 OFFCURVE",
"560 86 OFFCURVE",
"560 245 CURVE SMOOTH",
"560 700 LINE",
"352 700 LINE",
"352 268 LINE SMOOTH",
"352 204 OFFCURVE",
"336 170 OFFCURVE",
"284 170 CURVE SMOOTH",
"242 170 OFFCURVE",
"228 195 OFFCURVE",
"218 249 CURVE",
"10 224 LINE",
"22 77 OFFCURVE",
"92 -15 OFFCURVE",
"284 -15 CURVE SMOOTH"
);
}
);
width = 615;
},
{
layerId = m003;
paths = (
{
closed = 1;
nodes = (
"349 -15 OFFCURVE",
"412 64 OFFCURVE",
"412 235 CURVE SMOOTH",
"412 700 LINE",
"388 700 LINE",
"388 241 LINE SMOOTH",
"388 83 OFFCURVE",
"333 10 OFFCURVE",
"213 10 CURVE SMOOTH",
"96 10 OFFCURVE",
"58 78 OFFCURVE",
"28 207 CURVE",
"4 198 LINE",
"37 61 OFFCURVE",
"77 -15 OFFCURVE",
"213 -15 CURVE SMOOTH"
);
}
);
width = 496;
},
{
layerId = "2146FA84-FF4E-4FEC-ADE7-E3206BD202A0";
paths = (
{
closed = 1;
nodes = (
"450 -15 OFFCURVE",
"537 86 OFFCURVE",
"559 241 CURVE SMOOTH",
"623 700 LINE",
"415 700 LINE",
"354 264 LINE SMOOTH",
"346 204 OFFCURVE",
"325 170 OFFCURVE",
"273 170 CURVE SMOOTH",
"231 170 OFFCURVE",
"220 195 OFFCURVE",
"218 249 CURVE",
"6 224 LINE",
"-2 77 OFFCURVE",
"55 -15 OFFCURVE",
"247 -15 CURVE SMOOTH"
);
}
);
width = 620;
},
{
layerId = "C724B7CD-248E-4D7B-8006-7CFF52EADE8B";
paths = (
{
closed = 1;
nodes = (
"346 -15 OFFCURVE",
"417 86 OFFCURVE",
"439 241 CURVE SMOOTH",
"503 700 LINE",
"415 700 LINE",
"354 264 LINE SMOOTH",
"336 139 OFFCURVE",
"298 68 OFFCURVE",
"204 68 CURVE SMOOTH",
"106 68 OFFCURVE",
"98 146 OFFCURVE",
"91 237 CURVE",
"-1 208 LINE",
"14 82 OFFCURVE",
"33 -15 OFFCURVE",
"190 -15 CURVE SMOOTH"
);
}
);
width = 512;
},
{
layerId = "747A76F5-4D21-4F4C-BD8F-BF7AFE68B107";
paths = (
{
closed = 1;
nodes = (
"311 -15 OFFCURVE",
"385 64 OFFCURVE",
"409 235 CURVE SMOOTH",
"474 700 LINE",
"450 700 LINE",
"386 241 LINE SMOOTH",
"364 83 OFFCURVE",
"298 10 OFFCURVE",
"178 10 CURVE SMOOTH",
"61 10 OFFCURVE",
"33 78 OFFCURVE",
"21 207 CURVE",
"-4 198 LINE",
"9 61 OFFCURVE",
"39 -15 OFFCURVE",
"175 -15 CURVE SMOOTH"
);
}
);
width = 496;
},
{
associatedMasterId = "AAB0E2D1-7A47-467B-B788-A2CC53DD9722";
layerId = "8E409D91-5A03-4DDC-813A-6B33E789F294";
name = "10. Okt. 22, 16:19";
paths = (
{
closed = 1;
nodes = (
"384 -15 OFFCURVE",
"441 86 OFFCURVE",
"441 241 CURVE SMOOTH",
"441 700 LINE",
"353 700 LINE",
"353 264 LINE SMOOTH",
"353 139 OFFCURVE",
"328 68 OFFCURVE",
"227 68 CURVE SMOOTH",
"134 68 OFFCURVE",
"99 127 OFFCURVE",
"99 237 CURVE",
"13 237 LINE",
"13 75 OFFCURVE",
"75 -15 OFFCURVE",
"225 -15 CURVE SMOOTH"
);
}
);
width = 519;
},
{
associatedMasterId = "2146FA84-FF4E-4FEC-ADE7-E3206BD202A0";
layerId = "0877DA12-46BB-43CF-9B6E-8071D3634DF0";
name = "22. Nov. 22, 16:39";
paths = (
{
closed = 1;
nodes = (
"458 -15 OFFCURVE",
"545 86 OFFCURVE",
"567 241 CURVE SMOOTH",
"631 700 LINE",
"423 700 LINE",
"362 264 LINE SMOOTH",
"354 204 OFFCURVE",
"333 170 OFFCURVE",
"281 170 CURVE SMOOTH",
"239 170 OFFCURVE",
"218 195 OFFCURVE",
"225 243 CURVE",
"19 243 LINE",
"-4 77 OFFCURVE",
"63 -15 OFFCURVE",
"255 -15 CURVE SMOOTH"
);
}
);
width = 628;
}
);
rightMetricsKey = H;
unicode = 004A;
},
{
glyphname = K;
lastChange = "2025-01-09 16:19:00 +0000";
layers = (
{
layerId = "AAB0E2D1-7A47-467B-B788-A2CC53DD9722";
paths = (
{
closed = 1;
nodes = (
"293 368 LINE",
"347 414 LINE",
"626 700 LINE",
"506 700 LINE",
"121 306 LINE",
"166 276 LINE"
);
},
{
closed = 1;
nodes = (
"166 0 LINE",
"166 700 LINE",
"78 700 LINE",
"78 0 LINE"
);
},
{
closed = 1;
nodes = (
"655 0 LINE",
"339 448 LINE",
"253 418 LINE",
"545 0 LINE"
);
}
);
width = 668;
},
{
layerId = "1BF19B54-F320-4FA0-AF52-273918486B89";
paths = (
{
closed = 1;
nodes = (
"352 298 LINE",
"462 397 LINE",
"723 700 LINE",
"473 700 LINE",
"159 266 LINE",
"263 244 LINE"
);
},
{
closed = 1;
nodes = (
"263 0 LINE",
"263 700 LINE",
"55 700 LINE",
"55 0 LINE"
);
},
{
closed = 1;
nodes = (
"742 0 LINE",
"455 443 LINE",
"289 397 LINE",
"498 0 LINE"
);
}
);
width = 753;
},
{
layerId = m003;
paths = (
{
closed = 1;
nodes = (
"267 390 LINE",
"276 400 LINE",
"558 700 LINE",
"523 700 LINE",
"94 243 LINE",
"108 233 LINE"
);
},
{
closed = 1;
nodes = (
"108 0 LINE",
"108 700 LINE",
"84 700 LINE",
"84 0 LINE"
);
},
{
closed = 1;
nodes = (
"556 0 LINE",
"274 410 LINE",
"251 400 LINE",
"525 0 LINE"
);
}
);
width = 579;
},
{
layerId = "2146FA84-FF4E-4FEC-ADE7-E3206BD202A0";
paths = (
{
closed = 1;
nodes = (
"364 298 LINE",
"488 397 LINE",
"791 700 LINE",
"541 700 LINE",
"166 266 LINE",
"267 244 LINE"
);
},
{
closed = 1;
nodes = (
"233 0 LINE",
"331 700 LINE",
"123 700 LINE",
"25 0 LINE"
);
},
{
closed = 1;
nodes = (
"712 0 LINE",
"487 443 LINE",
"315 397 LINE",
"468 0 LINE"
);
}
);
width = 767;
},
{
layerId = "C724B7CD-248E-4D7B-8006-7CFF52EADE8B";
paths = (
{
closed = 1;
nodes = (
"304 368 LINE",
"364 414 LINE",
"683 700 LINE",
"563 700 LINE",
"123 306 LINE",
"164 276 LINE"
);
},
{
closed = 1;
nodes = (
"125 0 LINE",
"223 700 LINE",
"135 700 LINE",
"37 0 LINE"
);
},
{
closed = 1;
nodes = (
"614 0 LINE",
"361 448 LINE",
"271 418 LINE",
"504 0 LINE"
);
}
);
width = 659;
},
{
layerId = "747A76F5-4D21-4F4C-BD8F-BF7AFE68B107";
paths = (
{
closed = 1;
nodes = (
"288 390 LINE",
"298 400 LINE",
"622 700 LINE",
"587 700 LINE",
"94 243 LINE",
"107 233 LINE"
);
},
{
closed = 1;
nodes = (
"74 0 LINE",
"172 700 LINE",
"148 700 LINE",
"50 0 LINE"
);
},
{
closed = 1;
nodes = (
"522 0 LINE",
"297 410 LINE",
"273 400 LINE",
"491 0 LINE"
);
}
);
width = 579;
},
{
associatedMasterId = "AAB0E2D1-7A47-467B-B788-A2CC53DD9722";
layerId = "D063D3C0-D4D1-485D-ACA4-C2792A2FEF37";
name = "10. Okt. 22, 18:27";
paths = (
{
closed = 1;
nodes = (
"626 700 LINE",
"504 700 LINE",
"86 283 LINE",
"166 241 LINE"
);
},
{
closed = 1;
nodes = (
"166 0 LINE",
"166 700 LINE",
"78 700 LINE",
"78 0 LINE"
);
},
{
closed = 1;
nodes = (
"655 0 LINE",
"339 448 LINE",
"253 418 LINE",
"545 0 LINE"
);
}
);
width = 668;
},
{
associatedMasterId = "1BF19B54-F320-4FA0-AF52-273918486B89";
layerId = "2468E565-F759-41E9-AD12-064A617BBAA9";
name = "10. Okt. 22, 18:30";
paths = (
{
closed = 1;
nodes = (
"723 700 LINE",
"473 700 LINE",
"65 253 LINE",
"263 201 LINE"
);
},
{
closed = 1;
nodes = (
"263 0 LINE",
"263 700 LINE",
"55 700 LINE",
"55 0 LINE"
);
},
{
closed = 1;
nodes = (
"742 0 LINE",
"455 443 LINE",
"261 413 LINE",
"498 0 LINE"
);
}
);
width = 753;
},
{
associatedMasterId = m003;
layerId = "344D70E2-1AA1-438B-801A-D93F6BE43267";
name = "4. Nov. 22, 17:10";
paths = (
{
closed = 1;
nodes = (
"267 390 LINE",
"276 400 LINE",
"558 700 LINE",
"523 700 LINE",
"94 243 LINE",
"108 221 LINE"
);
},
{
closed = 1;
nodes = (
"108 0 LINE",
"108 700 LINE",
"84 700 LINE",
"84 0 LINE"
);
},
{
closed = 1;
nodes = (
"556 0 LINE",
"274 410 LINE",
"251 400 LINE",
"525 0 LINE"
);
}
);
width = 579;
}
);
leftMetricsKey = H;
rightKerningGroup = RightUpX;
unicode = 004B;
},
{
glyphname = L;
lastChange = "2025-01-09 16:19:00 +0000";
layers = (
{
layerId = "AAB0E2D1-7A47-467B-B788-A2CC53DD9722";
paths = (
{
closed = 1;
nodes = (
"166 0 LINE",
"166 700 LINE",
"78 700 LINE",
"78 0 LINE"
);
},
{
closed = 1;
nodes = (
"547 0 LINE",
"547 81 LINE",
"102 81 LINE",
"102 0 LINE"
);
}
);
width = 557;
},
{
layerId = "1BF19B54-F320-4FA0-AF52-273918486B89";
paths = (
{
closed = 1;
nodes = (
"263 0 LINE",
"263 700 LINE",
"55 700 LINE",
"55 0 LINE"
);
},
{
closed = 1;
nodes = (
"584 0 LINE",
"584 176 LINE",
"79 176 LINE",
"79 0 LINE"
);
}
);
width = 606;
},
{
layerId = m003;
paths = (
{
closed = 1;
nodes = (
"108 0 LINE",
"108 700 LINE",
"84 700 LINE",
"84 0 LINE"
);
},
{
closed = 1;
nodes = (
"509 0 LINE",
"509 22 LINE",
"106 22 LINE",
"106 0 LINE"
);
}
);
width = 524;
},
{
layerId = "2146FA84-FF4E-4FEC-ADE7-E3206BD202A0";
paths = (
{
closed = 1;
nodes = (
"233 0 LINE",
"331 700 LINE",
"123 700 LINE",
"25 0 LINE"
);
},
{
closed = 1;
nodes = (
"554 0 LINE",
"579 176 LINE",
"74 176 LINE",
"49 0 LINE"
);
}
);
width = 604;
},
{
layerId = "C724B7CD-248E-4D7B-8006-7CFF52EADE8B";
paths = (
{
closed = 1;
nodes = (
"128 0 LINE",
"226 700 LINE",
"135 700 LINE",
"37 0 LINE"
);
},
{
closed = 1;
nodes = (
"509 0 LINE",
"520 81 LINE",
"75 81 LINE",
"64 0 LINE"
);
}
);
width = 554;
},
{
layerId = "747A76F5-4D21-4F4C-BD8F-BF7AFE68B107";
paths = (
{
closed = 1;
nodes = (
"75 0 LINE",
"173 700 LINE",
"148 700 LINE",
"50 0 LINE"
);
},
{
closed = 1;
nodes = (
"476 0 LINE",
"479 22 LINE",
"76 22 LINE",
"73 0 LINE"
);
}
);
width = 526;
}
);
leftMetricsKey = H;
unicode = 004C;
},
{
glyphname = M;
lastChange = "2025-01-09 16:19:00 +0000";
layers = (
{
layerId = "AAB0E2D1-7A47-467B-B788-A2CC53DD9722";
paths = (
{
closed = 1;
nodes = (
"166 0 LINE",
"166 580 LINE",
"394 0 LINE",
"489 0 LINE",
"717 580 LINE",
"717 0 LINE",
"805 0 LINE",
"805 700 LINE",
"679 700 LINE",
"442 83 LINE",
"204 700 LINE",
"78 700 LINE",
"78 0 LINE"
);
}
);
width = 883;
},
{
layerId = m003;
paths = (
{
closed = 1;
nodes = (
"108 0 LINE",
"108 653 LINE",
"399 0 LINE",
"426 0 LINE",
"717 653 LINE",
"717 0 LINE",
"741 0 LINE",
"741 700 LINE",
"712 700 LINE",
"413 30 LINE",
"113 700 LINE",
"84 700 LINE",
"84 0 LINE"
);
}
);
width = 825;
},
{
layerId = "2146FA84-FF4E-4FEC-ADE7-E3206BD202A0";
name = "Ultra Black";
paths = (
{
closed = 1;
nodes = (
"233 0 LINE",
"292 424 LINE",
"345 0 LINE",
"556 0 LINE",
"727 424 LINE",
"668 0 LINE",
"876 0 LINE",
"974 700 LINE",
"688 700 LINE",
"481 222 LINE",
"409 700 LINE",
"123 700 LINE",
"25 0 LINE"
);
}
);
width = 971;
},
{
layerId = "C724B7CD-248E-4D7B-8006-7CFF52EADE8B";
paths = (
{
closed = 1;
nodes = (
"125 0 LINE",
"206 580 LINE",
"353 0 LINE",
"448 0 LINE",
"757 580 LINE",
"676 0 LINE",
"764 0 LINE",
"862 700 LINE",
"736 700 LINE",
"412 83 LINE",
"261 700 LINE",
"135 700 LINE",
"37 0 LINE"
);
}
);
width = 871;
},
{
layerId = "747A76F5-4D21-4F4C-BD8F-BF7AFE68B107";
paths = (
{
closed = 1;
nodes = (
"74 0 LINE",
"166 653 LINE",
"365 0 LINE",
"392 0 LINE",
"775 653 LINE",
"683 0 LINE",
"707 0 LINE",
"805 700 LINE",
"776 700 LINE",
"383 30 LINE",
"177 700 LINE",
"148 700 LINE",
"50 0 LINE"
);
}
);
width = 827;
},
{
associatedMasterId = "1BF19B54-F320-4FA0-AF52-273918486B89";
layerId = "89A3315D-4AD8-4A1E-B4D4-5C3C3F4B3C9F";
name = "10. Okt. 22, 18:31";
paths = (
{
closed = 1;
nodes = (
"600 0 LINE",
"856 700 LINE",
"671 700 LINE",
"408 0 LINE"
);
},
{
closed = 1;
nodes = (
"263 0 LINE",
"263 700 LINE",
"55 700 LINE",
"55 0 LINE"
);
},
{
closed = 1;
nodes = (
"598 0 LINE",
"336 700 LINE",
"151 700 LINE",
"407 0 LINE"
);
},
{
closed = 1;
nodes = (
"952 0 LINE",
"952 700 LINE",
"744 700 LINE",
"744 0 LINE"
);
}
);
width = 1007;
},
{
associatedMasterId = "AAB0E2D1-7A47-467B-B788-A2CC53DD9722";
layerId = "47E14023-3F4F-4012-A981-08A068E36CB9";
name = "10. Okt. 22, 18:41";
paths = (
{
closed = 1;
nodes = (
"489 0 LINE",
"779 700 LINE",
"689 700 LINE",
"394 0 LINE"
);
},
{
closed = 1;
nodes = (
"166 0 LINE",
"166 700 LINE",
"78 700 LINE",
"78 0 LINE"
);
},
{
closed = 1;
nodes = (
"489 0 LINE",
"194 700 LINE",
"104 700 LINE",
"394 0 LINE"
);
},
{
closed = 1;
nodes = (
"805 0 LINE",
"805 700 LINE",
"717 700 LINE",
"717 0 LINE"
);
}
);
width = 883;
},
{
associatedMasterId = m003;
layerId = "22A68BFD-18D5-4E99-87AE-0172BF4552AC";
name = "10. Okt. 22, 18:47";
paths = (
{
closed = 1;
nodes = (
"426 0 LINE",
"738 700 LINE",
"712 700 LINE",
"399 0 LINE"
);
},
{
closed = 1;
nodes = (
"108 0 LINE",
"108 700 LINE",
"84 700 LINE",
"84 0 LINE"
);
},
{
closed = 1;
nodes = (
"426 0 LINE",
"113 700 LINE",
"87 700 LINE",
"399 0 LINE"
);
},
{
closed = 1;
nodes = (
"741 0 LINE",
"741 700 LINE",
"717 700 LINE",
"717 0 LINE"
);
}
);
width = 825;
},
{
associatedMasterId = "1BF19B54-F320-4FA0-AF52-273918486B89";
layerId = "8519E206-03DC-4748-A65E-58C47541266C";
name = "28. Okt. 22, 11:46";
paths = (
{
closed = 1;
nodes = (
"578 0 LINE",
"684 424 LINE",
"684 0 LINE",
"892 0 LINE",
"892 700 LINE",
"606 700 LINE",
"473 222 LINE",
"341 700 LINE",
"55 700 LINE",
"55 0 LINE",
"263 0 LINE",
"263 424 LINE",
"369 0 LINE"
);
}
);
width = 947;
},
{
layerId = "1BF19B54-F320-4FA0-AF52-273918486B89";
name = "Ultra Black";
paths = (
{
closed = 1;
nodes = (
"263 0 LINE",
"263 424 LINE",
"375 0 LINE",
"586 0 LINE",
"698 424 LINE",
"698 0 LINE",
"906 0 LINE",
"906 700 LINE",
"620 700 LINE",
"480 222 LINE",
"341 700 LINE",
"55 700 LINE",
"55 0 LINE"
);
}
);
width = 961;
},
{
associatedMasterId = "2146FA84-FF4E-4FEC-ADE7-E3206BD202A0";
layerId = "4C62A507-D73B-40CF-BF79-560BB29E875D";
name = "22. Nov. 22, 16:45";
paths = (
{
closed = 1;
nodes = (
"570 0 LINE",
"927 700 LINE",
"739 700 LINE",
"378 0 LINE"
);
},
{
closed = 1;
nodes = (
"233 0 LINE",
"331 700 LINE",
"123 700 LINE",
"25 0 LINE"
);
},
{
closed = 1;
nodes = (
"569 0 LINE",
"403 700 LINE",
"209 700 LINE",
"378 0 LINE"
);
},
{
closed = 1;
nodes = (
"922 0 LINE",
"1020 700 LINE",
"812 700 LINE",
"714 0 LINE"
);
}
);
width = 1017;
}
);
leftMetricsKey = H;
rightMetricsKey = H;
unicode = 004D;
},
{
glyphname = N;
lastChange = "2025-01-09 16:19:00 +0000";
layers = (
{
layerId = "AAB0E2D1-7A47-467B-B788-A2CC53DD9722";
paths = (
{
closed = 1;
nodes = (
"166 0 LINE",
"166 611 LINE",
"531 0 LINE",
"654 0 LINE",
"654 700 LINE",
"566 700 LINE",
"566 87 LINE",
"200 700 LINE",
"78 700 LINE",
"78 0 LINE"
);
}
);
width = 732;
},
{
layerId = "1BF19B54-F320-4FA0-AF52-273918486B89";
paths = (
{
closed = 1;
nodes = (
"263 0 LINE",
"263 424 LINE",
"499 0 LINE",
"741 0 LINE",
"741 700 LINE",
"533 700 LINE",
"533 274 LINE",
"296 700 LINE",
"55 700 LINE",
"55 0 LINE"
);
}
);
width = 796;
},
{
layerId = m003;
paths = (
{
closed = 1;
nodes = (
"108 0 LINE",
"108 666 LINE",
"552 0 LINE",
"583 0 LINE",
"583 700 LINE",
"559 700 LINE",
"559 34 LINE",
"115 700 LINE",
"84 700 LINE",
"84 0 LINE"
);
}
);
width = 667;
},
{
layerId = "2146FA84-FF4E-4FEC-ADE7-E3206BD202A0";
paths = (
{
closed = 1;
nodes = (
"233 0 LINE",
"292 424 LINE",
"469 0 LINE",
"711 0 LINE",
"809 700 LINE",
"601 700 LINE",
"541 274 LINE",
"364 700 LINE",
"123 700 LINE",
"25 0 LINE"
);
}
);
width = 806;
},
{
layerId = "C724B7CD-248E-4D7B-8006-7CFF52EADE8B";
paths = (
{
closed = 1;
nodes = (
"125 0 LINE",
"211 611 LINE",
"490 0 LINE",
"613 0 LINE",
"711 700 LINE",
"623 700 LINE",
"537 87 LINE",
"257 700 LINE",
"135 700 LINE",
"37 0 LINE"
);
}
);
width = 720;
},
{
layerId = "747A76F5-4D21-4F4C-BD8F-BF7AFE68B107";
paths = (
{
closed = 1;
nodes = (
"74 0 LINE",
"167 666 LINE",
"518 0 LINE",
"549 0 LINE",
"647 700 LINE",
"623 700 LINE",
"530 34 LINE",
"179 700 LINE",
"148 700 LINE",
"50 0 LINE"
);
}
);
width = 669;
},
{
associatedMasterId = "1BF19B54-F320-4FA0-AF52-273918486B89";
layerId = "E1ECCDBF-F056-4F77-A86F-F61397AB8A3C";
name = "10. Okt. 22, 18:31";
paths = (
{
closed = 1;
nodes = (
"723 0 LINE",
"286 700 LINE",
"72 700 LINE",
"509 0 LINE"
);
},
{
closed = 1;
nodes = (
"263 0 LINE",
"263 700 LINE",
"55 700 LINE",
"55 0 LINE"
);
},
{
closed = 1;
nodes = (
"741 0 LINE",
"741 700 LINE",
"533 700 LINE",
"533 0 LINE"
);
}
);
width = 796;
},
{
associatedMasterId = "AAB0E2D1-7A47-467B-B788-A2CC53DD9722";
layerId = "E33EEE4A-B8B9-4753-BEAC-6CFF525AF5F5";
name = "10. Okt. 22, 18:41";
paths = (
{
closed = 1;
nodes = (
"641 0 LINE",
"194 700 LINE",
"90 700 LINE",
"537 0 LINE"
);
},
{
closed = 1;
nodes = (
"166 0 LINE",
"166 700 LINE",
"78 700 LINE",
"78 0 LINE"
);
},
{
closed = 1;
nodes = (
"654 0 LINE",
"654 700 LINE",
"566 700 LINE",
"566 0 LINE"
);
}
);
width = 732;
},
{
associatedMasterId = m003;
layerId = "A11543FD-F3A8-4990-8EC8-7278AFF14A0A";
name = "10. Okt. 22, 18:47";
paths = (
{
closed = 1;
nodes = (
"582 0 LINE",
"115 700 LINE",
"85 700 LINE",
"552 0 LINE"
);
},
{
closed = 1;
nodes = (
"108 0 LINE",
"108 700 LINE",
"84 700 LINE",
"84 0 LINE"
);
},
{
closed = 1;
nodes = (
"583 0 LINE",
"583 700 LINE",
"559 700 LINE",
"559 0 LINE"
);
}
);
width = 667;
}
);
leftMetricsKey = H;
rightMetricsKey = H;
unicode = 004E;
},
{
glyphname = O;
lastChange = "2025-01-09 16:19:00 +0000";
layers = (
{
anchors = (
{
name = bottom;
position = "{395, 0}";
},
{
name = center;
position = "{395, 350}";
},
{
name = ogonek;
position = "{711, 10}";
},
{
name = top;
position = "{395, 700}";
},
{
name = topleft;
position = "{20, 700}";
},
{
name = topright;
position = "{770, 700}";
}
);
layerId = "AAB0E2D1-7A47-467B-B788-A2CC53DD9722";
paths = (
{
closed = 1;
nodes = (
"609 -15 OFFCURVE",
"738 123 OFFCURVE",
"738 351 CURVE SMOOTH",
"738 578 OFFCURVE",
"609 715 OFFCURVE",
"396 715 CURVE SMOOTH",
"182 715 OFFCURVE",
"52 578 OFFCURVE",
"52 351 CURVE SMOOTH",
"52 123 OFFCURVE",
"182 -15 OFFCURVE",
"396 -15 CURVE SMOOTH"
);
},
{
closed = 1;
nodes = (
"232 68 OFFCURVE",
"145 166 OFFCURVE",
"145 351 CURVE SMOOTH",
"145 535 OFFCURVE",
"232 632 OFFCURVE",
"396 632 CURVE SMOOTH",
"559 632 OFFCURVE",
"645 535 OFFCURVE",
"645 351 CURVE SMOOTH",
"645 166 OFFCURVE",
"559 68 OFFCURVE",
"396 68 CURVE SMOOTH"
);
}
);
width = 790;
},
{
anchors = (
{
name = bottom;
position = "{405, 0}";
},
{
name = center;
position = "{405, 350}";
},
{
name = ogonek;
position = "{729, 10}";
},
{
name = top;
position = "{405, 700}";
},
{
name = topleft;
position = "{20, 700}";
},
{
name = topright;
position = "{790, 700}";
}
);
layerId = "1BF19B54-F320-4FA0-AF52-273918486B89";
paths = (
{
closed = 1;
nodes = (
"642 -15 OFFCURVE",
"777 119 OFFCURVE",
"777 351 CURVE SMOOTH",
"777 582 OFFCURVE",
"642 715 OFFCURVE",
"406 715 CURVE SMOOTH",
"169 715 OFFCURVE",
"33 582 OFFCURVE",
"33 351 CURVE SMOOTH",
"33 119 OFFCURVE",
"169 -15 OFFCURVE",
"406 -15 CURVE SMOOTH"
);
},
{
closed = 1;
nodes = (
"300 170 OFFCURVE",
"244 233 OFFCURVE",
"244 351 CURVE SMOOTH",
"244 468 OFFCURVE",
"300 530 OFFCURVE",
"406 530 CURVE SMOOTH",
"511 530 OFFCURVE",
"566 468 OFFCURVE",
"566 351 CURVE SMOOTH",
"566 233 OFFCURVE",
"511 170 OFFCURVE",
"406 170 CURVE SMOOTH"
);
}
);
width = 810;
},
{
anchors = (
{
name = bottom;
position = "{371, 0}";
},
{
name = center;
position = "{371, 350}";
},
{
name = ogonek;
position = "{667, 10}";
},
{
name = top;
position = "{371, 700}";
},
{
name = topleft;
position = "{20, 700}";
},
{
name = topright;
position = "{721, 700}";
}
);
layerId = m003;
paths = (
{
closed = 1;
nodes = (
"567 -15 OFFCURVE",
"685 123 OFFCURVE",
"685 351 CURVE SMOOTH",
"685 578 OFFCURVE",
"567 715 OFFCURVE",
"372 715 CURVE SMOOTH",
"175 715 OFFCURVE",
"56 578 OFFCURVE",
"56 351 CURVE SMOOTH",
"56 123 OFFCURVE",
"175 -15 OFFCURVE",
"372 -15 CURVE SMOOTH"
);
},
{
closed = 1;
nodes = (
"191 9 OFFCURVE",
"82 138 OFFCURVE",
"82 351 CURVE SMOOTH",
"82 563 OFFCURVE",
"191 691 OFFCURVE",
"372 691 CURVE SMOOTH",
"551 691 OFFCURVE",
"659 563 OFFCURVE",
"659 351 CURVE SMOOTH",
"659 138 OFFCURVE",
"551 9 OFFCURVE",
"372 9 CURVE SMOOTH"
);
}
);
width = 741;
},
{
anchors = (
{
name = bottom;
position = "{379, 0}";
},
{
name = center;
position = "{428, 350}";
},
{
name = ogonek;
position = "{711, 10}";
},
{
name = top;
position = "{477, 700}";
},
{
name = topleft;
position = "{83, 700}";
},
{
name = topright;
position = "{871, 700}";
}
);
layerId = "2146FA84-FF4E-4FEC-ADE7-E3206BD202A0";
paths = (
{
closed = 1;
nodes = (
"663 -15 OFFCURVE",
"805 186 OFFCURVE",
"805 409 CURVE SMOOTH",
"805 610 OFFCURVE",
"690 715 OFFCURVE",
"480 715 CURVE SMOOTH",
"208 715 OFFCURVE",
"51 532 OFFCURVE",
"51 294 CURVE SMOOTH",
"51 91 OFFCURVE",
"167 -15 OFFCURVE",
"378 -15 CURVE SMOOTH"
);
},
{
closed = 1;
nodes = (
"312 170 OFFCURVE",
"264 218 OFFCURVE",
"264 319 CURVE SMOOTH",
"264 431 OFFCURVE",
"323 530 OFFCURVE",
"454 530 CURVE SMOOTH",
"545 530 OFFCURVE",
"592 483 OFFCURVE",
"592 383 CURVE SMOOTH",
"592 273 OFFCURVE",
"534 170 OFFCURVE",
"404 170 CURVE SMOOTH"
);
}
);
width = 828;
},
{
anchors = (
{
name = bottom;
position = "{358, 0}";
},
{
name = center;
position = "{407, 350}";
},
{
name = ogonek;
position = "{673, 10}";
},
{
name = top;
position = "{456, 700}";
},
{
name = topleft;
position = "{83, 700}";
},
{
name = topright;
position = "{828, 700}";
}
);
layerId = "C724B7CD-248E-4D7B-8006-7CFF52EADE8B";
paths = (
{
closed = 1;
nodes = (
"611 -15 OFFCURVE",
"755 185 OFFCURVE",
"755 413 CURVE SMOOTH",
"755 608 OFFCURVE",
"648 715 OFFCURVE",
"459 715 CURVE SMOOTH",
"200 715 OFFCURVE",
"59 512 OFFCURVE",
"59 289 CURVE SMOOTH",
"59 93 OFFCURVE",
"167 -15 OFFCURVE",
"357 -15 CURVE SMOOTH"
);
},
{
closed = 1;
nodes = (
"226 68 OFFCURVE",
"152 142 OFFCURVE",
"152 297 CURVE SMOOTH",
"152 465 OFFCURVE",
"238 632 OFFCURVE",
"448 632 CURVE SMOOTH",
"589 632 OFFCURVE",
"662 559 OFFCURVE",
"662 405 CURVE SMOOTH",
"662 237 OFFCURVE",
"577 68 OFFCURVE",
"368 68 CURVE SMOOTH"
);
}
);
width = 785;
},
{
anchors = (
{
name = bottom;
position = "{347, 0}";
},
{
name = center;
position = "{396, 350}";
},
{
name = ogonek;
position = "{653, 10}";
},
{
name = top;
position = "{445, 700}";
},
{
name = topleft;
position = "{83, 700}";
},
{
name = topright;
position = "{806, 700}";
}
);
layerId = "747A76F5-4D21-4F4C-BD8F-BF7AFE68B107";
paths = (
{
closed = 1;
nodes = (
"589 -15 OFFCURVE",
"716 201 OFFCURVE",
"716 421 CURVE SMOOTH",
"716 610 OFFCURVE",
"619 715 OFFCURVE",
"448 715 CURVE SMOOTH",
"207 715 OFFCURVE",
"75 507 OFFCURVE",
"75 283 CURVE SMOOTH",
"75 91 OFFCURVE",
"173 -15 OFFCURVE",
"346 -15 CURVE SMOOTH"
);
},
{
closed = 1;
nodes = (
"191 9 OFFCURVE",
"101 108 OFFCURVE",
"101 286 CURVE SMOOTH",
"101 489 OFFCURVE",
"218 691 OFFCURVE",
"445 691 CURVE SMOOTH",
"601 691 OFFCURVE",
"690 593 OFFCURVE",
"690 417 CURVE SMOOTH",
"690 217 OFFCURVE",
"577 9 OFFCURVE",
"349 9 CURVE SMOOTH"
);
}
);
width = 763;
},
{
anchors = (
{
name = bottom;
position = "{395, 0}";
},
{
name = center;
position = "{395, 350}";
},
{
name = ogonek;
position = "{703, 10}";
},
{
name = top;
position = "{396, 700}";
},
{
name = topleft;
position = "{30, 700}";
},
{
name = topright;
position = "{760, 700}";
}
);
associatedMasterId = "AAB0E2D1-7A47-467B-B788-A2CC53DD9722";
layerId = "42B96626-874F-4442-9F5C-5D5EAA5FF163";
name = "20. Okt. 22, 18:58";
paths = (
{
closed = 1;
nodes = (
"616 -15 OFFCURVE",
"738 133 OFFCURVE",
"738 352 CURVE SMOOTH",
"738 567 OFFCURVE",
"616 715 OFFCURVE",
"396 715 CURVE SMOOTH",
"174 715 OFFCURVE",
"52 567 OFFCURVE",
"52 351 CURVE SMOOTH",
"52 133 OFFCURVE",
"174 -15 OFFCURVE",
"396 -15 CURVE SMOOTH"
);
},
{
closed = 1;
nodes = (
"243 68 OFFCURVE",
"145 181 OFFCURVE",
"145 351 CURVE SMOOTH",
"145 519 OFFCURVE",
"243 632 OFFCURVE",
"396 632 CURVE SMOOTH",
"549 632 OFFCURVE",
"645 519 OFFCURVE",
"645 351 CURVE SMOOTH",
"645 181 OFFCURVE",
"549 68 OFFCURVE",
"396 68 CURVE SMOOTH"
);
}
);
width = 790;
},
{
anchors = (
{
name = bottom;
position = "{405, 0}";
},
{
name = center;
position = "{405, 350}";
},
{
name = ogonek;
position = "{727, 10}";
},
{
name = top;
position = "{405, 700}";
},
{
name = topleft;
position = "{23, 700}";
},
{
name = topright;
position = "{787, 700}";
}
);
associatedMasterId = "1BF19B54-F320-4FA0-AF52-273918486B89";
layerId = "6900C268-A773-4562-9BF8-5B4D4918DC49";
name = "20. Okt. 22, 19:03";
paths = (
{
closed = 1;
nodes = (
"641 -15 OFFCURVE",
"777 137 OFFCURVE",
"777 352 CURVE SMOOTH",
"777 564 OFFCURVE",
"641 715 OFFCURVE",
"406 715 CURVE SMOOTH",
"174 715 OFFCURVE",
"33 569 OFFCURVE",
"33 351 CURVE SMOOTH",
"33 136 OFFCURVE",
"169 -15 OFFCURVE",
"406 -15 CURVE SMOOTH"
);
},
{
closed = 1;
nodes = (
"306 169 OFFCURVE",
"244 234 OFFCURVE",
"244 351 CURVE SMOOTH",
"244 466 OFFCURVE",
"306 531 OFFCURVE",
"406 531 CURVE SMOOTH",
"505 531 OFFCURVE",
"566 467 OFFCURVE",
"566 351 CURVE SMOOTH",
"566 233 OFFCURVE",
"505 169 OFFCURVE",
"406 169 CURVE SMOOTH"
);
}
);
width = 810;
},
{
anchors = (
{
name = bottom;
position = "{371, 0}";
},
{
name = center;
position = "{371, 350}";
},
{
name = ogonek;
position = "{679, 10}";
},
{
name = top;
position = "{372, 700}";
},
{
name = topleft;
position = "{6, 700}";
},
{
name = topright;
position = "{736, 700}";
}
);
associatedMasterId = m003;
layerId = "85750B07-8531-45CC-8CD0-971C66760F69";
name = "4. Nov. 22, 15:40";
paths = (
{
closed = 1;
nodes = (
"573 -15 OFFCURVE",
"685 133 OFFCURVE",
"685 352 CURVE SMOOTH",
"685 567 OFFCURVE",
"573 715 OFFCURVE",
"372 715 CURVE SMOOTH",
"168 715 OFFCURVE",
"56 567 OFFCURVE",
"56 351 CURVE SMOOTH",
"56 133 OFFCURVE",
"168 -15 OFFCURVE",
"372 -15 CURVE SMOOTH"
);
},
{
closed = 1;
nodes = (
"187 9 OFFCURVE",
"82 142 OFFCURVE",
"82 351 CURVE SMOOTH",
"82 558 OFFCURVE",
"187 691 OFFCURVE",
"372 691 CURVE SMOOTH",
"556 691 OFFCURVE",
"659 558 OFFCURVE",
"659 351 CURVE SMOOTH",
"659 142 OFFCURVE",
"554 9 OFFCURVE",
"372 9 CURVE SMOOTH"
);
}
);
width = 741;
}
);
leftKerningGroup = LeftUpO;
rightKerningGroup = RightUpO;
unicode = 004F;
},
{
glyphname = P;
lastChange = "2025-01-09 16:19:00 +0000";
layers = (
{
layerId = "AAB0E2D1-7A47-467B-B788-A2CC53DD9722";
name = Regular;
paths = (
{
closed = 1;
nodes = (
"326 271 LINE SMOOTH",
"490 271 OFFCURVE",
"576 345 OFFCURVE",
"576 486 CURVE SMOOTH",
"576 626 OFFCURVE",
"490 700 OFFCURVE",
"326 700 CURVE SMOOTH",
"106 700 LINE",
"106 619 LINE",
"329 619 LINE SMOOTH",
"435 619 OFFCURVE",
"483 577 OFFCURVE",
"483 486 CURVE SMOOTH",
"483 394 OFFCURVE",
"435 352 OFFCURVE",
"329 352 CURVE SMOOTH",
"106 352 LINE",
"106 271 LINE"
);
},
{
closed = 1;
nodes = (
"166 0 LINE",
"166 700 LINE",
"78 700 LINE",
"78 0 LINE"
);
}
);
width = 602;
},
{
layerId = m003;
name = Regular;
paths = (
{
closed = 1;
nodes = (
"301 303 LINE SMOOTH",
"441 303 OFFCURVE",
"517 372 OFFCURVE",
"517 502 CURVE SMOOTH",
"517 632 OFFCURVE",
"441 700 OFFCURVE",
"301 700 CURVE SMOOTH",
"90 700 LINE",
"90 678 LINE",
"299 678 LINE SMOOTH",
"426 678 OFFCURVE",
"491 619 OFFCURVE",
"491 502 CURVE SMOOTH",
"491 384 OFFCURVE",
"426 325 OFFCURVE",
"299 325 CURVE SMOOTH",
"90 325 LINE",
"90 303 LINE"
);
},
{
closed = 1;
nodes = (
"108 0 LINE",
"108 700 LINE",
"84 700 LINE",
"84 0 LINE"
);
}
);
width = 545;
},
{
layerId = "2146FA84-FF4E-4FEC-ADE7-E3206BD202A0";
name = "Ultra Black";
paths = (
{
closed = 1;
nodes = (
"374 231 LINE SMOOTH",
"563 231 OFFCURVE",
"688 327 OFFCURVE",
"688 496 CURVE SMOOTH",
"688 650 OFFCURVE",
"582 700 OFFCURVE",
"440 700 CURVE SMOOTH",
"211 700 LINE",
"187 525 LINE",
"409 525 LINE SMOOTH",
"454 525 OFFCURVE",
"476 510 OFFCURVE",
"476 473 CURVE SMOOTH",
"476 430 OFFCURVE",
"447 406 OFFCURVE",
"392 406 CURVE SMOOTH",
"170 406 LINE",
"145 231 LINE"
);
},
{
closed = 1;
nodes = (
"233 0 LINE",
"331 700 LINE",
"123 700 LINE",
"25 0 LINE"
);
}
);
width = 679;
},
{
layerId = "C724B7CD-248E-4D7B-8006-7CFF52EADE8B";
name = Regular;
paths = (
{
closed = 1;
nodes = (
"323 271 LINE SMOOTH",
"505 271 OFFCURVE",
"606 368 OFFCURVE",
"606 515 CURVE SMOOTH",
"606 641 OFFCURVE",
"530 700 OFFCURVE",
"383 700 CURVE SMOOTH",
"163 700 LINE",
"152 619 LINE",
"375 619 LINE SMOOTH",
"469 619 OFFCURVE",
"512 586 OFFCURVE",
"512 505 CURVE SMOOTH",
"512 424 OFFCURVE",
"469 352 OFFCURVE",
"337 352 CURVE SMOOTH",
"114 352 LINE",
"103 271 LINE"
);
},
{
closed = 1;
nodes = (
"125 0 LINE",
"223 700 LINE",
"135 700 LINE",
"37 0 LINE"
);
}
);
width = 602;
},
{
layerId = "747A76F5-4D21-4F4C-BD8F-BF7AFE68B107";
name = Regular;
paths = (
{
closed = 1;
nodes = (
"309 303 LINE SMOOTH",
"473 303 OFFCURVE",
"556 401 OFFCURVE",
"556 530 CURVE SMOOTH",
"556 646 OFFCURVE",
"489 700 OFFCURVE",
"365 700 CURVE SMOOTH",
"154 700 LINE",
"151 678 LINE",
"360 678 LINE SMOOTH",
"472 678 OFFCURVE",
"530 632 OFFCURVE",
"530 528 CURVE SMOOTH",
"530 422 OFFCURVE",
"469 325 OFFCURVE",
"310 325 CURVE SMOOTH",
"101 325 LINE",
"98 303 LINE"
);
},
{
closed = 1;
nodes = (
"74 0 LINE",
"172 700 LINE",
"148 700 LINE",
"50 0 LINE"
);
}
);
width = 559;
},
{
associatedMasterId = "AAB0E2D1-7A47-467B-B788-A2CC53DD9722";
layerId = "82E12B18-0FD2-4C4A-A011-44B7525B2AE0";
name = "25. Okt. 22, 18:23";
paths = (
{
closed = 1;
nodes = (
"326 271 LINE SMOOTH",
"467 271 OFFCURVE",
"576 329 OFFCURVE",
"576 486 CURVE SMOOTH",
"576 644 OFFCURVE",
"467 700 OFFCURVE",
"326 700 CURVE SMOOTH",
"106 700 LINE",
"106 619 LINE",
"329 619 LINE SMOOTH",
"424 619 OFFCURVE",
"483 570 OFFCURVE",
"483 486 CURVE SMOOTH",
"483 402 OFFCURVE",
"424 352 OFFCURVE",
"329 352 CURVE SMOOTH",
"106 352 LINE",
"106 271 LINE"
);
},
{
closed = 1;
nodes = (
"166 0 LINE",
"166 700 LINE",
"78 700 LINE",
"78 0 LINE"
);
}
);
width = 602;
},
{
associatedMasterId = m003;
layerId = "67838522-8475-4FFF-AA22-5C857682D3CC";
name = "4. Nov. 22, 16:41";
paths = (
{
closed = 1;
nodes = (
"296 303 LINE SMOOTH",
"444 303 OFFCURVE",
"517 381 OFFCURVE",
"517 502 CURVE SMOOTH",
"517 623 OFFCURVE",
"445 700 OFFCURVE",
"296 700 CURVE SMOOTH",
"90 700 LINE",
"90 678 LINE",
"299 678 LINE SMOOTH",
"430 678 OFFCURVE",
"491 609 OFFCURVE",
"491 502 CURVE SMOOTH",
"491 395 OFFCURVE",
"429 325 OFFCURVE",
"299 325 CURVE SMOOTH",
"90 325 LINE",
"90 303 LINE"
);
},
{
closed = 1;
nodes = (
"108 0 LINE",
"108 700 LINE",
"84 700 LINE",
"84 0 LINE"
);
}
);
width = 545;
},
{
layerId = "1BF19B54-F320-4FA0-AF52-273918486B89";
name = "Ultra Black";
paths = (
{
closed = 1;
nodes = (
"372 231 LINE SMOOTH",
"529 231 OFFCURVE",
"650 294 OFFCURVE",
"650 466 CURVE SMOOTH",
"650 639 OFFCURVE",
"529 700 OFFCURVE",
"372 700 CURVE SMOOTH",
"143 700 LINE",
"143 525 LINE",
"365 525 LINE SMOOTH",
"415 525 OFFCURVE",
"440 506 OFFCURVE",
"440 466 CURVE SMOOTH",
"440 426 OFFCURVE",
"415 406 OFFCURVE",
"365 406 CURVE SMOOTH",
"143 406 LINE",
"143 231 LINE"
);
},
{
closed = 1;
nodes = (
"263 0 LINE",
"263 700 LINE",
"55 700 LINE",
"55 0 LINE"
);
}
);
visible = 1;
width = 672;
}
);
leftMetricsKey = H;
rightMetricsKey = F;
unicode = 0050;
},
{
glyphname = Q;
lastChange = "2025-01-09 16:19:00 +0000";
layers = (
{
anchors = (
{
name = bottom;
position = "{395, 0}";
},
{
name = top;
position = "{395, 700}";
}
);
layerId = "AAB0E2D1-7A47-467B-B788-A2CC53DD9722";
paths = (
{
closed = 1;
nodes = (
"609 -15 OFFCURVE",
"738 123 OFFCURVE",
"738 352 CURVE SMOOTH",
"738 578 OFFCURVE",
"609 715 OFFCURVE",
"396 715 CURVE SMOOTH",
"182 715 OFFCURVE",
"52 578 OFFCURVE",
"52 351 CURVE SMOOTH",
"52 123 OFFCURVE",
"182 -15 OFFCURVE",
"396 -15 CURVE SMOOTH"
);
},
{
closed = 1;
nodes = (
"723 -27 LINE",
"477 220 LINE",
"421 163 LINE",
"667 -84 LINE"
);
},
{
closed = 1;
nodes = (
"232 68 OFFCURVE",
"145 166 OFFCURVE",
"145 351 CURVE SMOOTH",
"145 535 OFFCURVE",
"232 632 OFFCURVE",
"396 632 CURVE SMOOTH",
"559 632 OFFCURVE",
"645 535 OFFCURVE",
"645 351 CURVE SMOOTH",
"645 166 OFFCURVE",
"559 68 OFFCURVE",
"396 68 CURVE SMOOTH"
);
}
);
width = 790;
},
{
anchors = (
{
name = bottom;
position = "{405, 0}";
},
{
name = top;
position = "{405, 700}";
}
);
layerId = "1BF19B54-F320-4FA0-AF52-273918486B89";
paths = (
{
closed = 1;
nodes = (
"642 -15 OFFCURVE",
"777 119 OFFCURVE",
"777 352 CURVE SMOOTH",
"777 582 OFFCURVE",
"642 715 OFFCURVE",
"406 715 CURVE SMOOTH",
"169 715 OFFCURVE",
"33 582 OFFCURVE",
"33 351 CURVE SMOOTH",
"33 119 OFFCURVE",
"169 -15 OFFCURVE",
"406 -15 CURVE SMOOTH"
);
},
{
closed = 1;
nodes = (
"736 -1 LINE",
"474 371 LINE",
"345 280 LINE",
"605 -92 LINE"
);
},
{
closed = 1;
nodes = (
"300 170 OFFCURVE",
"244 233 OFFCURVE",
"244 351 CURVE SMOOTH",
"244 468 OFFCURVE",
"300 530 OFFCURVE",
"406 530 CURVE SMOOTH",
"511 530 OFFCURVE",
"566 468 OFFCURVE",
"566 351 CURVE SMOOTH",
"566 233 OFFCURVE",
"511 170 OFFCURVE",
"406 170 CURVE SMOOTH"
);
}
);
width = 810;
},
{
anchors = (
{
name = bottom;
position = "{371, 0}";
},
{
name = top;
position = "{371, 700}";
}
);
layerId = m003;
paths = (
{
closed = 1;
nodes = (
"567 -15 OFFCURVE",
"685 123 OFFCURVE",
"685 352 CURVE SMOOTH",
"685 578 OFFCURVE",
"567 715 OFFCURVE",
"372 715 CURVE SMOOTH",
"175 715 OFFCURVE",
"56 578 OFFCURVE",
"56 351 CURVE SMOOTH",
"56 123 OFFCURVE",
"175 -15 OFFCURVE",
"372 -15 CURVE SMOOTH"
);
},
{
closed = 1;
nodes = (
"679 -45 LINE",
"432 201 LINE",
"415 184 LINE",
"662 -62 LINE"
);
},
{
closed = 1;
nodes = (
"191 9 OFFCURVE",
"82 138 OFFCURVE",
"82 351 CURVE SMOOTH",
"82 563 OFFCURVE",
"191 691 OFFCURVE",
"372 691 CURVE SMOOTH",
"551 691 OFFCURVE",
"659 563 OFFCURVE",
"659 351 CURVE SMOOTH",
"659 138 OFFCURVE",
"551 9 OFFCURVE",
"372 9 CURVE SMOOTH"
);
}
);
width = 741;
},
{
anchors = (
{
name = bottom;
position = "{379, 0}";
},
{
name = top;
position = "{477, 700}";
}
);
layerId = "2146FA84-FF4E-4FEC-ADE7-E3206BD202A0";
paths = (
{
closed = 1;
nodes = (
"663 -15 OFFCURVE",
"805 186 OFFCURVE",
"805 409 CURVE SMOOTH",
"805 610 OFFCURVE",
"690 715 OFFCURVE",
"480 715 CURVE SMOOTH",
"208 715 OFFCURVE",
"51 532 OFFCURVE",
"51 294 CURVE SMOOTH",
"51 91 OFFCURVE",
"167 -15 OFFCURVE",
"378 -15 CURVE SMOOTH"
);
},
{
closed = 1;
nodes = (
"692 -1 LINE",
"482 371 LINE",
"341 280 LINE",
"548 -92 LINE"
);
},
{
closed = 1;
nodes = (
"312 170 OFFCURVE",
"264 218 OFFCURVE",
"264 319 CURVE SMOOTH",
"264 431 OFFCURVE",
"323 530 OFFCURVE",
"454 530 CURVE SMOOTH",
"545 530 OFFCURVE",
"592 483 OFFCURVE",
"592 383 CURVE SMOOTH",
"592 273 OFFCURVE",
"534 170 OFFCURVE",
"404 170 CURVE SMOOTH"
);
}
);
width = 828;
},
{
anchors = (
{
name = bottom;
position = "{358, 0}";
},
{
name = top;
position = "{456, 700}";
}
);
layerId = "C724B7CD-248E-4D7B-8006-7CFF52EADE8B";
paths = (
{
closed = 1;
nodes = (
"611 -15 OFFCURVE",
"755 185 OFFCURVE",
"755 413 CURVE SMOOTH",
"755 608 OFFCURVE",
"648 715 OFFCURVE",
"459 715 CURVE SMOOTH",
"200 715 OFFCURVE",
"59 512 OFFCURVE",
"59 289 CURVE SMOOTH",
"59 93 OFFCURVE",
"167 -15 OFFCURVE",
"357 -15 CURVE SMOOTH"
);
},
{
closed = 1;
nodes = (
"682 -27 LINE",
"471 220 LINE",
"407 163 LINE",
"618 -84 LINE"
);
},
{
closed = 1;
nodes = (
"226 68 OFFCURVE",
"152 142 OFFCURVE",
"152 297 CURVE SMOOTH",
"152 465 OFFCURVE",
"238 632 OFFCURVE",
"448 632 CURVE SMOOTH",
"589 632 OFFCURVE",
"662 559 OFFCURVE",
"662 405 CURVE SMOOTH",
"662 237 OFFCURVE",
"577 68 OFFCURVE",
"368 68 CURVE SMOOTH"
);
}
);
width = 785;
},
{
anchors = (
{
name = bottom;
position = "{347, 0}";
},
{
name = top;
position = "{445, 700}";
}
);
layerId = "747A76F5-4D21-4F4C-BD8F-BF7AFE68B107";
paths = (
{
closed = 1;
nodes = (
"589 -15 OFFCURVE",
"716 201 OFFCURVE",
"716 421 CURVE SMOOTH",
"716 610 OFFCURVE",
"619 715 OFFCURVE",
"448 715 CURVE SMOOTH",
"207 715 OFFCURVE",
"75 507 OFFCURVE",
"75 283 CURVE SMOOTH",
"75 91 OFFCURVE",
"173 -15 OFFCURVE",
"346 -15 CURVE SMOOTH"
);
},
{
closed = 1;
nodes = (
"649 -45 LINE",
"436 201 LINE",
"417 184 LINE",
"629 -62 LINE"
);
},
{
closed = 1;
nodes = (
"191 9 OFFCURVE",
"101 108 OFFCURVE",
"101 286 CURVE SMOOTH",
"101 489 OFFCURVE",
"218 691 OFFCURVE",
"445 691 CURVE SMOOTH",
"601 691 OFFCURVE",
"690 593 OFFCURVE",
"690 417 CURVE SMOOTH",
"690 217 OFFCURVE",
"577 9 OFFCURVE",
"349 9 CURVE SMOOTH"
);
}
);
width = 763;
},
{
associatedMasterId = "AAB0E2D1-7A47-467B-B788-A2CC53DD9722";
layerId = "916D17E2-8AB5-4A69-9BA2-EEAE229AE369";
name = "22. Nov. 22, 17:22";
paths = (
{
closed = 1;
nodes = (
"609 -15 OFFCURVE",
"738 123 OFFCURVE",
"738 352 CURVE SMOOTH",
"738 578 OFFCURVE",
"609 715 OFFCURVE",
"396 715 CURVE SMOOTH",
"182 715 OFFCURVE",
"52 578 OFFCURVE",
"52 351 CURVE SMOOTH",
"52 123 OFFCURVE",
"182 -15 OFFCURVE",
"396 -15 CURVE SMOOTH"
);
},
{
closed = 1;
nodes = (
"723 -27 LINE",
"477 220 LINE",
"421 163 LINE",
"667 -84 LINE"
);
},
{
closed = 1;
nodes = (
"232 68 OFFCURVE",
"145 166 OFFCURVE",
"145 351 CURVE SMOOTH",
"145 535 OFFCURVE",
"232 632 OFFCURVE",
"396 632 CURVE SMOOTH",
"559 632 OFFCURVE",
"645 535 OFFCURVE",
"645 351 CURVE SMOOTH",
"645 166 OFFCURVE",
"559 68 OFFCURVE",
"396 68 CURVE SMOOTH"
);
}
);
width = 790;
},
{
associatedMasterId = m003;
layerId = "127E11D6-E2FE-4724-8120-892129666087";
name = "22. Nov. 22, 17:23";
paths = (
{
closed = 1;
nodes = (
"679 -45 LINE",
"432 201 LINE",
"415 184 LINE",
"662 -62 LINE"
);
},
{
closed = 1;
nodes = (
"567 -15 OFFCURVE",
"685 123 OFFCURVE",
"685 352 CURVE SMOOTH",
"685 578 OFFCURVE",
"567 715 OFFCURVE",
"372 715 CURVE SMOOTH",
"175 715 OFFCURVE",
"56 578 OFFCURVE",
"56 351 CURVE SMOOTH",
"56 123 OFFCURVE",
"175 -15 OFFCURVE",
"372 -15 CURVE SMOOTH"
);
},
{
closed = 1;
nodes = (
"191 9 OFFCURVE",
"82 138 OFFCURVE",
"82 351 CURVE SMOOTH",
"82 563 OFFCURVE",
"191 691 OFFCURVE",
"372 691 CURVE SMOOTH",
"551 691 OFFCURVE",
"659 563 OFFCURVE",
"659 351 CURVE SMOOTH",
"659 138 OFFCURVE",
"551 9 OFFCURVE",
"372 9 CURVE SMOOTH"
);
}
);
width = 741;
}
);
leftMetricsKey = O;
rightMetricsKey = O;
unicode = 0051;
},
{
glyphname = R;
lastChange = "2025-01-09 16:19:00 +0000";
layers = (
{
layerId = "AAB0E2D1-7A47-467B-B788-A2CC53DD9722";
name = Regular;
paths = (
{
closed = 1;
nodes = (
"326 271 LINE SMOOTH",
"490 271 OFFCURVE",
"576 345 OFFCURVE",
"576 486 CURVE SMOOTH",
"576 626 OFFCURVE",
"490 700 OFFCURVE",
"326 700 CURVE SMOOTH",
"106 700 LINE",
"106 619 LINE",
"329 619 LINE SMOOTH",
"435 619 OFFCURVE",
"483 577 OFFCURVE",
"483 486 CURVE SMOOTH",
"483 394 OFFCURVE",
"435 352 OFFCURVE",
"329 352 CURVE SMOOTH",
"106 352 LINE",
"106 271 LINE"
);
},
{
closed = 1;
nodes = (
"166 0 LINE",
"166 700 LINE",
"78 700 LINE",
"78 0 LINE"
);
},
{
closed = 1;
nodes = (
"602 0 LINE",
"437 307 LINE",
"338 307 LINE",
"503 0 LINE"
);
}
);
width = 632;
},
{
layerId = m003;
name = Regular;
paths = (
{
closed = 1;
nodes = (
"311 308 LINE SMOOTH",
"436 308 OFFCURVE",
"517 376 OFFCURVE",
"517 504 CURVE SMOOTH",
"517 633 OFFCURVE",
"441 700 OFFCURVE",
"301 700 CURVE SMOOTH",
"90 700 LINE",
"90 678 LINE",
"299 678 LINE SMOOTH",
"426 678 OFFCURVE",
"491 620 OFFCURVE",
"491 504 CURVE SMOOTH",
"491 388 OFFCURVE",
"426 330 OFFCURVE",
"299 330 CURVE SMOOTH",
"90 330 LINE",
"90 308 LINE"
);
},
{
closed = 1;
nodes = (
"108 0 LINE",
"108 700 LINE",
"84 700 LINE",
"84 0 LINE"
);
},
{
closed = 1;
nodes = (
"537 0 LINE",
"358 319 LINE",
"330 319 LINE",
"509 0 LINE"
);
}
);
width = 567;
},
{
layerId = "2146FA84-FF4E-4FEC-ADE7-E3206BD202A0";
name = "Ultra Black";
paths = (
{
closed = 1;
nodes = (
"386 233 LINE SMOOTH",
"575 233 OFFCURVE",
"688 346 OFFCURVE",
"688 503 CURVE SMOOTH",
"688 651 OFFCURVE",
"583 700 OFFCURVE",
"451 700 CURVE SMOOTH",
"210 700 LINE",
"185 523 LINE",
"409 523 LINE SMOOTH",
"454 523 OFFCURVE",
"476 509 OFFCURVE",
"476 473 CURVE SMOOTH",
"476 433 OFFCURVE",
"448 410 OFFCURVE",
"393 410 CURVE SMOOTH",
"169 410 LINE",
"145 233 LINE"
);
},
{
closed = 1;
nodes = (
"233 0 LINE",
"331 700 LINE",
"123 700 LINE",
"25 0 LINE"
);
},
{
closed = 1;
nodes = (
"646 0 LINE",
"524 307 LINE",
"305 307 LINE",
"424 0 LINE"
);
}
);
width = 716;
},
{
layerId = "C724B7CD-248E-4D7B-8006-7CFF52EADE8B";
name = Regular;
paths = (
{
closed = 1;
nodes = (
"323 271 LINE SMOOTH",
"505 271 OFFCURVE",
"606 368 OFFCURVE",
"606 515 CURVE SMOOTH",
"606 641 OFFCURVE",
"530 700 OFFCURVE",
"383 700 CURVE SMOOTH",
"163 700 LINE",
"152 619 LINE",
"375 619 LINE SMOOTH",
"469 619 OFFCURVE",
"512 586 OFFCURVE",
"512 506 CURVE SMOOTH",
"512 424 OFFCURVE",
"469 352 OFFCURVE",
"337 352 CURVE SMOOTH",
"114 352 LINE",
"103 271 LINE"
);
},
{
closed = 1;
nodes = (
"125 0 LINE",
"223 700 LINE",
"135 700 LINE",
"37 0 LINE"
);
},
{
closed = 1;
nodes = (
"561 0 LINE",
"439 307 LINE",
"340 307 LINE",
"462 0 LINE"
);
}
);
width = 626;
},
{
layerId = "747A76F5-4D21-4F4C-BD8F-BF7AFE68B107";
name = Regular;
paths = (
{
closed = 1;
nodes = (
"320 308 LINE SMOOTH",
"445 308 OFFCURVE",
"536 376 OFFCURVE",
"554 504 CURVE SMOOTH",
"572 633 OFFCURVE",
"505 700 OFFCURVE",
"365 700 CURVE SMOOTH",
"154 700 LINE",
"151 678 LINE",
"360 678 LINE SMOOTH",
"487 678 OFFCURVE",
"544 620 OFFCURVE",
"528 504 CURVE SMOOTH",
"511 388 OFFCURVE",
"438 330 OFFCURVE",
"311 330 CURVE SMOOTH",
"102 330 LINE",
"99 308 LINE"
);
},
{
closed = 1;
nodes = (
"74 0 LINE",
"172 700 LINE",
"148 700 LINE",
"50 0 LINE"
);
},
{
closed = 1;
nodes = (
"503 0 LINE",
"369 319 LINE",
"341 319 LINE",
"475 0 LINE"
);
}
);
width = 568;
},
{
layerId = "1BF19B54-F320-4FA0-AF52-273918486B89";
name = "Ultra Black";
paths = (
{
closed = 1;
nodes = (
"383 233 LINE SMOOTH",
"529 233 OFFCURVE",
"650 300 OFFCURVE",
"650 467 CURVE SMOOTH",
"650 640 OFFCURVE",
"529 700 OFFCURVE",
"383 700 CURVE SMOOTH",
"142 700 LINE",
"142 523 LINE",
"366 523 LINE SMOOTH",
"416 523 OFFCURVE",
"440 505 OFFCURVE",
"440 467 CURVE SMOOTH",
"440 429 OFFCURVE",
"416 410 OFFCURVE",
"366 410 CURVE SMOOTH",
"142 410 LINE",
"142 233 LINE"
);
},
{
closed = 1;
nodes = (
"263 0 LINE",
"263 700 LINE",
"55 700 LINE",
"55 0 LINE"
);
},
{
closed = 1;
nodes = (
"676 0 LINE",
"511 307 LINE",
"292 307 LINE",
"454 0 LINE"
);
}
);
width = 687;
}
);
leftMetricsKey = H;
rightKerningGroup = rightR;
unicode = 0052;
},
{
glyphname = S;
lastChange = "2025-01-09 16:19:00 +0000";
layers = (
{
layerId = "1BF19B54-F320-4FA0-AF52-273918486B89";
name = "Ultra Black";
paths = (
{
closed = 1;
nodes = (
"515 -15 OFFCURVE",
"656 42 OFFCURVE",
"656 209 CURVE SMOOTH",
"656 499 OFFCURVE",
"253 345 OFFCURVE",
"253 485 CURVE SMOOTH",
"253 520 OFFCURVE",
"281 540 OFFCURVE",
"334 540 CURVE SMOOTH",
"400 540 OFFCURVE",
"422 513 OFFCURVE",
"434 438 CURVE",
"638 480 LINE",
"600 640 OFFCURVE",
"504 715 OFFCURVE",
"337 715 CURVE SMOOTH",
"168 715 OFFCURVE",
"43 655 OFFCURVE",
"43 493 CURVE SMOOTH",
"43 203 OFFCURVE",
"446 350 OFFCURVE",
"446 218 CURVE SMOOTH",
"446 180 OFFCURVE",
"413 160 OFFCURVE",
"362 160 CURVE SMOOTH",
"290 160 OFFCURVE",
"254 199 OFFCURVE",
"241 269 CURVE",
"33 244 LINE",
"67 40 OFFCURVE",
"197 -15 OFFCURVE",
"351 -15 CURVE SMOOTH"
);
}
);
width = 689;
},
{
layerId = m003;
name = Regular;
paths = (
{
closed = 1;
nodes = (
"461 -15 OFFCURVE",
"549 58 OFFCURVE",
"549 178 CURVE SMOOTH",
"549 448 OFFCURVE",
"114 291 OFFCURVE",
"114 528 CURVE SMOOTH",
"114 630 OFFCURVE",
"195 691 OFFCURVE",
"312 691 CURVE SMOOTH",
"435 691 OFFCURVE",
"478 625 OFFCURVE",
"513 495 CURVE",
"537 503 LINE",
"501 645 OFFCURVE",
"449 715 OFFCURVE",
"312 715 CURVE SMOOTH",
"175 715 OFFCURVE",
"88 645 OFFCURVE",
"88 528 CURVE SMOOTH",
"88 267 OFFCURVE",
"523 419 OFFCURVE",
"523 178 CURVE SMOOTH",
"523 74 OFFCURVE",
"444 9 OFFCURVE",
"314 9 CURVE SMOOTH",
"183 9 OFFCURVE",
"120 74 OFFCURVE",
"91 213 CURVE",
"67 205 LINE",
"97 55 OFFCURVE",
"167 -15 OFFCURVE",
"314 -15 CURVE SMOOTH"
);
}
);
width = 619;
},
{
layerId = "2146FA84-FF4E-4FEC-ADE7-E3206BD202A0";
name = "Ultra Black";
paths = (
{
closed = 1;
nodes = (
"507 -15 OFFCURVE",
"655 67 OFFCURVE",
"655 227 CURVE SMOOTH",
"655 479 OFFCURVE",
"287 358 OFFCURVE",
"287 481 CURVE SMOOTH",
"287 517 OFFCURVE",
"320 540 OFFCURVE",
"377 540 CURVE SMOOTH",
"443 540 OFFCURVE",
"461 513 OFFCURVE",
"462 438 CURVE",
"672 480 LINE",
"657 640 OFFCURVE",
"571 715 OFFCURVE",
"404 715 CURVE SMOOTH",
"210 715 OFFCURVE",
"76 630 OFFCURVE",
"76 475 CURVE SMOOTH",
"76 221 OFFCURVE",
"444 338 OFFCURVE",
"444 220 CURVE SMOOTH",
"444 183 OFFCURVE",
"406 160 OFFCURVE",
"351 160 CURVE SMOOTH",
"279 160 OFFCURVE",
"249 199 OFFCURVE",
"246 269 CURVE",
"34 244 LINE",
"39 40 OFFCURVE",
"162 -15 OFFCURVE",
"316 -15 CURVE SMOOTH"
);
}
);
width = 696;
},
{
layerId = "C724B7CD-248E-4D7B-8006-7CFF52EADE8B";
name = Regular;
paths = (
{
closed = 1;
nodes = (
"446 -15 OFFCURVE",
"573 54 OFFCURVE",
"573 196 CURVE SMOOTH",
"573 443 OFFCURVE",
"185 347 OFFCURVE",
"185 514 CURVE SMOOTH",
"185 584 OFFCURVE",
"255 632 OFFCURVE",
"355 632 CURVE SMOOTH",
"456 632 OFFCURVE",
"491 583 OFFCURVE",
"504 476 CURVE",
"594 504 LINE",
"580 649 OFFCURVE",
"519 715 OFFCURVE",
"368 715 CURVE SMOOTH",
"203 715 OFFCURVE",
"93 633 OFFCURVE",
"93 504 CURVE SMOOTH",
"93 264 OFFCURVE",
"481 366 OFFCURVE",
"481 190 CURVE SMOOTH",
"481 108 OFFCURVE",
"399 68 OFFCURVE",
"298 68 CURVE SMOOTH",
"178 68 OFFCURVE",
"141 121 OFFCURVE",
"124 220 CURVE",
"32 191 LINE",
"57 55 OFFCURVE",
"119 -15 OFFCURVE",
"285 -15 CURVE SMOOTH"
);
}
);
width = 633;
},
{
layerId = "747A76F5-4D21-4F4C-BD8F-BF7AFE68B107";
name = Regular;
paths = (
{
closed = 1;
nodes = (
"412 -15 OFFCURVE",
"524 69 OFFCURVE",
"524 195 CURVE SMOOTH",
"524 428 OFFCURVE",
"134 310 OFFCURVE",
"134 514 CURVE SMOOTH",
"134 614 OFFCURVE",
"228 691 OFFCURVE",
"357 691 CURVE SMOOTH",
"480 691 OFFCURVE",
"514 625 OFFCURVE",
"530 495 CURVE",
"556 503 LINE",
"539 645 OFFCURVE",
"497 715 OFFCURVE",
"360 715 CURVE SMOOTH",
"215 715 OFFCURVE",
"108 631 OFFCURVE",
"108 512 CURVE SMOOTH",
"108 286 OFFCURVE",
"498 401 OFFCURVE",
"498 191 CURVE SMOOTH",
"498 86 OFFCURVE",
"400 9 OFFCURVE",
"263 9 CURVE SMOOTH",
"132 9 OFFCURVE",
"78 74 OFFCURVE",
"69 213 CURVE",
"44 205 LINE",
"53 55 OFFCURVE",
"113 -15 OFFCURVE",
"260 -15 CURVE SMOOTH"
);
}
);
width = 594;
},
{
associatedMasterId = "AAB0E2D1-7A47-467B-B788-A2CC53DD9722";
layerId = "5F9D383B-6EBC-4728-A697-FEAAF64959DC";
name = "8. Okt. 22, 21:02";
paths = (
{
closed = 1;
nodes = (
"482 -15 OFFCURVE",
"602 49 OFFCURVE",
"602 191 CURVE SMOOTH",
"602 467 OFFCURVE",
"169 338 OFFCURVE",
"169 516 CURVE SMOOTH",
"169 580 OFFCURVE",
"231 632 OFFCURVE",
"324 632 CURVE SMOOTH",
"420 632 OFFCURVE",
"493 582 OFFCURVE",
"497 475 CURVE",
"586 475 LINE",
"586 649 OFFCURVE",
"463 715 OFFCURVE",
"320 715 CURVE SMOOTH",
"178 715 OFFCURVE",
"79 642 OFFCURVE",
"79 511 CURVE SMOOTH",
"79 242 OFFCURVE",
"512 373 OFFCURVE",
"512 188 CURVE SMOOTH",
"512 113 OFFCURVE",
"434 68 OFFCURVE",
"342 68 CURVE SMOOTH",
"228 68 OFFCURVE",
"153 129 OFFCURVE",
"148 236 CURVE",
"59 236 LINE",
"59 74 OFFCURVE",
"173 -15 OFFCURVE",
"342 -15 CURVE SMOOTH"
);
}
);
width = 661;
},
{
layerId = "AAB0E2D1-7A47-467B-B788-A2CC53DD9722";
name = Regular;
paths = (
{
closed = 1;
nodes = (
"502 -15 OFFCURVE",
"600 49 OFFCURVE",
"600 177 CURVE SMOOTH",
"600 460 OFFCURVE",
"167 333 OFFCURVE",
"167 521 CURVE SMOOTH",
"167 590 OFFCURVE",
"227 632 OFFCURVE",
"320 632 CURVE SMOOTH",
"421 632 OFFCURVE",
"463 583 OFFCURVE",
"491 476 CURVE",
"577 504 LINE",
"543 649 OFFCURVE",
"473 715 OFFCURVE",
"322 715 CURVE SMOOTH",
"164 715 OFFCURVE",
"76 645 OFFCURVE",
"76 523 CURVE SMOOTH",
"76 246 OFFCURVE",
"509 382 OFFCURVE",
"509 180 CURVE SMOOTH",
"509 104 OFFCURVE",
"442 68 OFFCURVE",
"343 68 CURVE SMOOTH",
"223 68 OFFCURVE",
"178 121 OFFCURVE",
"147 220 CURVE",
"59 191 LINE",
"103 55 OFFCURVE",
"175 -15 OFFCURVE",
"341 -15 CURVE SMOOTH"
);
}
);
visible = 1;
width = 659;
},
{
associatedMasterId = "AAB0E2D1-7A47-467B-B788-A2CC53DD9722";
layerId = "A1FC8443-D9D0-486E-BCEC-2369B9F610FA";
name = "11. Okt. 22, 13:57";
paths = (
{
closed = 1;
nodes = (
"480 -15 OFFCURVE",
"600 49 OFFCURVE",
"600 191 CURVE SMOOTH",
"600 467 OFFCURVE",
"167 338 OFFCURVE",
"167 516 CURVE SMOOTH",
"167 580 OFFCURVE",
"228 632 OFFCURVE",
"323 632 CURVE SMOOTH",
"426 632 OFFCURVE",
"461 570 OFFCURVE",
"491 476 CURVE",
"577 504 LINE",
"538 648 OFFCURVE",
"465 715 OFFCURVE",
"319 715 CURVE SMOOTH",
"171 715 OFFCURVE",
"77 642 OFFCURVE",
"77 511 CURVE SMOOTH",
"77 242 OFFCURVE",
"510 373 OFFCURVE",
"510 188 CURVE SMOOTH",
"510 113 OFFCURVE",
"432 68 OFFCURVE",
"340 68 CURVE SMOOTH",
"231 68 OFFCURVE",
"180 133 OFFCURVE",
"147 236 CURVE",
"59 207 LINE",
"104 68 OFFCURVE",
"176 -15 OFFCURVE",
"340 -15 CURVE SMOOTH"
);
}
);
width = 659;
},
{
associatedMasterId = "AAB0E2D1-7A47-467B-B788-A2CC53DD9722";
layerId = "6D3DBFC7-A7E6-49E1-9D68-B652055D0C51";
name = "25. Okt. 22, 18:31";
paths = (
{
closed = 1;
nodes = (
"479 -15 OFFCURVE",
"600 50 OFFCURVE",
"600 191 CURVE SMOOTH",
"600 453 OFFCURVE",
"167 329 OFFCURVE",
"167 518 CURVE SMOOTH",
"167 588 OFFCURVE",
"232 632 OFFCURVE",
"323 632 CURVE SMOOTH",
"430 632 OFFCURVE",
"466 570 OFFCURVE",
"491 476 CURVE",
"577 504 LINE",
"543 648 OFFCURVE",
"468 715 OFFCURVE",
"322 715 CURVE SMOOTH",
"174 715 OFFCURVE",
"77 640 OFFCURVE",
"77 515 CURVE SMOOTH",
"77 253 OFFCURVE",
"510 384 OFFCURVE",
"510 189 CURVE SMOOTH",
"510 107 OFFCURVE",
"431 68 OFFCURVE",
"343 68 CURVE SMOOTH",
"230 68 OFFCURVE",
"175 133 OFFCURVE",
"147 236 CURVE",
"59 207 LINE",
"99 68 OFFCURVE",
"175 -15 OFFCURVE",
"339 -15 CURVE SMOOTH"
);
}
);
width = 659;
},
{
associatedMasterId = m003;
layerId = "CEB23D62-2BD4-4756-9B66-FFA344C93298";
name = "4. Nov. 22, 16:49";
paths = (
{
closed = 1;
nodes = (
"446 -15 OFFCURVE",
"549 53 OFFCURVE",
"549 180 CURVE SMOOTH",
"549 442 OFFCURVE",
"114 296 OFFCURVE",
"114 528 CURVE SMOOTH",
"114 617 OFFCURVE",
"182 691 OFFCURVE",
"305 691 CURVE SMOOTH",
"424 691 OFFCURVE",
"504 623 OFFCURVE",
"506 475 CURVE",
"531 475 LINE",
"531 649 OFFCURVE",
"427 715 OFFCURVE",
"305 715 CURVE SMOOTH",
"178 715 OFFCURVE",
"88 645 OFFCURVE",
"88 528 CURVE SMOOTH",
"88 272 OFFCURVE",
"523 413 OFFCURVE",
"523 180 CURVE SMOOTH",
"523 78 OFFCURVE",
"439 9 OFFCURVE",
"321 9 CURVE SMOOTH",
"190 9 OFFCURVE",
"99 87 OFFCURVE",
"95 236 CURVE",
"70 236 LINE",
"70 74 OFFCURVE",
"173 -15 OFFCURVE",
"321 -15 CURVE SMOOTH"
);
}
);
visible = 1;
width = 619;
},
{
associatedMasterId = m003;
layerId = "EE3D5E47-608E-4E9C-8DBE-2F853CC3A659";
name = "4. Nov. 22, 16:50";
paths = (
{
closed = 0;
nodes = (
"305 691 LINE SMOOTH",
"416 691 OFFCURVE",
"487 627 OFFCURVE",
"515 488 CURVE",
"539 496 LINE",
"510 646 OFFCURVE",
"431 715 OFFCURVE",
"305 715 CURVE SMOOTH"
);
},
{
closed = 0;
nodes = (
"321 -15 LINE SMOOTH",
"184 -15 OFFCURVE",
"98 74 OFFCURVE",
"67 224 CURVE",
"91 232 LINE",
"122 93 OFFCURVE",
"199 9 OFFCURVE",
"321 9 CURVE SMOOTH"
);
}
);
width = 619;
}
);
rightMetricsKey = B;
unicode = 0053;
},
{
glyphname = T;
lastChange = "2025-01-09 16:19:00 +0000";
layers = (
{
layerId = "AAB0E2D1-7A47-467B-B788-A2CC53DD9722";
paths = (
{
closed = 1;
nodes = (
"328 0 LINE",
"328 700 LINE",
"240 700 LINE",
"240 0 LINE"
);
},
{
closed = 1;
nodes = (
"563 619 LINE",
"563 700 LINE",
"5 700 LINE",
"5 619 LINE"
);
}
);
width = 568;
},
{
layerId = "1BF19B54-F320-4FA0-AF52-273918486B89";
paths = (
{
closed = 1;
nodes = (
"423 0 LINE",
"423 700 LINE",
"215 700 LINE",
"215 0 LINE"
);
},
{
closed = 1;
nodes = (
"623 525 LINE",
"623 700 LINE",
"15 700 LINE",
"15 525 LINE"
);
}
);
width = 638;
},
{
layerId = m003;
paths = (
{
closed = 1;
nodes = (
"286 0 LINE",
"286 690 LINE",
"262 690 LINE",
"262 0 LINE"
);
},
{
closed = 1;
nodes = (
"553 678 LINE",
"553 700 LINE",
"-5 700 LINE",
"-5 678 LINE"
);
}
);
width = 548;
},
{
layerId = "2146FA84-FF4E-4FEC-ADE7-E3206BD202A0";
paths = (
{
closed = 1;
nodes = (
"383 0 LINE",
"481 700 LINE",
"273 700 LINE",
"175 0 LINE"
);
},
{
closed = 1;
nodes = (
"657 525 LINE",
"681 700 LINE",
"73 700 LINE",
"49 525 LINE"
);
}
);
width = 628;
},
{
layerId = "C724B7CD-248E-4D7B-8006-7CFF52EADE8B";
paths = (
{
closed = 1;
nodes = (
"294 0 LINE",
"392 700 LINE",
"301 700 LINE",
"203 0 LINE"
);
},
{
closed = 1;
nodes = (
"615 619 LINE",
"626 700 LINE",
"68 700 LINE",
"57 619 LINE"
);
}
);
width = 568;
},
{
layerId = "747A76F5-4D21-4F4C-BD8F-BF7AFE68B107";
paths = (
{
closed = 1;
nodes = (
"251 0 LINE",
"348 693 LINE",
"323 693 LINE",
"226 0 LINE"
);
},
{
closed = 1;
nodes = (
"613 678 LINE",
"616 700 LINE",
"58 700 LINE",
"55 678 LINE"
);
}
);
width = 548;
}
);
leftKerningGroup = LeftUpV;
rightKerningGroup = RightUpV;
unicode = 0054;
},
{
glyphname = U;
lastChange = "2025-01-09 16:19:00 +0000";
layers = (
{
anchors = (
{
name = bottom;
position = "{362, 0}";
},
{
name = ogonek;
position = "{652, 10}";
},
{
name = top;
position = "{362, 700}";
},
{
name = topright;
position = "{704, 700}";
}
);
layerId = "AAB0E2D1-7A47-467B-B788-A2CC53DD9722";
paths = (
{
closed = 1;
nodes = (
"548 -15 OFFCURVE",
"646 86 OFFCURVE",
"646 277 CURVE SMOOTH",
"646 707 LINE",
"558 707 LINE",
"558 284 LINE SMOOTH",
"558 136 OFFCURVE",
"496 68 OFFCURVE",
"362 68 CURVE SMOOTH",
"228 68 OFFCURVE",
"166 136 OFFCURVE",
"166 284 CURVE SMOOTH",
"166 707 LINE",
"78 707 LINE",
"78 277 LINE SMOOTH",
"78 86 OFFCURVE",
"176 -15 OFFCURVE",
"362 -15 CURVE SMOOTH"
);
}
);
width = 724;
},
{
anchors = (
{
name = bottom;
position = "{379, 0}";
},
{
name = ogonek;
position = "{682, 10}";
},
{
name = top;
position = "{379, 700}";
},
{
name = topright;
position = "{738, 700}";
}
);
layerId = "1BF19B54-F320-4FA0-AF52-273918486B89";
paths = (
{
closed = 1;
nodes = (
"591 -15 OFFCURVE",
"703 88 OFFCURVE",
"703 282 CURVE SMOOTH",
"703 707 LINE",
"495 707 LINE",
"495 294 LINE SMOOTH",
"495 209 OFFCURVE",
"459 170 OFFCURVE",
"379 170 CURVE SMOOTH",
"299 170 OFFCURVE",
"263 209 OFFCURVE",
"263 294 CURVE SMOOTH",
"263 707 LINE",
"55 707 LINE",
"55 282 LINE SMOOTH",
"55 88 OFFCURVE",
"167 -15 OFFCURVE",
"379 -15 CURVE SMOOTH"
);
}
);
width = 758;
},
{
anchors = (
{
name = bottom;
position = "{344, 0}";
},
{
name = ogonek;
position = "{619, 10}";
},
{
name = top;
position = "{344, 700}";
},
{
name = topright;
position = "{668, 700}";
}
);
layerId = m003;
paths = (
{
closed = 1;
nodes = (
"514 -15 OFFCURVE",
"604 87 OFFCURVE",
"604 279 CURVE SMOOTH",
"604 707 LINE",
"580 707 LINE",
"580 282 LINE SMOOTH",
"580 103 OFFCURVE",
"498 9 OFFCURVE",
"344 9 CURVE SMOOTH",
"190 9 OFFCURVE",
"108 103 OFFCURVE",
"108 282 CURVE SMOOTH",
"108 707 LINE",
"84 707 LINE",
"84 279 LINE SMOOTH",
"84 87 OFFCURVE",
"174 -15 OFFCURVE",
"344 -15 CURVE SMOOTH"
);
}
);
width = 688;
},
{
anchors = (
{
name = bottom;
position = "{344, 0}";
},
{
name = ogonek;
position = "{637, 10}";
},
{
name = top;
position = "{344, 700}";
},
{
name = topright;
position = "{690, 700}";
}
);
associatedMasterId = m003;
layerId = "37B82710-F3A4-4850-B5E5-AF655C40CD8B";
name = "31. März 22, 15:47";
paths = (
{
closed = 1;
nodes = (
"60 707 LINE",
"148 707 LINE",
"148 284 LINE SMOOTH",
"148 137 OFFCURVE",
"222 65 OFFCURVE",
"344 65 CURVE SMOOTH",
"466 65 OFFCURVE",
"540 137 OFFCURVE",
"540 284 CURVE SMOOTH",
"540 707 LINE",
"628 707 LINE",
"628 277 LINE SMOOTH",
"628 82 OFFCURVE",
"529 -15 OFFCURVE",
"344 -15 CURVE SMOOTH",
"160 -15 OFFCURVE",
"60 82 OFFCURVE",
"60 277 CURVE SMOOTH"
);
}
);
width = 688;
},
{
anchors = (
{
name = bottom;
position = "{349, 0}";
},
{
name = ogonek;
position = "{657, 10}";
},
{
name = top;
position = "{447, 700}";
},
{
name = topright;
position = "{811, 700}";
}
);
layerId = "2146FA84-FF4E-4FEC-ADE7-E3206BD202A0";
paths = (
{
closed = 1;
nodes = (
"558 -15 OFFCURVE",
"685 88 OFFCURVE",
"712 282 CURVE SMOOTH",
"772 707 LINE",
"564 707 LINE",
"506 294 LINE SMOOTH",
"494 209 OFFCURVE",
"452 170 OFFCURVE",
"372 170 CURVE SMOOTH",
"292 170 OFFCURVE",
"262 209 OFFCURVE",
"274 294 CURVE SMOOTH",
"332 707 LINE",
"124 707 LINE",
"64 282 LINE SMOOTH",
"37 88 OFFCURVE",
"134 -15 OFFCURVE",
"346 -15 CURVE SMOOTH"
);
}
);
width = 768;
},
{
anchors = (
{
name = bottom;
position = "{322, 0}";
},
{
name = ogonek;
position = "{608, 10}";
},
{
name = top;
position = "{420, 700}";
},
{
name = topright;
position = "{756, 700}";
}
);
layerId = "C724B7CD-248E-4D7B-8006-7CFF52EADE8B";
paths = (
{
closed = 1;
nodes = (
"505 -15 OFFCURVE",
"617 86 OFFCURVE",
"644 277 CURVE SMOOTH",
"705 707 LINE",
"617 707 LINE",
"557 284 LINE SMOOTH",
"536 136 OFFCURVE",
"465 68 OFFCURVE",
"331 68 CURVE SMOOTH",
"197 68 OFFCURVE",
"144 136 OFFCURVE",
"165 284 CURVE SMOOTH",
"225 707 LINE",
"137 707 LINE",
"76 277 LINE SMOOTH",
"49 86 OFFCURVE",
"133 -15 OFFCURVE",
"319 -15 CURVE SMOOTH"
);
}
);
width = 713;
},
{
anchors = (
{
name = bottom;
position = "{310, 0}";
},
{
name = ogonek;
position = "{602, 10}";
},
{
name = top;
position = "{408, 700}";
},
{
name = topright;
position = "{752, 700}";
}
);
layerId = "747A76F5-4D21-4F4C-BD8F-BF7AFE68B107";
paths = (
{
closed = 1;
nodes = (
"477 -15 OFFCURVE",
"582 87 OFFCURVE",
"609 279 CURVE SMOOTH",
"669 707 LINE",
"645 707 LINE",
"585 282 LINE SMOOTH",
"560 103 OFFCURVE",
"465 9 OFFCURVE",
"311 9 CURVE SMOOTH",
"157 9 OFFCURVE",
"88 103 OFFCURVE",
"113 282 CURVE SMOOTH",
"173 707 LINE",
"149 707 LINE",
"89 279 LINE SMOOTH",
"62 87 OFFCURVE",
"137 -15 OFFCURVE",
"307 -15 CURVE SMOOTH"
);
}
);
width = 690;
},
{
anchors = (
{
name = bottom;
position = "{362, 0}";
},
{
name = ogonek;
position = "{655, 10}";
},
{
name = top;
position = "{362, 700}";
},
{
name = topright;
position = "{708, 700}";
}
);
associatedMasterId = "AAB0E2D1-7A47-467B-B788-A2CC53DD9722";
layerId = "265D66E9-1081-4F98-A54B-24086573E2EA";
name = "20. Okt. 22, 18:55";
paths = (
{
closed = 1;
nodes = (
"547 -15 OFFCURVE",
"646 82 OFFCURVE",
"646 277 CURVE SMOOTH",
"646 707 LINE",
"558 707 LINE",
"558 284 LINE SMOOTH",
"558 139 OFFCURVE",
"484 68 OFFCURVE",
"362 68 CURVE SMOOTH",
"240 68 OFFCURVE",
"166 139 OFFCURVE",
"166 284 CURVE SMOOTH",
"166 707 LINE",
"78 707 LINE",
"78 277 LINE SMOOTH",
"78 82 OFFCURVE",
"178 -15 OFFCURVE",
"362 -15 CURVE SMOOTH"
);
}
);
width = 724;
}
);
leftMetricsKey = H;
rightMetricsKey = H;
unicode = 0055;
},
{
glyphname = V;
lastChange = "2025-01-09 16:19:00 +0000";
layers = (
{
layerId = "AAB0E2D1-7A47-467B-B788-A2CC53DD9722";
paths = (
{
closed = 1;
nodes = (
"387 0 LINE",
"652 700 LINE",
"551 700 LINE",
"325 65 LINE",
"100 700 LINE",
"0 700 LINE",
"264 0 LINE"
);
}
);
width = 652;
},
{
layerId = "1BF19B54-F320-4FA0-AF52-273918486B89";
paths = (
{
closed = 1;
nodes = (
"499 0 LINE",
"747 700 LINE",
"526 700 LINE",
"366 167 LINE",
"208 700 LINE",
"-10 700 LINE",
"238 0 LINE"
);
}
);
width = 737;
},
{
layerId = m003;
paths = (
{
closed = 1;
nodes = (
"306 0 LINE",
"578 700 LINE",
"550 700 LINE",
"289 21 LINE",
"27 700 LINE",
"0 700 LINE",
"273 0 LINE"
);
}
);
width = 578;
},
{
layerId = "2146FA84-FF4E-4FEC-ADE7-E3206BD202A0";
paths = (
{
closed = 1;
nodes = (
"464 0 LINE",
"810 700 LINE",
"589 700 LINE",
"354 167 LINE",
"271 700 LINE",
"53 700 LINE",
"203 0 LINE"
);
}
);
width = 737;
},
{
layerId = "C724B7CD-248E-4D7B-8006-7CFF52EADE8B";
paths = (
{
closed = 1;
nodes = (
"352 0 LINE",
"715 700 LINE",
"612 700 LINE",
"297 65 LINE",
"161 700 LINE",
"63 700 LINE",
"229 0 LINE"
);
}
);
width = 657;
},
{
layerId = "747A76F5-4D21-4F4C-BD8F-BF7AFE68B107";
paths = (
{
closed = 1;
nodes = (
"271 0 LINE",
"641 700 LINE",
"612 700 LINE",
"256 21 LINE",
"89 700 LINE",
"63 700 LINE",
"238 0 LINE"
);
}
);
width = 583;
},
{
associatedMasterId = "1BF19B54-F320-4FA0-AF52-273918486B89";
layerId = "CD462B7A-3B2E-418C-AFD5-AE444AECD8DF";
name = "10. Okt. 22, 18:32";
paths = (
{
closed = 1;
nodes = (
"488 0 LINE",
"761 700 LINE",
"540 700 LINE",
"272 0 LINE"
);
},
{
closed = 1;
nodes = (
"468 0 LINE",
"202 700 LINE",
"-16 700 LINE",
"257 0 LINE"
);
}
);
width = 745;
},
{
associatedMasterId = "AAB0E2D1-7A47-467B-B788-A2CC53DD9722";
layerId = "AFFAE165-15B5-417B-A690-41AF140F488A";
name = "10. Okt. 22, 18:41";
paths = (
{
closed = 1;
nodes = (
"389 0 LINE",
"672 700 LINE",
"571 700 LINE",
"293 0 LINE"
);
},
{
closed = 1;
nodes = (
"376 0 LINE",
"100 700 LINE",
"0 700 LINE",
"282 0 LINE"
);
}
);
width = 672;
},
{
associatedMasterId = m003;
layerId = "A507A21D-8A8F-41DB-ACDE-6A6D5B72E785";
name = "10. Okt. 22, 18:47";
paths = (
{
closed = 1;
nodes = (
"316 0 LINE",
"598 700 LINE",
"570 700 LINE",
"289 0 LINE"
);
},
{
closed = 1;
nodes = (
"309 0 LINE",
"27 700 LINE",
"0 700 LINE",
"283 0 LINE"
);
}
);
width = 598;
},
{
associatedMasterId = "2146FA84-FF4E-4FEC-ADE7-E3206BD202A0";
layerId = "AC9B3659-F1C1-434F-B9AF-5AFE884534B9";
name = "23. Feb. 23, 17:44";
paths = (
{
closed = 1;
nodes = (
"474 0 LINE",
"830 700 LINE",
"607 700 LINE",
"362 167 LINE",
"269 700 LINE",
"53 700 LINE",
"213 0 LINE"
);
}
);
width = 757;
},
{
associatedMasterId = "C724B7CD-248E-4D7B-8006-7CFF52EADE8B";
layerId = "8067D82B-C310-4CFB-B150-0C431C01D89B";
name = "23. Feb. 23, 17:45";
paths = (
{
closed = 1;
nodes = (
"362 0 LINE",
"735 700 LINE",
"634 700 LINE",
"309 65 LINE",
"163 700 LINE",
"63 700 LINE",
"239 0 LINE"
);
}
);
width = 677;
}
);
leftKerningGroup = LeftUpV;
leftMetricsKey = A;
rightKerningGroup = RightUpV;
rightMetricsKey = A;
unicode = 0056;
},
{
glyphname = W;
lastChange = "2025-01-09 16:25:27 +0000";
layers = (
{
layerId = "AAB0E2D1-7A47-467B-B788-A2CC53DD9722";
paths = (
{
closed = 1;
nodes = (
"303 0 LINE",
"475 585 LINE",
"647 0 LINE",
"759 0 LINE",
"950 700 LINE",
"854 700 LINE",
"699 98 LINE",
"527 700 LINE",
"426 700 LINE",
"253 98 LINE",
"99 700 LINE",
"0 700 LINE",
"191 0 LINE"
);
}
);
width = 950;
},
{
layerId = m003;
paths = (
{
closed = 1;
nodes = (
"219 0 LINE",
"420 661 LINE",
"621 0 LINE",
"648 0 LINE",
"841 700 LINE",
"814 700 LINE",
"634 38 LINE",
"433 700 LINE",
"407 700 LINE",
"207 38 LINE",
"27 700 LINE",
"0 700 LINE",
"193 0 LINE"
);
}
);
width = 841;
},
{
layerId = "1BF19B54-F320-4FA0-AF52-273918486B89";
name = "Ultra Black";
paths = (
{
closed = 1;
nodes = (
"402 0 LINE",
"504 417 LINE",
"606 0 LINE",
"868 0 LINE",
"1021 700 LINE",
"792 700 LINE",
"718 208 LINE",
"621 700 LINE",
"390 700 LINE",
"295 208 LINE",
"219 700 LINE",
"-10 700 LINE",
"140 0 LINE"
);
}
);
width = 1011;
},
{
layerId = "2146FA84-FF4E-4FEC-ADE7-E3206BD202A0";
name = "Ultra Black";
paths = (
{
closed = 1;
nodes = (
"367 0 LINE",
"527 417 LINE",
"571 0 LINE",
"833 0 LINE",
"1084 700 LINE",
"855 700 LINE",
"712 208 LINE",
"684 700 LINE",
"453 700 LINE",
"287 208 LINE",
"282 700 LINE",
"53 700 LINE",
"105 0 LINE"
);
}
);
width = 1011;
},
{
layerId = "C724B7CD-248E-4D7B-8006-7CFF52EADE8B";
paths = (
{
closed = 1;
nodes = (
"268 0 LINE",
"522 585 LINE",
"612 0 LINE",
"724 0 LINE",
"1013 700 LINE",
"917 700 LINE",
"677 98 LINE",
"590 700 LINE",
"489 700 LINE",
"232 98 LINE",
"162 700 LINE",
"63 700 LINE",
"156 0 LINE"
);
}
);
width = 955;
},
{
layerId = "747A76F5-4D21-4F4C-BD8F-BF7AFE68B107";
paths = (
{
closed = 1;
nodes = (
"184 0 LINE",
"478 661 LINE",
"586 0 LINE",
"613 0 LINE",
"904 700 LINE",
"877 700 LINE",
"604 38 LINE",
"496 700 LINE",
"470 700 LINE",
"177 38 LINE",
"90 700 LINE",
"63 700 LINE",
"158 0 LINE"
);
}
);
width = 846;
},
{
associatedMasterId = "1BF19B54-F320-4FA0-AF52-273918486B89";
layerId = "9C27B3D9-A639-40DC-B1EC-071CF1C3A0CE";
name = "10. Okt. 22, 18:32";
paths = (
{
closed = 1;
nodes = (
"829 0 LINE",
"621 700 LINE",
"416 700 LINE",
"624 0 LINE"
);
},
{
closed = 1;
nodes = (
"374 0 LINE",
"203 700 LINE",
"-16 700 LINE",
"167 0 LINE"
);
},
{
closed = 1;
nodes = (
"394 0 LINE",
"602 700 LINE",
"400 700 LINE",
"193 0 LINE"
);
},
{
closed = 1;
nodes = (
"851 0 LINE",
"1044 700 LINE",
"828 700 LINE",
"646 0 LINE"
);
}
);
width = 1028;
},
{
associatedMasterId = "AAB0E2D1-7A47-467B-B788-A2CC53DD9722";
layerId = "335A5383-9E60-4FCA-A14F-220FBB6F59BE";
name = "10. Okt. 22, 18:41";
paths = (
{
closed = 1;
nodes = (
"740 0 LINE",
"527 700 LINE",
"437 700 LINE",
"650 0 LINE"
);
},
{
closed = 1;
nodes = (
"287 0 LINE",
"99 700 LINE",
"0 700 LINE",
"200 0 LINE"
);
},
{
closed = 1;
nodes = (
"300 0 LINE",
"513 700 LINE",
"426 700 LINE",
"214 0 LINE"
);
},
{
closed = 1;
nodes = (
"750 0 LINE",
"950 700 LINE",
"854 700 LINE",
"663 0 LINE"
);
}
);
width = 950;
},
{
associatedMasterId = m003;
layerId = "702A64B6-2199-4686-9ED4-B50A020C5899";
name = "10. Okt. 22, 18:47";
paths = (
{
closed = 1;
nodes = (
"646 0 LINE",
"433 700 LINE",
"408 700 LINE",
"621 0 LINE"
);
},
{
closed = 1;
nodes = (
"217 0 LINE",
"27 700 LINE",
"0 700 LINE",
"193 0 LINE"
);
},
{
closed = 1;
nodes = (
"219 0 LINE",
"432 700 LINE",
"407 700 LINE",
"195 0 LINE"
);
},
{
closed = 1;
nodes = (
"648 0 LINE",
"841 700 LINE",
"814 700 LINE",
"624 0 LINE"
);
}
);
width = 841;
},
{
associatedMasterId = "1BF19B54-F320-4FA0-AF52-273918486B89";
layerId = "3DCD91AE-91EE-40A4-9367-8F69D3EB1D1A";
name = "28. Okt. 22, 11:50";
paths = (
{
closed = 1;
nodes = (
"871 0 LINE",
"1024 700 LINE",
"798 700 LINE",
"721 208 LINE",
"621 700 LINE",
"390 700 LINE",
"292 215 LINE",
"213 700 LINE",
"-16 700 LINE",
"137 0 LINE",
"399 0 LINE",
"504 417 LINE",
"609 0 LINE"
);
}
);
width = 1008;
},
{
associatedMasterId = "2146FA84-FF4E-4FEC-ADE7-E3206BD202A0";
layerId = "4A73BA28-3E24-4389-88F4-6A85A40A19F6";
name = "22. Nov. 22, 17:14";
paths = (
{
closed = 1;
nodes = (
"809 0 LINE",
"699 700 LINE",
"500 700 LINE",
"610 0 LINE"
);
},
{
closed = 1;
nodes = (
"354 0 LINE",
"281 700 LINE",
"68 700 LINE",
"153 0 LINE"
);
},
{
closed = 1;
nodes = (
"380 0 LINE",
"686 700 LINE",
"478 700 LINE",
"173 0 LINE"
);
},
{
closed = 1;
nodes = (
"837 0 LINE",
"1128 700 LINE",
"906 700 LINE",
"626 0 LINE"
);
}
);
width = 1070;
}
);
leftKerningGroup = LeftUpV;
leftMetricsKey = V;
rightKerningGroup = RightUpV;
rightMetricsKey = V;
unicode = 0057;
},
{
glyphname = X;
lastChange = "2025-01-09 16:19:00 +0000";
layers = (
{
layerId = "AAB0E2D1-7A47-467B-B788-A2CC53DD9722";
paths = (
{
closed = 1;
nodes = (
"116 0 LINE",
"303 308 LINE",
"307 308 LINE",
"496 0 LINE",
"611 0 LINE",
"371 363 LINE",
"599 700 LINE",
"485 700 LINE",
"307 417 LINE",
"303 417 LINE",
"125 700 LINE",
"12 700 LINE",
"239 363 LINE",
"0 0 LINE"
);
}
);
width = 611;
},
{
layerId = "1BF19B54-F320-4FA0-AF52-273918486B89";
paths = (
{
closed = 1;
nodes = (
"247 0 LINE",
"355 239 LINE",
"358 239 LINE",
"467 0 LINE",
"702 0 LINE",
"494 357 LINE",
"690 700 LINE",
"456 700 LINE",
"357 474 LINE",
"354 474 LINE",
"256 700 LINE",
"23 700 LINE",
"218 357 LINE",
"11 0 LINE"
);
}
);
width = 713;
},
{
layerId = m003;
paths = (
{
closed = 1;
nodes = (
"32 0 LINE",
"271 343 LINE",
"273 343 LINE",
"513 0 LINE",
"545 0 LINE",
"289 363 LINE",
"527 700 LINE",
"496 700 LINE",
"273 383 LINE",
"271 383 LINE",
"48 700 LINE",
"18 700 LINE",
"255 363 LINE",
"0 0 LINE"
);
}
);
width = 545;
},
{
associatedMasterId = m003;
layerId = "2DA48807-824B-4492-8644-CC1928F4184D";
name = "2. Apr. 22, 13:46";
paths = (
{
closed = 1;
nodes = (
"116 0 LINE",
"310 293 LINE",
"313 293 LINE",
"508 0 LINE",
"623 0 LINE",
"372 363 LINE",
"605 700 LINE",
"491 700 LINE",
"312 432 LINE",
"309 432 LINE",
"131 700 LINE",
"18 700 LINE",
"250 363 LINE",
"0 0 LINE"
);
}
);
width = 623;
},
{
layerId = "2146FA84-FF4E-4FEC-ADE7-E3206BD202A0";
paths = (
{
closed = 1;
nodes = (
"212 0 LINE",
"353 239 LINE",
"356 239 LINE",
"432 0 LINE",
"667 0 LINE",
"509 357 LINE",
"753 700 LINE",
"519 700 LINE",
"388 474 LINE",
"385 474 LINE",
"319 700 LINE",
"86 700 LINE",
"233 357 LINE",
"-24 0 LINE"
);
}
);
width = 713;
},
{
layerId = "C724B7CD-248E-4D7B-8006-7CFF52EADE8B";
paths = (
{
closed = 1;
nodes = (
"87 0 LINE",
"317 308 LINE",
"321 308 LINE",
"467 0 LINE",
"582 0 LINE",
"393 363 LINE",
"668 700 LINE",
"554 700 LINE",
"336 417 LINE",
"332 417 LINE",
"194 700 LINE",
"81 700 LINE",
"261 363 LINE",
"-29 0 LINE"
);
}
);
width = 623;
},
{
layerId = "747A76F5-4D21-4F4C-BD8F-BF7AFE68B107";
paths = (
{
closed = 1;
nodes = (
"20 0 LINE",
"307 343 LINE",
"309 343 LINE",
"501 0 LINE",
"532 0 LINE",
"327 363 LINE",
"612 700 LINE",
"578 700 LINE",
"311 383 LINE",
"309 383 LINE",
"130 700 LINE",
"101 700 LINE",
"291 363 LINE",
"-15 0 LINE"
);
}
);
width = 587;
},
{
associatedMasterId = "AAB0E2D1-7A47-467B-B788-A2CC53DD9722";
layerId = "F75E2069-3F46-4853-B9C1-1D00113E9CA0";
name = "11. Okt. 22, 15:06";
paths = (
{
closed = 1;
nodes = (
"116 0 LINE",
"310 293 LINE",
"313 293 LINE",
"508 0 LINE",
"623 0 LINE",
"372 363 LINE",
"605 700 LINE",
"491 700 LINE",
"312 432 LINE",
"309 432 LINE",
"131 700 LINE",
"18 700 LINE",
"250 363 LINE",
"0 0 LINE"
);
}
);
width = 623;
},
{
associatedMasterId = "1BF19B54-F320-4FA0-AF52-273918486B89";
layerId = "32BEB060-9F8F-4D51-A42F-0598D7459FE1";
name = "11. Okt. 22, 15:09";
paths = (
{
closed = 1;
nodes = (
"247 0 LINE",
"371 217 LINE",
"374 217 LINE",
"499 0 LINE",
"734 0 LINE",
"503 357 LINE",
"716 700 LINE",
"482 700 LINE",
"373 496 LINE",
"370 496 LINE",
"262 700 LINE",
"29 700 LINE",
"241 357 LINE",
"11 0 LINE"
);
}
);
width = 745;
}
);
rightKerningGroup = RightUpX;
unicode = 0058;
},
{
glyphname = Y;
lastChange = "2025-01-09 16:19:00 +0000";
layers = (
{
layerId = "AAB0E2D1-7A47-467B-B788-A2CC53DD9722";
paths = (
{
closed = 1;
nodes = (
"341 0 LINE",
"341 239 LINE",
"593 700 LINE",
"490 700 LINE",
"299 317 LINE",
"297 317 LINE",
"108 700 LINE",
"0 700 LINE",
"253 239 LINE",
"253 0 LINE"
);
}
);
width = 593;
},
{
layerId = "1BF19B54-F320-4FA0-AF52-273918486B89";
paths = (
{
closed = 1;
nodes = (
"451 0 LINE",
"451 199 LINE",
"703 700 LINE",
"484 700 LINE",
"352 345 LINE",
"350 345 LINE",
"214 700 LINE",
"-10 700 LINE",
"243 199 LINE",
"243 0 LINE"
);
}
);
width = 693;
},
{
layerId = m003;
paths = (
{
closed = 1;
nodes = (
"277 0 LINE",
"277 259 LINE",
"529 700 LINE",
"500 700 LINE",
"266 288 LINE",
"264 288 LINE",
"29 700 LINE",
"0 700 LINE",
"253 259 LINE",
"253 0 LINE"
);
}
);
width = 529;
},
{
layerId = "2146FA84-FF4E-4FEC-ADE7-E3206BD202A0";
paths = (
{
closed = 1;
nodes = (
"416 0 LINE",
"444 199 LINE",
"766 700 LINE",
"540 700 LINE",
"358 345 LINE",
"356 345 LINE",
"270 700 LINE",
"53 700 LINE",
"236 199 LINE",
"208 0 LINE"
);
}
);
width = 693;
},
{
layerId = "C724B7CD-248E-4D7B-8006-7CFF52EADE8B";
paths = (
{
closed = 1;
nodes = (
"306 0 LINE",
"339 239 LINE",
"656 700 LINE",
"553 700 LINE",
"308 317 LINE",
"306 317 LINE",
"171 700 LINE",
"63 700 LINE",
"251 239 LINE",
"218 0 LINE"
);
}
);
width = 598;
},
{
layerId = "747A76F5-4D21-4F4C-BD8F-BF7AFE68B107";
paths = (
{
closed = 1;
nodes = (
"242 0 LINE",
"278 259 LINE",
"592 700 LINE",
"563 700 LINE",
"271 288 LINE",
"269 288 LINE",
"92 700 LINE",
"63 700 LINE",
"254 259 LINE",
"218 0 LINE"
);
}
);
width = 534;
},
{
associatedMasterId = "1BF19B54-F320-4FA0-AF52-273918486B89";
layerId = "4F0B0163-3B0D-44F9-907C-8513E3C48C82";
name = "10. Okt. 22, 18:33";
paths = (
{
closed = 1;
nodes = (
"445 0 LINE",
"445 199 LINE",
"697 700 LINE",
"478 700 LINE",
"346 365 LINE",
"344 365 LINE",
"208 700 LINE",
"-16 700 LINE",
"237 199 LINE",
"237 0 LINE"
);
}
);
width = 681;
},
{
associatedMasterId = "AAB0E2D1-7A47-467B-B788-A2CC53DD9722";
layerId = "E7FFA9A1-38BE-4EDF-ADA6-6F73F4B5D870";
name = "10. Okt. 22, 18:42";
paths = (
{
closed = 1;
nodes = (
"341 0 LINE",
"341 239 LINE",
"593 700 LINE",
"494 700 LINE",
"302 325 LINE",
"300 325 LINE",
"104 700 LINE",
"0 700 LINE",
"253 239 LINE",
"253 0 LINE"
);
}
);
width = 593;
},
{
associatedMasterId = m003;
layerId = "4DE82833-E083-40EE-A115-434C0FC861C5";
name = "10. Okt. 22, 18:47";
paths = (
{
closed = 1;
nodes = (
"277 0 LINE",
"277 259 LINE",
"529 700 LINE",
"500 700 LINE",
"266 288 LINE",
"264 288 LINE",
"29 700 LINE",
"0 700 LINE",
"253 259 LINE",
"253 0 LINE"
);
}
);
width = 529;
},
{
associatedMasterId = "1BF19B54-F320-4FA0-AF52-273918486B89";
layerId = "EDFEEFBF-49D3-4A8C-B662-20CADEC038D1";
name = "25. Okt. 22, 19:16";
paths = (
{
closed = 1;
nodes = (
"378 405 LINE",
"208 700 LINE",
"-16 700 LINE",
"312 176 LINE",
"380 405 LINE"
);
},
{
closed = 1;
nodes = (
"115 0 LINE",
"330 0 LINE",
"702 700 LINE",
"477 700 LINE"
);
}
);
width = 686;
}
);
leftKerningGroup = LeftUpV;
leftMetricsKey = A;
rightKerningGroup = RightUpV;
rightMetricsKey = A;
unicode = 0059;
},
{
glyphname = Z;
lastChange = "2025-01-09 16:19:00 +0000";
layers = (
{
layerId = "AAB0E2D1-7A47-467B-B788-A2CC53DD9722";
paths = (
{
closed = 1;
nodes = (
"559 0 LINE",
"559 88 LINE",
"117 88 LINE",
"545 612 LINE",
"545 700 LINE",
"34 700 LINE",
"34 612 LINE",
"440 612 LINE",
"13 88 LINE",
"13 0 LINE"
);
}
);
width = 572;
},
{
layerId = m003;
paths = (
{
closed = 1;
nodes = (
"537 0 LINE",
"537 22 LINE",
"49 22 LINE",
"523 676 LINE",
"523 700 LINE",
"42 700 LINE",
"42 678 LINE",
"495 678 LINE",
"21 24 LINE",
"21 0 LINE"
);
}
);
width = 558;
},
{
layerId = "2146FA84-FF4E-4FEC-ADE7-E3206BD202A0";
paths = (
{
closed = 1;
nodes = (
"601 0 LINE",
"630 208 LINE",
"276 208 LINE",
"658 506 LINE",
"685 700 LINE",
"94 700 LINE",
"65 492 LINE",
"385 492 LINE",
"2 194 LINE",
"-25 0 LINE"
);
}
);
width = 646;
},
{
layerId = "C724B7CD-248E-4D7B-8006-7CFF52EADE8B";
paths = (
{
closed = 1;
nodes = (
"521 0 LINE",
"533 88 LINE",
"91 88 LINE",
"593 612 LINE",
"605 700 LINE",
"94 700 LINE",
"82 612 LINE",
"488 612 LINE",
"-13 88 LINE",
"-25 0 LINE"
);
}
);
width = 566;
},
{
layerId = "747A76F5-4D21-4F4C-BD8F-BF7AFE68B107";
paths = (
{
closed = 1;
nodes = (
"511 0 LINE",
"514 22 LINE",
"26 22 LINE",
"592 676 LINE",
"595 700 LINE",
"114 700 LINE",
"111 678 LINE",
"564 678 LINE",
"-2 24 LINE",
"-5 0 LINE"
);
}
);
width = 576;
},
{
associatedMasterId = "1BF19B54-F320-4FA0-AF52-273918486B89";
layerId = "5962717C-427B-4191-8599-2BAD91DA5EAD";
name = "10. Okt. 22, 18:20";
paths = (
{
closed = 1;
nodes = (
"637 0 LINE",
"637 175 LINE",
"283 175 LINE",
"623 539 LINE",
"623 700 LINE",
"32 700 LINE",
"32 525 LINE",
"352 525 LINE",
"11 161 LINE",
"11 0 LINE"
);
}
);
width = 648;
},
{
associatedMasterId = "AAB0E2D1-7A47-467B-B788-A2CC53DD9722";
layerId = "5ECF5916-CCA0-4CDF-8425-88CD66B995FF";
name = "10. Okt. 22, 18:21";
paths = (
{
closed = 1;
nodes = (
"559 0 LINE",
"559 81 LINE",
"125 81 LINE",
"545 619 LINE",
"545 700 LINE",
"34 700 LINE",
"34 619 LINE",
"434 619 LINE",
"13 81 LINE",
"13 0 LINE"
);
}
);
width = 572;
},
{
associatedMasterId = "1BF19B54-F320-4FA0-AF52-273918486B89";
guideLines = (
{
angle = 221.1502;
position = "{182, 343}";
},
{
angle = 41.2336;
position = "{272, 198}";
}
);
layerId = "4968DE6D-9371-4356-B6DA-BA3AD1DD6E2E";
name = "14. Nov. 22, 15:50";
paths = (
{
closed = 1;
nodes = (
"637 0 LINE",
"637 208 LINE",
"272 198 LINE",
"623 506 LINE",
"623 700 LINE",
"32 700 LINE",
"32 492 LINE",
"364 502 LINE",
"11 194 LINE",
"11 0 LINE"
);
}
);
width = 648;
},
{
layerId = "1BF19B54-F320-4FA0-AF52-273918486B89";
name = "Ultra Black";
paths = (
{
closed = 1;
nodes = (
"637 0 LINE",
"637 208 LINE",
"283 208 LINE",
"623 506 LINE",
"623 700 LINE",
"32 700 LINE",
"32 492 LINE",
"352 492 LINE",
"11 194 LINE",
"11 0 LINE"
);
}
);
width = 648;
}
);
unicode = 005A;
},
{
glyphname = Q.ss01;
lastChange = "2025-01-09 16:19:00 +0000";
layers = (
{
layerId = "AAB0E2D1-7A47-467B-B788-A2CC53DD9722";
paths = (
{
closed = 1;
nodes = (
"764 0 LINE",
"764 83 LINE",
"584 83 LINE",
"685 120 OFFCURVE",
"738 218 OFFCURVE",
"738 361 CURVE SMOOTH",
"738 583 OFFCURVE",
"609 715 OFFCURVE",
"396 715 CURVE SMOOTH",
"182 715 OFFCURVE",
"52 580 OFFCURVE",
"52 358 CURVE SMOOTH",
"52 135 OFFCURVE",
"182 0 OFFCURVE",
"396 0 CURVE SMOOTH"
);
},
{
closed = 1;
nodes = (
"232 83 OFFCURVE",
"145 178 OFFCURVE",
"145 358 CURVE SMOOTH",
"145 537 OFFCURVE",
"232 632 OFFCURVE",
"396 632 CURVE SMOOTH",
"559 632 OFFCURVE",
"645 537 OFFCURVE",
"645 358 CURVE SMOOTH",
"645 178 OFFCURVE",
"559 83 OFFCURVE",
"396 83 CURVE SMOOTH"
);
}
);
width = 816;
},
{
layerId = m003;
paths = (
{
closed = 1;
nodes = (
"703 0 LINE",
"703 24 LINE",
"480 24 LINE",
"612 66 OFFCURVE",
"681 183 OFFCURVE",
"681 356 CURVE SMOOTH",
"681 579 OFFCURVE",
"563 715 OFFCURVE",
"368 715 CURVE SMOOTH",
"174 715 OFFCURVE",
"56 580 OFFCURVE",
"56 358 CURVE SMOOTH",
"56 135 OFFCURVE",
"174 0 OFFCURVE",
"368 0 CURVE SMOOTH"
);
},
{
closed = 1;
nodes = (
"189 24 OFFCURVE",
"82 150 OFFCURVE",
"82 358 CURVE SMOOTH",
"82 565 OFFCURVE",
"190 691 OFFCURVE",
"368 691 CURVE SMOOTH",
"547 691 OFFCURVE",
"655 565 OFFCURVE",
"655 358 CURVE SMOOTH",
"655 150 OFFCURVE",
"546 24 OFFCURVE",
"367 24 CURVE SMOOTH"
);
}
);
width = 759;
},
{
associatedMasterId = "1BF19B54-F320-4FA0-AF52-273918486B89";
layerId = "9CD56D1E-3199-4A1F-8682-33FDB4A8DCBA";
name = "25. März 22, 15:07";
paths = (
{
closed = 1;
nodes = (
"822 0 LINE",
"822 170 LINE",
"642 170 LINE",
"693 186 OFFCURVE",
"776 248 OFFCURVE",
"776 381 CURVE SMOOTH",
"776 547 OFFCURVE",
"653 715 OFFCURVE",
"405 715 CURVE SMOOTH",
"173 715 OFFCURVE",
"30 569 OFFCURVE",
"30 358 CURVE SMOOTH",
"30 145 OFFCURVE",
"163 0 OFFCURVE",
"404 0 CURVE SMOOTH"
);
},
{
closed = 1;
nodes = (
"240 464 OFFCURVE",
"305 530 OFFCURVE",
"404 530 CURVE SMOOTH",
"502 530 OFFCURVE",
"566 464 OFFCURVE",
"566 358 CURVE SMOOTH",
"566 250 OFFCURVE",
"502 185 OFFCURVE",
"404 185 CURVE SMOOTH",
"305 185 OFFCURVE",
"240 250 OFFCURVE",
"240 358 CURVE SMOOTH"
);
}
);
width = 852;
},
{
layerId = "1BF19B54-F320-4FA0-AF52-273918486B89";
name = "Ultra Black";
paths = (
{
closed = 1;
nodes = (
"825 0 LINE",
"825 170 LINE",
"635 170 LINE",
"729 195 OFFCURVE",
"779 268 OFFCURVE",
"779 389 CURVE SMOOTH",
"779 589 OFFCURVE",
"639 715 OFFCURVE",
"408 715 CURVE SMOOTH",
"174 715 OFFCURVE",
"33 580 OFFCURVE",
"33 358 CURVE SMOOTH",
"33 135 OFFCURVE",
"174 0 OFFCURVE",
"407 0 CURVE SMOOTH"
);
},
{
closed = 1;
nodes = (
"300 185 OFFCURVE",
"243 245 OFFCURVE",
"243 358 CURVE SMOOTH",
"243 471 OFFCURVE",
"300 530 OFFCURVE",
"407 530 CURVE SMOOTH",
"513 530 OFFCURVE",
"569 471 OFFCURVE",
"569 358 CURVE SMOOTH",
"569 245 OFFCURVE",
"513 185 OFFCURVE",
"407 185 CURVE SMOOTH"
);
}
);
width = 858;
},
{
layerId = "2146FA84-FF4E-4FEC-ADE7-E3206BD202A0";
name = "Ultra Black";
paths = (
{
closed = 1;
nodes = (
"799 0 LINE",
"823 170 LINE",
"633 170 LINE",
"761 203 OFFCURVE",
"811 321 OFFCURVE",
"811 435 CURVE SMOOTH",
"811 612 OFFCURVE",
"691 715 OFFCURVE",
"482 715 CURVE SMOOTH",
"208 715 OFFCURVE",
"52 527 OFFCURVE",
"52 305 CURVE SMOOTH",
"52 109 OFFCURVE",
"172 0 OFFCURVE",
"381 0 CURVE SMOOTH"
);
},
{
closed = 1;
nodes = (
"313 185 OFFCURVE",
"264 231 OFFCURVE",
"264 328 CURVE SMOOTH",
"264 428 OFFCURVE",
"317 530 OFFCURVE",
"455 530 CURVE SMOOTH",
"548 530 OFFCURVE",
"596 485 OFFCURVE",
"596 388 CURVE SMOOTH",
"596 287 OFFCURVE",
"542 185 OFFCURVE",
"407 185 CURVE SMOOTH"
);
}
);
width = 874;
},
{
layerId = "C724B7CD-248E-4D7B-8006-7CFF52EADE8B";
paths = (
{
closed = 1;
nodes = (
"727 0 LINE",
"738 83 LINE",
"558 83 LINE",
"720 139 OFFCURVE",
"756 325 OFFCURVE",
"756 430 CURVE SMOOTH",
"756 611 OFFCURVE",
"648 715 OFFCURVE",
"459 715 CURVE SMOOTH",
"197 715 OFFCURVE",
"60 513 OFFCURVE",
"60 298 CURVE SMOOTH",
"60 107 OFFCURVE",
"169 0 OFFCURVE",
"359 0 CURVE SMOOTH"
);
},
{
closed = 1;
nodes = (
"227 83 OFFCURVE",
"153 155 OFFCURVE",
"153 307 CURVE SMOOTH",
"153 473 OFFCURVE",
"241 632 OFFCURVE",
"448 632 CURVE SMOOTH",
"590 632 OFFCURVE",
"663 560 OFFCURVE",
"663 409 CURVE SMOOTH",
"663 243 OFFCURVE",
"576 83 OFFCURVE",
"370 83 CURVE SMOOTH"
);
}
);
width = 810;
},
{
layerId = "747A76F5-4D21-4F4C-BD8F-BF7AFE68B107";
paths = (
{
closed = 1;
nodes = (
"679 0 LINE",
"682 24 LINE",
"459 24 LINE",
"638 79 OFFCURVE",
"713 257 OFFCURVE",
"713 420 CURVE SMOOTH",
"713 607 OFFCURVE",
"615 715 OFFCURVE",
"444 715 CURVE SMOOTH",
"201 715 OFFCURVE",
"76 507 OFFCURVE",
"76 294 CURVE SMOOTH",
"76 107 OFFCURVE",
"174 0 OFFCURVE",
"344 0 CURVE SMOOTH"
);
},
{
closed = 1;
nodes = (
"190 24 OFFCURVE",
"103 121 OFFCURVE",
"103 294 CURVE SMOOTH",
"103 491 OFFCURVE",
"216 691 OFFCURVE",
"441 691 CURVE SMOOTH",
"598 691 OFFCURVE",
"686 594 OFFCURVE",
"686 421 CURVE SMOOTH",
"686 220 OFFCURVE",
"569 24 OFFCURVE",
"346 24 CURVE SMOOTH"
);
}
);
width = 779;
},
{
associatedMasterId = m003;
layerId = "C13410AC-2655-4AD1-BB3A-E32FD0A1FFE3";
name = "4. Nov. 22, 16:46";
paths = (
{
closed = 1;
nodes = (
"703 0 LINE",
"703 24 LINE",
"480 24 LINE",
"580 56 OFFCURVE",
"681 169 OFFCURVE",
"681 359 CURVE SMOOTH",
"681 561 OFFCURVE",
"574 715 OFFCURVE",
"368 715 CURVE SMOOTH",
"167 715 OFFCURVE",
"56 569 OFFCURVE",
"56 358 CURVE SMOOTH",
"56 145 OFFCURVE",
"167 0 OFFCURVE",
"368 0 CURVE SMOOTH"
);
},
{
closed = 1;
nodes = (
"190 24 OFFCURVE",
"82 154 OFFCURVE",
"82 358 CURVE SMOOTH",
"82 560 OFFCURVE",
"186 691 OFFCURVE",
"368 691 CURVE SMOOTH",
"553 691 OFFCURVE",
"655 556 OFFCURVE",
"655 358 CURVE SMOOTH",
"655 157 OFFCURVE",
"546 24 OFFCURVE",
"367 24 CURVE SMOOTH"
);
}
);
width = 759;
},
{
associatedMasterId = "AAB0E2D1-7A47-467B-B788-A2CC53DD9722";
layerId = "12AD6449-2DCD-4EBB-AF2C-822E414425D6";
name = "4. Nov. 22, 16:47";
paths = (
{
closed = 1;
nodes = (
"764 0 LINE",
"764 83 LINE",
"584 83 LINE",
"680 118 OFFCURVE",
"738 224 OFFCURVE",
"738 367 CURVE SMOOTH",
"738 583 OFFCURVE",
"609 715 OFFCURVE",
"396 715 CURVE SMOOTH",
"182 715 OFFCURVE",
"52 580 OFFCURVE",
"52 358 CURVE SMOOTH",
"52 135 OFFCURVE",
"182 0 OFFCURVE",
"396 0 CURVE SMOOTH"
);
},
{
closed = 1;
nodes = (
"232 83 OFFCURVE",
"145 178 OFFCURVE",
"145 358 CURVE SMOOTH",
"145 537 OFFCURVE",
"232 632 OFFCURVE",
"396 632 CURVE SMOOTH",
"559 632 OFFCURVE",
"645 537 OFFCURVE",
"645 358 CURVE SMOOTH",
"645 178 OFFCURVE",
"559 83 OFFCURVE",
"396 83 CURVE SMOOTH"
);
}
);
width = 816;
},
{
associatedMasterId = "2146FA84-FF4E-4FEC-ADE7-E3206BD202A0";
layerId = "B809E8CB-3B7C-474C-B55E-F5201DC01FD2";
name = "22. Nov. 22, 16:58";
paths = (
{
closed = 1;
nodes = (
"798 0 LINE",
"822 170 LINE",
"632 170 LINE",
"749 198 OFFCURVE",
"808 311 OFFCURVE",
"808 430 CURVE SMOOTH",
"808 579 OFFCURVE",
"705 715 OFFCURVE",
"481 715 CURVE SMOOTH",
"211 715 OFFCURVE",
"51 520 OFFCURVE",
"51 293 CURVE SMOOTH",
"51 116 OFFCURVE",
"164 0 OFFCURVE",
"380 0 CURVE SMOOTH"
);
},
{
closed = 1;
nodes = (
"318 185 OFFCURVE",
"264 237 OFFCURVE",
"264 325 CURVE SMOOTH",
"264 432 OFFCURVE",
"332 530 OFFCURVE",
"454 530 CURVE SMOOTH",
"541 530 OFFCURVE",
"594 478 OFFCURVE",
"594 391 CURVE SMOOTH",
"594 287 OFFCURVE",
"530 185 OFFCURVE",
"406 185 CURVE SMOOTH"
);
}
);
width = 873;
},
{
associatedMasterId = "C724B7CD-248E-4D7B-8006-7CFF52EADE8B";
layerId = "E048FFF5-FE45-4BA3-A1FE-62E5F3086DB0";
name = "22. Nov. 22, 16:59";
paths = (
{
closed = 1;
nodes = (
"727 0 LINE",
"738 83 LINE",
"558 83 LINE",
"688 144 OFFCURVE",
"756 279 OFFCURVE",
"756 416 CURVE SMOOTH",
"756 585 OFFCURVE",
"653 715 OFFCURVE",
"456 715 CURVE SMOOTH",
"205 715 OFFCURVE",
"60 526 OFFCURVE",
"60 300 CURVE SMOOTH",
"60 117 OFFCURVE",
"162 0 OFFCURVE",
"359 0 CURVE SMOOTH"
);
},
{
closed = 1;
nodes = (
"236 83 OFFCURVE",
"154 170 OFFCURVE",
"154 312 CURVE SMOOTH",
"154 478 OFFCURVE",
"269 632 OFFCURVE",
"448 632 CURVE SMOOTH",
"582 632 OFFCURVE",
"662 544 OFFCURVE",
"662 405 CURVE SMOOTH",
"662 242 OFFCURVE",
"554 83 OFFCURVE",
"370 83 CURVE SMOOTH"
);
}
);
width = 810;
}
);
leftKerningGroup = LeftUpO;
leftMetricsKey = O;
rightMetricsKey = O;
},
{
glyphname = R.ss02;
lastChange = "2025-01-09 16:19:00 +0000";
layers = (
{
layerId = "1BF19B54-F320-4FA0-AF52-273918486B89";
paths = (
{
closed = 1;
nodes = (
"675 0 LINE",
"614 186 LINE SMOOTH",
"594 248 OFFCURVE",
"556 286 OFFCURVE",
"497 301 CURVE",
"600 326 OFFCURVE",
"650 388 OFFCURVE",
"650 489 CURVE SMOOTH",
"650 640 OFFCURVE",
"529 700 OFFCURVE",
"383 700 CURVE SMOOTH",
"142 700 LINE",
"142 523 LINE",
"366 523 LINE SMOOTH",
"416 523 OFFCURVE",
"440 505 OFFCURVE",
"440 467 CURVE SMOOTH",
"440 429 OFFCURVE",
"416 410 OFFCURVE",
"366 410 CURVE SMOOTH",
"142 410 LINE",
"142 233 LINE",
"314 233 LINE SMOOTH",
"370 233 OFFCURVE",
"386 217 OFFCURVE",
"397 181 CURVE SMOOTH",
"453 0 LINE"
);
},
{
closed = 1;
nodes = (
"263 0 LINE",
"263 700 LINE",
"55 700 LINE",
"55 0 LINE"
);
}
);
width = 686;
},
{
layerId = "AAB0E2D1-7A47-467B-B788-A2CC53DD9722";
paths = (
{
closed = 1;
nodes = (
"629 0 LINE",
"515 237 LINE SMOOTH",
"501 267 OFFCURVE",
"476 302 OFFCURVE",
"434 309 CURVE",
"544 333 OFFCURVE",
"586 405 OFFCURVE",
"586 495 CURVE SMOOTH",
"586 626 OFFCURVE",
"500 700 OFFCURVE",
"336 700 CURVE SMOOTH",
"106 700 LINE",
"106 619 LINE",
"339 619 LINE SMOOTH",
"445 619 OFFCURVE",
"493 577 OFFCURVE",
"493 486 CURVE SMOOTH",
"493 394 OFFCURVE",
"445 352 OFFCURVE",
"339 352 CURVE SMOOTH",
"106 352 LINE",
"106 271 LINE",
"328 271 LINE SMOOTH",
"388 271 OFFCURVE",
"414 247 OFFCURVE",
"432 210 CURVE SMOOTH",
"535 0 LINE"
);
},
{
closed = 1;
nodes = (
"166 0 LINE",
"166 700 LINE",
"78 700 LINE",
"78 0 LINE"
);
}
);
width = 659;
},
{
layerId = m003;
paths = (
{
closed = 1;
nodes = (
"566 0 LINE",
"466 241 LINE SMOOTH",
"450 280 OFFCURVE",
"432 312 OFFCURVE",
"372 320 CURVE",
"472 338 OFFCURVE",
"517 408 OFFCURVE",
"517 506 CURVE SMOOTH",
"517 633 OFFCURVE",
"441 700 OFFCURVE",
"301 700 CURVE SMOOTH",
"90 700 LINE",
"90 678 LINE",
"299 678 LINE SMOOTH",
"426 678 OFFCURVE",
"491 620 OFFCURVE",
"491 504 CURVE SMOOTH",
"491 388 OFFCURVE",
"426 330 OFFCURVE",
"299 330 CURVE SMOOTH",
"90 330 LINE",
"90 308 LINE",
"303 308 LINE SMOOTH",
"398 308 OFFCURVE",
"418 291 OFFCURVE",
"441 236 CURVE SMOOTH",
"541 0 LINE"
);
},
{
closed = 1;
nodes = (
"108 0 LINE",
"108 700 LINE",
"84 700 LINE",
"84 0 LINE"
);
}
);
width = 596;
},
{
layerId = "2146FA84-FF4E-4FEC-ADE7-E3206BD202A0";
paths = (
{
closed = 1;
nodes = (
"648 0 LINE",
"613 186 LINE SMOOTH",
"602 248 OFFCURVE",
"568 286 OFFCURVE",
"509 301 CURVE",
"646 333 OFFCURVE",
"692 428 OFFCURVE",
"692 515 CURVE SMOOTH",
"692 649 OFFCURVE",
"585 700 OFFCURVE",
"451 700 CURVE SMOOTH",
"210 700 LINE",
"185 523 LINE",
"409 523 LINE SMOOTH",
"454 523 OFFCURVE",
"476 509 OFFCURVE",
"476 473 CURVE SMOOTH",
"476 433 OFFCURVE",
"448 410 OFFCURVE",
"393 410 CURVE SMOOTH",
"169 410 LINE",
"145 233 LINE",
"317 233 LINE SMOOTH",
"373 233 OFFCURVE",
"386 217 OFFCURVE",
"392 181 CURVE SMOOTH",
"423 0 LINE"
);
},
{
closed = 1;
nodes = (
"233 0 LINE",
"331 700 LINE",
"123 700 LINE",
"25 0 LINE"
);
}
);
width = 718;
},
{
layerId = "C724B7CD-248E-4D7B-8006-7CFF52EADE8B";
paths = (
{
closed = 1;
nodes = (
"588 0 LINE",
"507 237 LINE SMOOTH",
"497 267 OFFCURVE",
"477 302 OFFCURVE",
"436 309 CURVE",
"572 338 OFFCURVE",
"617 437 OFFCURVE",
"617 525 CURVE SMOOTH",
"617 640 OFFCURVE",
"541 700 OFFCURVE",
"393 700 CURVE SMOOTH",
"163 700 LINE",
"152 619 LINE",
"385 619 LINE SMOOTH",
"479 619 OFFCURVE",
"522 586 OFFCURVE",
"522 505 CURVE SMOOTH",
"522 424 OFFCURVE",
"479 352 OFFCURVE",
"347 352 CURVE SMOOTH",
"114 352 LINE",
"103 271 LINE",
"325 271 LINE SMOOTH",
"385 271 OFFCURVE",
"408 247 OFFCURVE",
"420 210 CURVE SMOOTH",
"494 0 LINE"
);
},
{
closed = 1;
nodes = (
"125 0 LINE",
"223 700 LINE",
"135 700 LINE",
"37 0 LINE"
);
}
);
width = 653;
},
{
layerId = "747A76F5-4D21-4F4C-BD8F-BF7AFE68B107";
paths = (
{
closed = 1;
nodes = (
"532 0 LINE",
"466 241 LINE SMOOTH",
"455 280 OFFCURVE",
"442 312 OFFCURVE",
"383 320 CURVE",
"508 342 OFFCURVE",
"557 444 OFFCURVE",
"557 538 CURVE SMOOTH",
"557 647 OFFCURVE",
"490 700 OFFCURVE",
"365 700 CURVE SMOOTH",
"154 700 LINE",
"151 678 LINE",
"360 678 LINE SMOOTH",
"473 678 OFFCURVE",
"531 632 OFFCURVE",
"531 530 CURVE SMOOTH",
"531 424 OFFCURVE",
"468 330 OFFCURVE",
"311 330 CURVE SMOOTH",
"102 330 LINE",
"99 308 LINE",
"312 308 LINE SMOOTH",
"407 308 OFFCURVE",
"425 291 OFFCURVE",
"440 236 CURVE SMOOTH",
"507 0 LINE"
);
},
{
closed = 1;
nodes = (
"74 0 LINE",
"172 700 LINE",
"148 700 LINE",
"50 0 LINE"
);
}
);
width = 597;
},
{
associatedMasterId = "1BF19B54-F320-4FA0-AF52-273918486B89";
layerId = "5DB0670F-556E-4285-9BAC-9754C58B7F5D";
name = "2. Dez. 22, 12:20";
paths = (
{
closed = 1;
nodes = (
"363 233 LINE SMOOTH",
"498 233 OFFCURVE",
"650 300 OFFCURVE",
"650 479 CURVE SMOOTH",
"650 640 OFFCURVE",
"529 700 OFFCURVE",
"383 700 CURVE SMOOTH",
"142 700 LINE",
"142 523 LINE",
"366 523 LINE SMOOTH",
"416 523 OFFCURVE",
"440 505 OFFCURVE",
"440 467 CURVE SMOOTH",
"440 429 OFFCURVE",
"416 410 OFFCURVE",
"366 410 CURVE SMOOTH",
"142 410 LINE",
"142 233 LINE"
);
},
{
closed = 1;
nodes = (
"263 0 LINE",
"263 700 LINE",
"55 700 LINE",
"55 0 LINE"
);
},
{
closed = 1;
nodes = (
"594 248 OFFCURVE",
"566 277 OFFCURVE",
"482 289 CURVE",
"314 233 LINE",
"370 233 OFFCURVE",
"386 217 OFFCURVE",
"397 181 CURVE SMOOTH",
"453 0 LINE",
"675 0 LINE",
"623 159 LINE SMOOTH"
);
}
);
width = 686;
},
{
associatedMasterId = "1BF19B54-F320-4FA0-AF52-273918486B89";
layerId = "F80AF21F-6578-421D-B745-0F97E5C2A447";
name = "2. Dez. 22, 12:21";
paths = (
{
closed = 1;
nodes = (
"314 233 LINE SMOOTH",
"370 233 OFFCURVE",
"386 217 OFFCURVE",
"397 181 CURVE SMOOTH",
"453 0 LINE",
"675 0 LINE",
"623 159 LINE SMOOTH",
"598 235 OFFCURVE",
"580 275 OFFCURVE",
"537 296 CURVE",
"602 330 OFFCURVE",
"650 389 OFFCURVE",
"650 485 CURVE SMOOTH",
"650 640 OFFCURVE",
"529 700 OFFCURVE",
"383 700 CURVE SMOOTH",
"142 700 LINE",
"142 523 LINE",
"366 523 LINE SMOOTH",
"416 523 OFFCURVE",
"440 505 OFFCURVE",
"440 467 CURVE SMOOTH",
"440 429 OFFCURVE",
"416 410 OFFCURVE",
"366 410 CURVE SMOOTH",
"142 410 LINE",
"142 233 LINE"
);
},
{
closed = 1;
nodes = (
"263 0 LINE",
"263 700 LINE",
"55 700 LINE",
"55 0 LINE"
);
}
);
width = 686;
},
{
associatedMasterId = "AAB0E2D1-7A47-467B-B788-A2CC53DD9722";
layerId = "0775C0F5-E93E-4E77-BB8A-46847FCA0ED0";
name = "2. Dez. 22, 12:26";
paths = (
{
closed = 1;
nodes = (
"316 271 LINE",
"318 271 LINE SMOOTH",
"400 271 OFFCURVE",
"423 256 OFFCURVE",
"437 210 CURVE SMOOTH",
"502 0 LINE",
"596 0 LINE",
"523 229 LINE SMOOTH",
"512 263 OFFCURVE",
"496 287 OFFCURVE",
"472 304 CURVE",
"539 339 OFFCURVE",
"576 403 OFFCURVE",
"576 491 CURVE SMOOTH",
"576 626 OFFCURVE",
"490 700 OFFCURVE",
"326 700 CURVE SMOOTH",
"106 700 LINE",
"106 619 LINE",
"329 619 LINE SMOOTH",
"435 619 OFFCURVE",
"483 577 OFFCURVE",
"483 486 CURVE SMOOTH",
"483 394 OFFCURVE",
"435 352 OFFCURVE",
"329 352 CURVE SMOOTH",
"106 352 LINE",
"106 271 LINE"
);
},
{
closed = 1;
nodes = (
"166 0 LINE",
"166 700 LINE",
"78 700 LINE",
"78 0 LINE"
);
}
);
width = 626;
},
{
associatedMasterId = "2146FA84-FF4E-4FEC-ADE7-E3206BD202A0";
layerId = "3523E622-CE43-40A7-84D3-F88D2F430789";
name = "2. Dez. 22, 12:33";
paths = (
{
closed = 1;
nodes = (
"366 233 LINE SMOOTH",
"547 233 OFFCURVE",
"690 345 OFFCURVE",
"690 509 CURVE SMOOTH",
"690 650 OFFCURVE",
"584 700 OFFCURVE",
"451 700 CURVE SMOOTH",
"210 700 LINE",
"185 523 LINE",
"409 523 LINE SMOOTH",
"454 523 OFFCURVE",
"476 509 OFFCURVE",
"476 473 CURVE SMOOTH",
"476 433 OFFCURVE",
"448 410 OFFCURVE",
"393 410 CURVE SMOOTH",
"169 410 LINE",
"145 233 LINE"
);
},
{
closed = 1;
nodes = (
"233 0 LINE",
"331 700 LINE",
"123 700 LINE",
"25 0 LINE"
);
},
{
closed = 1;
nodes = (
"645 0 LINE",
"615 159 LINE SMOOTH",
"599 248 OFFCURVE",
"575 277 OFFCURVE",
"492 289 CURVE",
"317 233 LINE",
"373 233 OFFCURVE",
"386 217 OFFCURVE",
"392 181 CURVE SMOOTH",
"423 0 LINE"
);
}
);
width = 715;
},
{
associatedMasterId = "C724B7CD-248E-4D7B-8006-7CFF52EADE8B";
layerId = "8DDB98EB-FE0E-42D1-995C-7B357CB22398";
name = "2. Dez. 22, 12:34";
paths = (
{
closed = 1;
nodes = (
"555 0 LINE",
"514 229 LINE SMOOTH",
"508 263 OFFCURVE",
"495 287 OFFCURVE",
"473 304 CURVE",
"558 345 OFFCURVE",
"607 422 OFFCURVE",
"607 520 CURVE SMOOTH",
"607 640 OFFCURVE",
"531 700 OFFCURVE",
"383 700 CURVE SMOOTH",
"163 700 LINE",
"152 619 LINE",
"375 619 LINE SMOOTH",
"469 619 OFFCURVE",
"512 586 OFFCURVE",
"512 506 CURVE SMOOTH",
"512 424 OFFCURVE",
"469 352 OFFCURVE",
"337 352 CURVE SMOOTH",
"114 352 LINE",
"103 271 LINE",
"315 271 LINE SMOOTH",
"397 271 OFFCURVE",
"418 256 OFFCURVE",
"425 210 CURVE SMOOTH",
"461 0 LINE"
);
},
{
closed = 1;
nodes = (
"125 0 LINE",
"223 700 LINE",
"135 700 LINE",
"37 0 LINE"
);
}
);
width = 620;
},
{
associatedMasterId = "747A76F5-4D21-4F4C-BD8F-BF7AFE68B107";
layerId = "443B39A7-F4E8-4548-BBEE-80E1413390EB";
name = "2. Dez. 22, 12:37";
paths = (
{
closed = 1;
nodes = (
"512 0 LINE",
"469 230 LINE SMOOTH",
"459 282 OFFCURVE",
"441 308 OFFCURVE",
"403 321 CURVE",
"510 353 OFFCURVE",
"557 443 OFFCURVE",
"557 536 CURVE SMOOTH",
"557 647 OFFCURVE",
"490 700 OFFCURVE",
"365 700 CURVE SMOOTH",
"154 700 LINE",
"151 678 LINE",
"360 678 LINE SMOOTH",
"473 678 OFFCURVE",
"531 632 OFFCURVE",
"531 531 CURVE SMOOTH",
"531 424 OFFCURVE",
"468 330 OFFCURVE",
"311 330 CURVE SMOOTH",
"102 330 LINE",
"99 308 LINE",
"312 308 LINE SMOOTH",
"407 308 OFFCURVE",
"432 293 OFFCURVE",
"447 211 CURVE SMOOTH",
"487 0 LINE"
);
},
{
closed = 1;
nodes = (
"74 0 LINE",
"172 700 LINE",
"148 700 LINE",
"50 0 LINE"
);
}
);
width = 577;
},
{
associatedMasterId = "AAB0E2D1-7A47-467B-B788-A2CC53DD9722";
layerId = "2D83C584-FA53-47C0-B917-4A8CE4B176CD";
name = "3. Dez. 22, 14:30";
paths = (
{
closed = 1;
nodes = (
"609 0 LINE",
"539 229 LINE SMOOTH",
"527 270 OFFCURVE",
"496 300 OFFCURVE",
"454 309 CURVE",
"549 343 OFFCURVE",
"586 405 OFFCURVE",
"586 492 CURVE SMOOTH",
"586 626 OFFCURVE",
"500 700 OFFCURVE",
"336 700 CURVE SMOOTH",
"106 700 LINE",
"106 619 LINE",
"339 619 LINE SMOOTH",
"445 619 OFFCURVE",
"493 577 OFFCURVE",
"493 486 CURVE SMOOTH",
"493 394 OFFCURVE",
"445 352 OFFCURVE",
"339 352 CURVE SMOOTH",
"106 352 LINE",
"106 271 LINE",
"348 271 LINE SMOOTH",
"408 271 OFFCURVE",
"440 250 OFFCURVE",
"452 210 CURVE SMOOTH",
"515 0 LINE"
);
},
{
closed = 1;
nodes = (
"166 0 LINE",
"166 700 LINE",
"78 700 LINE",
"78 0 LINE"
);
}
);
width = 639;
},
{
associatedMasterId = "C724B7CD-248E-4D7B-8006-7CFF52EADE8B";
layerId = "9D61A428-6AB8-43C1-BD02-FE5659868D74";
name = "3. Dez. 22, 14:34";
paths = (
{
closed = 1;
nodes = (
"570 0 LINE",
"532 229 LINE SMOOTH",
"526 270 OFFCURVE",
"498 300 OFFCURVE",
"456 309 CURVE",
"580 351 OFFCURVE",
"617 440 OFFCURVE",
"617 523 CURVE SMOOTH",
"617 640 OFFCURVE",
"541 700 OFFCURVE",
"393 700 CURVE SMOOTH",
"163 700 LINE",
"152 619 LINE",
"385 619 LINE SMOOTH",
"479 619 OFFCURVE",
"522 586 OFFCURVE",
"522 506 CURVE SMOOTH",
"522 424 OFFCURVE",
"479 352 OFFCURVE",
"347 352 CURVE SMOOTH",
"114 352 LINE",
"103 271 LINE",
"345 271 LINE SMOOTH",
"405 271 OFFCURVE",
"434 250 OFFCURVE",
"440 210 CURVE SMOOTH",
"474 0 LINE"
);
},
{
closed = 1;
nodes = (
"125 0 LINE",
"223 700 LINE",
"135 700 LINE",
"37 0 LINE"
);
}
);
width = 635;
},
{
associatedMasterId = "747A76F5-4D21-4F4C-BD8F-BF7AFE68B107";
layerId = "DD067A74-BEA3-434F-BF15-BF411CF9A49C";
name = "3. Dez. 22, 14:34";
paths = (
{
closed = 1;
nodes = (
"512 0 LINE",
"469 230 LINE SMOOTH",
"459 282 OFFCURVE",
"442 312 OFFCURVE",
"383 320 CURVE",
"509 343 OFFCURVE",
"557 445 OFFCURVE",
"557 538 CURVE SMOOTH",
"557 647 OFFCURVE",
"490 700 OFFCURVE",
"365 700 CURVE SMOOTH",
"154 700 LINE",
"151 678 LINE",
"360 678 LINE SMOOTH",
"473 678 OFFCURVE",
"531 632 OFFCURVE",
"531 530 CURVE SMOOTH",
"531 424 OFFCURVE",
"468 330 OFFCURVE",
"311 330 CURVE SMOOTH",
"102 330 LINE",
"99 308 LINE",
"312 308 LINE SMOOTH",
"407 308 OFFCURVE",
"432 293 OFFCURVE",
"447 211 CURVE SMOOTH",
"487 0 LINE"
);
},
{
closed = 1;
nodes = (
"74 0 LINE",
"172 700 LINE",
"148 700 LINE",
"50 0 LINE"
);
}
);
width = 577;
}
);
leftMetricsKey = R;
rightKerningGroup = rightR;
rightMetricsKey = R;
},
{
glyphname = Z.ss03;
lastChange = "2025-01-09 16:19:00 +0000";
layers = (
{
guideLines = (
{
angle = 221.1054;
position = "{188, 348}";
},
{
angle = 41.2667;
position = "{448, 352}";
}
);
layerId = "1BF19B54-F320-4FA0-AF52-273918486B89";
paths = (
{
closed = 1;
nodes = (
"637 0 LINE",
"637 208 LINE",
"257 183 LINE",
"618 501 LINE",
"623 700 LINE",
"32 700 LINE",
"32 492 LINE",
"379 517 LINE",
"16 199 LINE",
"11 0 LINE"
);
}
);
width = 648;
},
{
guideLines = (
{
angle = 230.8239;
position = "{227, 350}";
},
{
angle = 50.7583;
position = "{331, 350}";
}
);
layerId = "AAB0E2D1-7A47-467B-B788-A2CC53DD9722";
paths = (
{
closed = 1;
nodes = (
"559 0 LINE",
"559 88 LINE",
"101 68 LINE",
"545 612 LINE",
"545 700 LINE",
"34 700 LINE",
"34 612 LINE",
"458 632 LINE",
"13 88 LINE",
"13 0 LINE"
);
}
);
width = 572;
},
{
guideLines = (
{
angle = 234.0665;
position = "{258, 351}";
},
{
angle = 54.0665;
position = "{286, 349}";
}
);
layerId = m003;
paths = (
{
closed = 1;
nodes = (
"537 0 LINE",
"537 22 LINE",
"42 12 LINE",
"523 676 LINE",
"523 700 LINE",
"42 700 LINE",
"42 678 LINE",
"502 688 LINE",
"21 24 LINE",
"21 0 LINE"
);
}
);
width = 558;
},
{
layerId = "2146FA84-FF4E-4FEC-ADE7-E3206BD202A0";
paths = (
{
closed = 1;
nodes = (
"601 0 LINE",
"630 208 LINE",
"247 183 LINE",
"652 501 LINE",
"685 700 LINE",
"94 700 LINE",
"65 492 LINE",
"415 517 LINE",
"8 199 LINE",
"-25 0 LINE"
);
}
);
width = 646;
},
{
layerId = "C724B7CD-248E-4D7B-8006-7CFF52EADE8B";
paths = (
{
closed = 1;
nodes = (
"521 0 LINE",
"533 88 LINE",
"72 68 LINE",
"593 612 LINE",
"605 700 LINE",
"94 700 LINE",
"82 612 LINE",
"509 632 LINE",
"-13 88 LINE",
"-25 0 LINE"
);
}
);
width = 566;
},
{
layerId = "747A76F5-4D21-4F4C-BD8F-BF7AFE68B107";
paths = (
{
closed = 1;
nodes = (
"511 0 LINE",
"514 22 LINE",
"17 12 LINE",
"592 676 LINE",
"595 700 LINE",
"114 700 LINE",
"111 678 LINE",
"573 688 LINE",
"-2 24 LINE",
"-5 0 LINE"
);
}
);
width = 576;
}
);
leftMetricsKey = Z;
rightMetricsKey = Z;
},
{
glyphname = F.ss04;
lastChange = "2025-01-09 16:19:00 +0000";
layers = (
{
layerId = "1BF19B54-F320-4FA0-AF52-273918486B89";
paths = (
{
closed = 1;
nodes = (
"443 0 LINE",
"443 690 LINE",
"235 690 LINE",
"235 0 LINE"
);
},
{
closed = 1;
nodes = (
"656 263 LINE",
"656 438 LINE",
"22 438 LINE",
"22 263 LINE"
);
},
{
closed = 1;
nodes = (
"656 525 LINE",
"656 700 LINE",
"22 700 LINE",
"22 525 LINE"
);
}
);
width = 678;
},
{
layerId = "AAB0E2D1-7A47-467B-B788-A2CC53DD9722";
paths = (
{
closed = 1;
nodes = (
"356 0 LINE",
"356 690 LINE",
"268 690 LINE",
"268 0 LINE"
);
},
{
closed = 1;
nodes = (
"599 313 LINE",
"599 394 LINE",
"25 394 LINE",
"25 313 LINE"
);
},
{
closed = 1;
nodes = (
"599 619 LINE",
"599 700 LINE",
"25 700 LINE",
"25 619 LINE"
);
}
);
width = 624;
},
{
layerId = m003;
paths = (
{
closed = 1;
nodes = (
"307 0 LINE",
"307 690 LINE",
"283 690 LINE",
"283 0 LINE"
);
},
{
closed = 1;
nodes = (
"562 347 LINE",
"562 369 LINE",
"28 369 LINE",
"28 347 LINE"
);
},
{
closed = 1;
nodes = (
"562 678 LINE",
"562 700 LINE",
"28 700 LINE",
"28 678 LINE"
);
}
);
width = 590;
},
{
layerId = "2146FA84-FF4E-4FEC-ADE7-E3206BD202A0";
paths = (
{
closed = 1;
nodes = (
"408 0 LINE",
"505 690 LINE",
"297 690 LINE",
"200 0 LINE"
);
},
{
closed = 1;
nodes = (
"658 263 LINE",
"682 438 LINE",
"48 438 LINE",
"24 263 LINE"
);
},
{
closed = 1;
nodes = (
"695 525 LINE",
"719 700 LINE",
"85 700 LINE",
"61 525 LINE"
);
}
);
width = 678;
},
{
layerId = "C724B7CD-248E-4D7B-8006-7CFF52EADE8B";
paths = (
{
closed = 1;
nodes = (
"321 0 LINE",
"418 690 LINE",
"330 690 LINE",
"233 0 LINE"
);
},
{
closed = 1;
nodes = (
"606 313 LINE",
"618 394 LINE",
"44 394 LINE",
"32 313 LINE"
);
},
{
closed = 1;
nodes = (
"651 619 LINE",
"662 700 LINE",
"88 700 LINE",
"77 619 LINE"
);
}
);
width = 624;
},
{
layerId = "747A76F5-4D21-4F4C-BD8F-BF7AFE68B107";
paths = (
{
closed = 1;
nodes = (
"272 0 LINE",
"369 690 LINE",
"345 690 LINE",
"248 0 LINE"
);
},
{
closed = 1;
nodes = (
"576 347 LINE",
"579 369 LINE",
"45 369 LINE",
"42 347 LINE"
);
},
{
closed = 1;
nodes = (
"622 678 LINE",
"625 700 LINE",
"91 700 LINE",
"88 678 LINE"
);
}
);
width = 590;
}
);
},
{
glyphname = A.ss05;
lastChange = "2025-01-09 16:19:00 +0000";
layers = (
{
anchors = (
{
name = bottom;
position = "{376, 0}";
},
{
name = ogonek;
position = "{671, 690}";
},
{
name = top;
position = "{376, 700}";
}
);
layerId = "1BF19B54-F320-4FA0-AF52-273918486B89";
paths = (
{
closed = 1;
nodes = (
"518 0 LINE",
"761 700 LINE",
"540 700 LINE",
"324 0 LINE"
);
},
{
closed = 1;
nodes = (
"419 0 LINE",
"208 700 LINE",
"-10 700 LINE",
"233 0 LINE"
);
},
{
closed = 1;
nodes = (
"564 400 LINE",
"564 575 LINE",
"194 575 LINE",
"194 400 LINE"
);
}
);
width = 751;
},
{
anchors = (
{
name = bottom;
position = "{318, 0}";
},
{
name = ogonek;
position = "{572, 690}";
},
{
name = top;
position = "{318, 700}";
}
);
layerId = "AAB0E2D1-7A47-467B-B788-A2CC53DD9722";
paths = (
{
closed = 1;
nodes = (
"378 0 LINE",
"636 700 LINE",
"540 700 LINE",
"287 0 LINE"
);
},
{
closed = 1;
nodes = (
"344 0 LINE",
"91 700 LINE",
"0 700 LINE",
"258 0 LINE"
);
},
{
closed = 1;
nodes = (
"507 405 LINE",
"507 486 LINE",
"137 486 LINE",
"137 405 LINE"
);
}
);
width = 636;
},
{
anchors = (
{
name = bottom;
position = "{282, 0}";
},
{
name = ogonek;
position = "{508, 690}";
},
{
name = top;
position = "{282, 700}";
}
);
layerId = m003;
paths = (
{
closed = 1;
nodes = (
"296 0 LINE",
"564 700 LINE",
"536 700 LINE",
"270 0 LINE"
);
},
{
closed = 1;
nodes = (
"294 0 LINE",
"28 700 LINE",
"0 700 LINE",
"268 0 LINE"
);
},
{
closed = 1;
nodes = (
"451 441 LINE",
"451 463 LINE",
"111 463 LINE",
"111 441 LINE"
);
}
);
width = 564;
},
{
anchors = (
{
name = bottom;
position = "{340, 0}";
},
{
name = ogonek;
position = "{137, 690}";
},
{
name = top;
position = "{438, 700}";
}
);
layerId = "2146FA84-FF4E-4FEC-ADE7-E3206BD202A0";
paths = (
{
closed = 1;
nodes = (
"483 0 LINE",
"824 700 LINE",
"599 700 LINE",
"290 0 LINE"
);
},
{
closed = 1;
nodes = (
"385 0 LINE",
"267 700 LINE",
"53 700 LINE",
"198 0 LINE"
);
},
{
closed = 1;
nodes = (
"571 400 LINE",
"596 575 LINE",
"226 575 LINE",
"201 400 LINE"
);
}
);
width = 751;
},
{
anchors = (
{
name = bottom;
position = "{280, 0}";
},
{
name = ogonek;
position = "{121, 690}";
},
{
name = top;
position = "{378, 700}";
}
);
layerId = "C724B7CD-248E-4D7B-8006-7CFF52EADE8B";
paths = (
{
closed = 1;
nodes = (
"343 0 LINE",
"699 700 LINE",
"602 700 LINE",
"251 0 LINE"
);
},
{
closed = 1;
nodes = (
"308 0 LINE",
"153 700 LINE",
"63 700 LINE",
"223 0 LINE"
);
},
{
closed = 1;
nodes = (
"515 405 LINE",
"526 486 LINE",
"156 486 LINE",
"145 405 LINE"
);
}
);
width = 641;
},
{
anchors = (
{
name = bottom;
position = "{244, 0}";
},
{
name = ogonek;
position = "{114, 690}";
},
{
name = top;
position = "{342, 700}";
}
);
layerId = "747A76F5-4D21-4F4C-BD8F-BF7AFE68B107";
paths = (
{
closed = 1;
nodes = (
"261 0 LINE",
"627 700 LINE",
"598 700 LINE",
"234 0 LINE"
);
},
{
closed = 1;
nodes = (
"258 0 LINE",
"90 700 LINE",
"63 700 LINE",
"233 0 LINE"
);
},
{
closed = 1;
nodes = (
"479 441 LINE",
"482 463 LINE",
"142 463 LINE",
"139 441 LINE"
);
}
);
width = 569;
}
);
leftKerningGroup = LeftUpV;
leftMetricsKey = A;
rightKerningGroup = RightUpV;
rightMetricsKey = A;
},
{
glyphname = B.ss05;
lastChange = "2025-01-09 16:19:00 +0000";
layers = (
{
layerId = "1BF19B54-F320-4FA0-AF52-273918486B89";
paths = (
{
closed = 1;
nodes = (
"432 0 LINE SMOOTH",
"575 0 OFFCURVE",
"651 63 OFFCURVE",
"651 168 CURVE SMOOTH",
"651 257 OFFCURVE",
"596 307 OFFCURVE",
"493 328 CURVE",
"493 331 LINE",
"614 346 OFFCURVE",
"678 408 OFFCURVE",
"678 511 CURVE SMOOTH",
"678 629 OFFCURVE",
"595 700 OFFCURVE",
"437 700 CURVE SMOOTH",
"139 700 LINE",
"139 523 LINE",
"397 523 LINE SMOOTH",
"445 523 OFFCURVE",
"467 506 OFFCURVE",
"467 469 CURVE SMOOTH",
"467 433 OFFCURVE",
"441 417 OFFCURVE",
"385 417 CURVE SMOOTH",
"139 417 LINE",
"139 280 LINE",
"358 280 LINE SMOOTH",
"414 280 OFFCURVE",
"440 264 OFFCURVE",
"440 228 CURVE SMOOTH",
"440 193 OFFCURVE",
"419 177 OFFCURVE",
"373 177 CURVE SMOOTH",
"139 177 LINE",
"139 0 LINE"
);
},
{
closed = 1;
nodes = (
"263 0 LINE",
"263 700 LINE",
"55 700 LINE",
"55 0 LINE"
);
}
);
width = 686;
},
{
layerId = "AAB0E2D1-7A47-467B-B788-A2CC53DD9722";
paths = (
{
closed = 1;
nodes = (
"388 0 LINE SMOOTH",
"519 0 OFFCURVE",
"595 61 OFFCURVE",
"595 177 CURVE SMOOTH",
"595 259 OFFCURVE",
"554 306 OFFCURVE",
"466 329 CURVE",
"466 331 LINE",
"573 350 OFFCURVE",
"622 409 OFFCURVE",
"622 505 CURVE SMOOTH",
"622 633 OFFCURVE",
"538 700 OFFCURVE",
"393 700 CURVE SMOOTH",
"102 700 LINE",
"102 619 LINE",
"390 619 LINE SMOOTH",
"481 619 OFFCURVE",
"529 578 OFFCURVE",
"529 500 CURVE SMOOTH",
"529 420 OFFCURVE",
"473 377 OFFCURVE",
"366 377 CURVE SMOOTH",
"102 377 LINE",
"102 296 LINE",
"366 296 LINE SMOOTH",
"455 296 OFFCURVE",
"502 257 OFFCURVE",
"502 184 CURVE SMOOTH",
"502 117 OFFCURVE",
"462 81 OFFCURVE",
"385 81 CURVE SMOOTH",
"102 81 LINE",
"102 0 LINE"
);
},
{
closed = 1;
nodes = (
"166 0 LINE",
"166 700 LINE",
"78 700 LINE",
"78 0 LINE"
);
}
);
width = 656;
},
{
layerId = m003;
paths = (
{
closed = 1;
nodes = (
"354 0 LINE SMOOTH",
"467 0 OFFCURVE",
"535 65 OFFCURVE",
"535 175 CURVE SMOOTH",
"535 260 OFFCURVE",
"494 321 OFFCURVE",
"415 333 CURVE",
"415 334 LINE",
"511 341 OFFCURVE",
"563 409 OFFCURVE",
"563 508 CURVE SMOOTH",
"563 628 OFFCURVE",
"486 700 OFFCURVE",
"359 700 CURVE SMOOTH",
"96 700 LINE",
"96 678 LINE",
"359 678 LINE SMOOTH",
"470 678 OFFCURVE",
"538 614 OFFCURVE",
"538 508 CURVE SMOOTH",
"538 406 OFFCURVE",
"477 345 OFFCURVE",
"375 345 CURVE SMOOTH",
"96 345 LINE",
"96 323 LINE",
"375 323 LINE SMOOTH",
"460 323 OFFCURVE",
"511 266 OFFCURVE",
"511 175 CURVE SMOOTH",
"511 79 OFFCURVE",
"452 22 OFFCURVE",
"354 22 CURVE SMOOTH",
"96 22 LINE",
"96 0 LINE"
);
},
{
closed = 1;
nodes = (
"108 0 LINE",
"108 700 LINE",
"84 700 LINE",
"84 0 LINE"
);
}
);
width = 608;
},
{
layerId = "2146FA84-FF4E-4FEC-ADE7-E3206BD202A0";
paths = (
{
closed = 1;
nodes = (
"402 0 LINE SMOOTH",
"547 0 OFFCURVE",
"646 70 OFFCURVE",
"646 187 CURVE SMOOTH",
"646 267 OFFCURVE",
"598 309 OFFCURVE",
"509 328 CURVE",
"509 331 LINE",
"645 347 OFFCURVE",
"722 425 OFFCURVE",
"722 535 CURVE SMOOTH",
"722 641 OFFCURVE",
"649 700 OFFCURVE",
"505 700 CURVE SMOOTH",
"207 700 LINE",
"182 523 LINE",
"440 523 LINE SMOOTH",
"483 523 OFFCURVE",
"504 509 OFFCURVE",
"504 476 CURVE SMOOTH",
"504 436 OFFCURVE",
"474 417 OFFCURVE",
"413 417 CURVE SMOOTH",
"167 417 LINE",
"148 280 LINE",
"367 280 LINE SMOOTH",
"418 280 OFFCURVE",
"443 267 OFFCURVE",
"443 233 CURVE SMOOTH",
"443 195 OFFCURVE",
"413 177 OFFCURVE",
"368 177 CURVE SMOOTH",
"134 177 LINE",
"109 0 LINE"
);
},
{
closed = 1;
nodes = (
"233 0 LINE",
"331 700 LINE",
"123 700 LINE",
"25 0 LINE"
);
}
);
width = 694;
},
{
layerId = "C724B7CD-248E-4D7B-8006-7CFF52EADE8B";
paths = (
{
closed = 1;
nodes = (
"347 0 LINE SMOOTH",
"493 0 OFFCURVE",
"581 83 OFFCURVE",
"581 198 CURVE SMOOTH",
"581 270 OFFCURVE",
"546 309 OFFCURVE",
"471 329 CURVE",
"471 331 LINE",
"614 356 OFFCURVE",
"655 450 OFFCURVE",
"655 533 CURVE SMOOTH",
"655 645 OFFCURVE",
"581 700 OFFCURVE",
"450 700 CURVE SMOOTH",
"159 700 LINE",
"148 619 LINE",
"436 619 LINE SMOOTH",
"518 619 OFFCURVE",
"560 586 OFFCURVE",
"560 516 CURVE SMOOTH",
"560 417 OFFCURVE",
"477 377 OFFCURVE",
"378 377 CURVE SMOOTH",
"114 377 LINE",
"102 296 LINE",
"366 296 LINE SMOOTH",
"446 296 OFFCURVE",
"488 264 OFFCURVE",
"488 200 CURVE SMOOTH",
"488 147 OFFCURVE",
"459 81 OFFCURVE",
"355 81 CURVE SMOOTH",
"72 81 LINE",
"61 0 LINE"
);
},
{
closed = 1;
nodes = (
"125 0 LINE",
"223 700 LINE",
"135 700 LINE",
"37 0 LINE"
);
}
);
width = 643;
},
{
layerId = "747A76F5-4D21-4F4C-BD8F-BF7AFE68B107";
paths = (
{
closed = 1;
nodes = (
"320 0 LINE SMOOTH",
"465 0 OFFCURVE",
"527 105 OFFCURVE",
"527 205 CURVE SMOOTH",
"527 276 OFFCURVE",
"495 323 OFFCURVE",
"428 333 CURVE",
"428 334 LINE",
"545 342 OFFCURVE",
"603 441 OFFCURVE",
"603 538 CURVE SMOOTH",
"603 642 OFFCURVE",
"537 700 OFFCURVE",
"423 700 CURVE SMOOTH",
"160 700 LINE",
"157 678 LINE",
"420 678 LINE SMOOTH",
"520 678 OFFCURVE",
"577 626 OFFCURVE",
"577 533 CURVE SMOOTH",
"577 432 OFFCURVE",
"510 345 OFFCURVE",
"389 345 CURVE SMOOTH",
"110 345 LINE",
"107 323 LINE",
"386 323 LINE SMOOTH",
"461 323 OFFCURVE",
"503 279 OFFCURVE",
"503 199 CURVE SMOOTH",
"503 98 OFFCURVE",
"435 22 OFFCURVE",
"323 22 CURVE SMOOTH",
"65 22 LINE",
"62 0 LINE"
);
},
{
closed = 1;
nodes = (
"74 0 LINE",
"172 700 LINE",
"148 700 LINE",
"50 0 LINE"
);
}
);
width = 600;
}
);
leftMetricsKey = B;
rightMetricsKey = "=B-25";
},
{
glyphname = K.ss05;
lastChange = "2025-01-09 16:19:00 +0000";
layers = (
{
layerId = "1BF19B54-F320-4FA0-AF52-273918486B89";
paths = (
{
closed = 1;
nodes = (
"733 0 LINE",
"462 303 LINE",
"352 402 LINE",
"263 456 LINE",
"159 429 LINE",
"481 0 LINE"
);
},
{
closed = 1;
nodes = (
"263 0 LINE",
"263 700 LINE",
"55 700 LINE",
"55 0 LINE"
);
},
{
closed = 1;
nodes = (
"732 700 LINE",
"491 700 LINE",
"289 303 LINE",
"455 257 LINE"
);
}
);
width = 744;
},
{
layerId = "AAB0E2D1-7A47-467B-B788-A2CC53DD9722";
paths = (
{
closed = 1;
nodes = (
"646 0 LINE",
"349 290 LINE",
"293 332 LINE",
"166 424 LINE",
"121 392 LINE",
"519 0 LINE"
);
},
{
closed = 1;
nodes = (
"166 0 LINE",
"166 700 LINE",
"78 700 LINE",
"78 0 LINE"
);
},
{
closed = 1;
nodes = (
"625 700 LINE",
"518 700 LINE",
"255 282 LINE",
"339 252 LINE"
);
}
);
width = 659;
},
{
layerId = m003;
paths = (
{
closed = 1;
nodes = (
"558 0 LINE",
"276 300 LINE",
"267 310 LINE",
"108 467 LINE",
"94 457 LINE",
"523 0 LINE"
);
},
{
closed = 1;
nodes = (
"108 0 LINE",
"108 700 LINE",
"84 700 LINE",
"84 0 LINE"
);
},
{
closed = 1;
nodes = (
"556 700 LINE",
"525 700 LINE",
"251 300 LINE",
"274 290 LINE"
);
}
);
width = 600;
},
{
layerId = "2146FA84-FF4E-4FEC-ADE7-E3206BD202A0";
paths = (
{
closed = 1;
nodes = (
"703 0 LINE",
"474 303 LINE",
"378 402 LINE",
"297 456 LINE",
"189 429 LINE",
"451 0 LINE"
);
},
{
closed = 1;
nodes = (
"233 0 LINE",
"331 700 LINE",
"123 700 LINE",
"25 0 LINE"
);
},
{
closed = 1;
nodes = (
"800 700 LINE",
"559 700 LINE",
"301 303 LINE",
"461 257 LINE"
);
}
);
width = 758;
},
{
layerId = "C724B7CD-248E-4D7B-8006-7CFF52EADE8B";
paths = (
{
closed = 1;
nodes = (
"605 0 LINE",
"349 290 LINE",
"298 332 LINE",
"184 424 LINE",
"135 392 LINE",
"478 0 LINE"
);
},
{
closed = 1;
nodes = (
"125 0 LINE",
"223 700 LINE",
"135 700 LINE",
"37 0 LINE"
);
},
{
closed = 1;
nodes = (
"682 700 LINE",
"575 700 LINE",
"253 282 LINE",
"333 252 LINE"
);
}
);
width = 650;
},
{
layerId = "747A76F5-4D21-4F4C-BD8F-BF7AFE68B107";
paths = (
{
closed = 1;
nodes = (
"524 0 LINE",
"282 303 LINE",
"276 310 LINE",
"139 467 LINE",
"124 457 LINE",
"489 0 LINE"
);
},
{
closed = 1;
nodes = (
"74 0 LINE",
"172 700 LINE",
"148 700 LINE",
"50 0 LINE"
);
},
{
closed = 1;
nodes = (
"620 700 LINE",
"589 700 LINE",
"259 300 LINE",
"281 290 LINE"
);
}
);
width = 579;
},
{
associatedMasterId = "AAB0E2D1-7A47-467B-B788-A2CC53DD9722";
layerId = "DDA389A7-119D-44D1-A3C7-54382B742411";
name = "29. Jan. 23, 15:47";
paths = (
{
closed = 1;
nodes = (
"121 394 LINE",
"506 0 LINE",
"626 0 LINE",
"347 286 LINE",
"293 332 LINE",
"166 424 LINE"
);
},
{
closed = 1;
nodes = (
"78 0 LINE",
"166 0 LINE",
"166 700 LINE",
"78 700 LINE"
);
},
{
closed = 1;
nodes = (
"253 282 LINE",
"339 252 LINE",
"655 700 LINE",
"545 700 LINE"
);
}
);
width = 668;
},
{
associatedMasterId = "1BF19B54-F320-4FA0-AF52-273918486B89";
layerId = "17855083-E26D-48B8-A05C-A980E430C790";
name = "29. Jan. 23, 15:49";
paths = (
{
closed = 1;
nodes = (
"159 434 LINE",
"473 0 LINE",
"723 0 LINE",
"462 303 LINE",
"352 402 LINE",
"263 456 LINE"
);
},
{
closed = 1;
nodes = (
"55 0 LINE",
"263 0 LINE",
"263 700 LINE",
"55 700 LINE"
);
},
{
closed = 1;
nodes = (
"289 303 LINE",
"455 257 LINE",
"742 700 LINE",
"498 700 LINE"
);
}
);
width = 600;
},
{
associatedMasterId = m003;
layerId = "EEB1EA1C-87A6-4708-BCDC-0B5E0EA7C863";
name = "29. Jan. 23, 15:51";
paths = (
{
closed = 1;
nodes = (
"94 457 LINE",
"523 0 LINE",
"558 0 LINE",
"276 300 LINE",
"267 310 LINE",
"108 467 LINE"
);
},
{
closed = 1;
nodes = (
"84 0 LINE",
"108 0 LINE",
"108 700 LINE",
"84 700 LINE"
);
},
{
closed = 1;
nodes = (
"251 300 LINE",
"274 290 LINE",
"556 700 LINE",
"525 700 LINE"
);
}
);
visible = 1;
width = 600;
}
);
leftMetricsKey = H;
rightKerningGroup = RightUpX;
},
{
glyphname = Q.ss05;
lastChange = "2025-01-09 16:19:00 +0000";
layers = (
{
layerId = "1BF19B54-F320-4FA0-AF52-273918486B89";
paths = (
{
closed = 1;
nodes = (
"642 -15 OFFCURVE",
"777 118 OFFCURVE",
"777 348 CURVE SMOOTH",
"777 581 OFFCURVE",
"642 715 OFFCURVE",
"406 715 CURVE SMOOTH",
"169 715 OFFCURVE",
"33 581 OFFCURVE",
"33 349 CURVE SMOOTH",
"33 118 OFFCURVE",
"169 -15 OFFCURVE",
"406 -15 CURVE SMOOTH"
);
},
{
closed = 1;
nodes = (
"300 170 OFFCURVE",
"244 232 OFFCURVE",
"244 349 CURVE SMOOTH",
"244 467 OFFCURVE",
"300 530 OFFCURVE",
"406 530 CURVE SMOOTH",
"511 530 OFFCURVE",
"566 467 OFFCURVE",
"566 349 CURVE SMOOTH",
"566 232 OFFCURVE",
"511 170 OFFCURVE",
"406 170 CURVE SMOOTH"
);
},
{
closed = 1;
nodes = (
"736 701 LINE",
"605 792 LINE",
"345 420 LINE",
"474 329 LINE"
);
}
);
width = 810;
},
{
layerId = "AAB0E2D1-7A47-467B-B788-A2CC53DD9722";
paths = (
{
closed = 1;
nodes = (
"609 -15 OFFCURVE",
"738 122 OFFCURVE",
"738 348 CURVE SMOOTH",
"738 577 OFFCURVE",
"609 715 OFFCURVE",
"396 715 CURVE SMOOTH",
"182 715 OFFCURVE",
"52 577 OFFCURVE",
"52 349 CURVE SMOOTH",
"52 122 OFFCURVE",
"182 -15 OFFCURVE",
"396 -15 CURVE SMOOTH"
);
},
{
closed = 1;
nodes = (
"232 68 OFFCURVE",
"145 165 OFFCURVE",
"145 349 CURVE SMOOTH",
"145 534 OFFCURVE",
"232 632 OFFCURVE",
"396 632 CURVE SMOOTH",
"559 632 OFFCURVE",
"645 534 OFFCURVE",
"645 349 CURVE SMOOTH",
"645 165 OFFCURVE",
"559 68 OFFCURVE",
"396 68 CURVE SMOOTH"
);
},
{
closed = 1;
nodes = (
"723 727 LINE",
"667 784 LINE",
"421 537 LINE",
"477 480 LINE"
);
}
);
width = 790;
},
{
layerId = m003;
paths = (
{
closed = 1;
nodes = (
"567 -15 OFFCURVE",
"685 122 OFFCURVE",
"685 348 CURVE SMOOTH",
"685 577 OFFCURVE",
"567 715 OFFCURVE",
"372 715 CURVE SMOOTH",
"175 715 OFFCURVE",
"56 577 OFFCURVE",
"56 349 CURVE SMOOTH",
"56 122 OFFCURVE",
"175 -15 OFFCURVE",
"372 -15 CURVE SMOOTH"
);
},
{
closed = 1;
nodes = (
"191 9 OFFCURVE",
"82 137 OFFCURVE",
"82 349 CURVE SMOOTH",
"82 562 OFFCURVE",
"191 691 OFFCURVE",
"372 691 CURVE SMOOTH",
"551 691 OFFCURVE",
"659 562 OFFCURVE",
"659 349 CURVE SMOOTH",
"659 137 OFFCURVE",
"551 9 OFFCURVE",
"372 9 CURVE SMOOTH"
);
},
{
closed = 1;
nodes = (
"679 745 LINE",
"662 762 LINE",
"415 516 LINE",
"432 499 LINE"
);
}
);
width = 741;
},
{
layerId = "2146FA84-FF4E-4FEC-ADE7-E3206BD202A0";
paths = (
{
closed = 1;
nodes = (
"648 -15 OFFCURVE",
"805 168 OFFCURVE",
"805 406 CURVE SMOOTH",
"805 609 OFFCURVE",
"689 715 OFFCURVE",
"478 715 CURVE SMOOTH",
"193 715 OFFCURVE",
"51 514 OFFCURVE",
"51 291 CURVE SMOOTH",
"51 90 OFFCURVE",
"166 -15 OFFCURVE",
"376 -15 CURVE SMOOTH"
);
},
{
closed = 1;
nodes = (
"311 170 OFFCURVE",
"264 217 OFFCURVE",
"264 317 CURVE SMOOTH",
"264 427 OFFCURVE",
"322 530 OFFCURVE",
"452 530 CURVE SMOOTH",
"544 530 OFFCURVE",
"592 482 OFFCURVE",
"592 381 CURVE SMOOTH",
"592 269 OFFCURVE",
"533 170 OFFCURVE",
"402 170 CURVE SMOOTH"
);
},
{
closed = 1;
nodes = (
"809 701 LINE",
"691 792 LINE",
"378 420 LINE",
"495 329 LINE"
);
}
);
width = 828;
},
{
layerId = "C724B7CD-248E-4D7B-8006-7CFF52EADE8B";
paths = (
{
closed = 1;
nodes = (
"611 -15 OFFCURVE",
"755 185 OFFCURVE",
"755 413 CURVE SMOOTH",
"755 608 OFFCURVE",
"648 715 OFFCURVE",
"459 715 CURVE SMOOTH",
"200 715 OFFCURVE",
"59 512 OFFCURVE",
"59 289 CURVE SMOOTH",
"59 93 OFFCURVE",
"167 -15 OFFCURVE",
"357 -15 CURVE SMOOTH"
);
},
{
closed = 1;
nodes = (
"226 68 OFFCURVE",
"152 142 OFFCURVE",
"152 297 CURVE SMOOTH",
"152 465 OFFCURVE",
"238 632 OFFCURVE",
"448 632 CURVE SMOOTH",
"589 632 OFFCURVE",
"662 559 OFFCURVE",
"662 405 CURVE SMOOTH",
"662 237 OFFCURVE",
"577 68 OFFCURVE",
"368 68 CURVE SMOOTH"
);
},
{
closed = 1;
nodes = (
"786 727 LINE",
"738 784 LINE",
"457 537 LINE",
"505 480 LINE"
);
}
);
width = 785;
},
{
layerId = "747A76F5-4D21-4F4C-BD8F-BF7AFE68B107";
paths = (
{
closed = 1;
nodes = (
"589 -15 OFFCURVE",
"716 201 OFFCURVE",
"716 421 CURVE SMOOTH",
"716 610 OFFCURVE",
"619 715 OFFCURVE",
"448 715 CURVE SMOOTH",
"207 715 OFFCURVE",
"75 507 OFFCURVE",
"75 283 CURVE SMOOTH",
"75 91 OFFCURVE",
"173 -15 OFFCURVE",
"346 -15 CURVE SMOOTH"
);
},
{
closed = 1;
nodes = (
"191 9 OFFCURVE",
"101 108 OFFCURVE",
"101 286 CURVE SMOOTH",
"101 489 OFFCURVE",
"218 691 OFFCURVE",
"445 691 CURVE SMOOTH",
"601 691 OFFCURVE",
"690 593 OFFCURVE",
"690 417 CURVE SMOOTH",
"690 217 OFFCURVE",
"577 9 OFFCURVE",
"349 9 CURVE SMOOTH"
);
},
{
closed = 1;
nodes = (
"760 745 LINE",
"746 762 LINE",
"464 516 LINE",
"479 499 LINE"
);
}
);
width = 763;
},
{
associatedMasterId = "C724B7CD-248E-4D7B-8006-7CFF52EADE8B";
layerId = "88E6761B-8AC1-4C8B-96BE-84FE88E41635";
name = "29. Jan. 23, 16:17";
paths = (
{
closed = 1;
nodes = (
"457 537 LINE",
"505 480 LINE",
"786 727 LINE",
"738 784 LINE"
);
},
{
closed = 1;
nodes = (
"243 715 OFFCURVE",
"94 577 OFFCURVE",
"62 349 CURVE SMOOTH",
"30 122 OFFCURVE",
"141 -15 OFFCURVE",
"355 -15 CURVE SMOOTH",
"568 -15 OFFCURVE",
"716 122 OFFCURVE",
"748 348 CURVE SMOOTH",
"780 577 OFFCURVE",
"670 715 OFFCURVE",
"457 715 CURVE SMOOTH"
);
},
{
closed = 1;
nodes = (
"609 632 OFFCURVE",
"681 534 OFFCURVE",
"655 349 CURVE SMOOTH",
"629 165 OFFCURVE",
"530 68 OFFCURVE",
"367 68 CURVE SMOOTH",
"203 68 OFFCURVE",
"129 165 OFFCURVE",
"155 349 CURVE SMOOTH",
"181 534 OFFCURVE",
"282 632 OFFCURVE",
"446 632 CURVE SMOOTH"
);
}
);
width = 782;
},
{
associatedMasterId = "747A76F5-4D21-4F4C-BD8F-BF7AFE68B107";
layerId = "23935DAC-90A0-4EF3-AF2F-ADB6C798EAAE";
name = "29. Jan. 23, 16:18";
paths = (
{
closed = 1;
nodes = (
"464 516 LINE",
"479 499 LINE",
"760 745 LINE",
"746 762 LINE"
);
},
{
closed = 1;
nodes = (
"252 715 OFFCURVE",
"114 577 OFFCURVE",
"82 349 CURVE SMOOTH",
"50 122 OFFCURVE",
"149 -15 OFFCURVE",
"346 -15 CURVE SMOOTH",
"541 -15 OFFCURVE",
"679 122 OFFCURVE",
"710 348 CURVE SMOOTH",
"743 577 OFFCURVE",
"644 715 OFFCURVE",
"449 715 CURVE SMOOTH"
);
},
{
closed = 1;
nodes = (
"625 691 OFFCURVE",
"714 562 OFFCURVE",
"685 349 CURVE SMOOTH",
"655 137 OFFCURVE",
"529 9 OFFCURVE",
"350 9 CURVE SMOOTH",
"169 9 OFFCURVE",
"78 137 OFFCURVE",
"108 349 CURVE SMOOTH",
"137 562 OFFCURVE",
"265 691 OFFCURVE",
"446 691 CURVE SMOOTH"
);
}
);
width = 771;
}
);
leftMetricsKey = Q;
rightMetricsKey = Q;
},
{
glyphname = R.ss05;
lastChange = "2025-01-09 16:19:00 +0000";
layers = (
{
layerId = "1BF19B54-F320-4FA0-AF52-273918486B89";
paths = (
{
closed = 1;
nodes = (
"383 0 LINE SMOOTH",
"529 0 OFFCURVE",
"650 60 OFFCURVE",
"650 233 CURVE SMOOTH",
"650 400 OFFCURVE",
"529 467 OFFCURVE",
"383 467 CURVE SMOOTH",
"142 467 LINE",
"142 290 LINE",
"366 290 LINE SMOOTH",
"416 290 OFFCURVE",
"440 271 OFFCURVE",
"440 233 CURVE SMOOTH",
"440 195 OFFCURVE",
"416 177 OFFCURVE",
"366 177 CURVE SMOOTH",
"142 177 LINE",
"142 0 LINE"
);
},
{
closed = 1;
nodes = (
"263 0 LINE",
"263 700 LINE",
"55 700 LINE",
"55 0 LINE"
);
},
{
closed = 1;
nodes = (
"511 393 LINE",
"676 700 LINE",
"454 700 LINE",
"292 393 LINE"
);
}
);
width = 687;
},
{
layerId = "AAB0E2D1-7A47-467B-B788-A2CC53DD9722";
paths = (
{
closed = 1;
nodes = (
"326 0 LINE SMOOTH",
"490 0 OFFCURVE",
"576 74 OFFCURVE",
"576 214 CURVE SMOOTH",
"576 355 OFFCURVE",
"490 429 OFFCURVE",
"326 429 CURVE SMOOTH",
"106 429 LINE",
"106 348 LINE",
"329 348 LINE SMOOTH",
"435 348 OFFCURVE",
"483 306 OFFCURVE",
"483 214 CURVE SMOOTH",
"483 123 OFFCURVE",
"435 81 OFFCURVE",
"329 81 CURVE SMOOTH",
"106 81 LINE",
"106 0 LINE"
);
},
{
closed = 1;
nodes = (
"166 0 LINE",
"166 700 LINE",
"78 700 LINE",
"78 0 LINE"
);
},
{
closed = 1;
nodes = (
"437 393 LINE",
"602 700 LINE",
"503 700 LINE",
"338 393 LINE"
);
}
);
width = 632;
},
{
layerId = m003;
paths = (
{
closed = 1;
nodes = (
"301 0 LINE SMOOTH",
"441 0 OFFCURVE",
"517 67 OFFCURVE",
"517 196 CURVE SMOOTH",
"517 324 OFFCURVE",
"436 392 OFFCURVE",
"311 392 CURVE SMOOTH",
"90 392 LINE",
"90 370 LINE",
"299 370 LINE SMOOTH",
"426 370 OFFCURVE",
"491 312 OFFCURVE",
"491 196 CURVE SMOOTH",
"491 80 OFFCURVE",
"426 22 OFFCURVE",
"299 22 CURVE SMOOTH",
"90 22 LINE",
"90 0 LINE"
);
},
{
closed = 1;
nodes = (
"108 0 LINE",
"108 700 LINE",
"84 700 LINE",
"84 0 LINE"
);
},
{
closed = 1;
nodes = (
"358 381 LINE",
"537 700 LINE",
"509 700 LINE",
"330 381 LINE"
);
}
);
width = 567;
},
{
layerId = "2146FA84-FF4E-4FEC-ADE7-E3206BD202A0";
paths = (
{
closed = 1;
nodes = (
"353 0 LINE SMOOTH",
"560 0 OFFCURVE",
"656 123 OFFCURVE",
"656 265 CURVE SMOOTH",
"656 411 OFFCURVE",
"551 467 OFFCURVE",
"418 467 CURVE SMOOTH",
"177 467 LINE",
"153 290 LINE",
"377 290 LINE SMOOTH",
"422 290 OFFCURVE",
"444 274 OFFCURVE",
"444 240 CURVE SMOOTH",
"444 197 OFFCURVE",
"409 177 OFFCURVE",
"361 177 CURVE SMOOTH",
"137 177 LINE",
"112 0 LINE"
);
},
{
closed = 1;
nodes = (
"233 0 LINE",
"331 700 LINE",
"123 700 LINE",
"25 0 LINE"
);
},
{
closed = 1;
nodes = (
"536 393 LINE",
"744 700 LINE",
"522 700 LINE",
"317 393 LINE"
);
}
);
width = 716;
},
{
layerId = "C724B7CD-248E-4D7B-8006-7CFF52EADE8B";
paths = (
{
closed = 1;
nodes = (
"285 0 LINE SMOOTH",
"465 0 OFFCURVE",
"568 96 OFFCURVE",
"568 244 CURVE SMOOTH",
"568 370 OFFCURVE",
"492 429 OFFCURVE",
"345 429 CURVE SMOOTH",
"125 429 LINE",
"114 348 LINE",
"337 348 LINE SMOOTH",
"431 348 OFFCURVE",
"474 315 OFFCURVE",
"474 233 CURVE SMOOTH",
"474 144 OFFCURVE",
"423 81 OFFCURVE",
"299 81 CURVE SMOOTH",
"76 81 LINE",
"65 0 LINE"
);
},
{
closed = 1;
nodes = (
"125 0 LINE",
"223 700 LINE",
"135 700 LINE",
"37 0 LINE"
);
},
{
closed = 1;
nodes = (
"451 393 LINE",
"659 700 LINE",
"560 700 LINE",
"352 393 LINE"
);
}
);
width = 626;
},
{
layerId = "747A76F5-4D21-4F4C-BD8F-BF7AFE68B107";
paths = (
{
closed = 1;
nodes = (
"267 0 LINE SMOOTH",
"442 0 OFFCURVE",
"513 108 OFFCURVE",
"513 224 CURVE SMOOTH",
"513 337 OFFCURVE",
"444 392 OFFCURVE",
"332 392 CURVE SMOOTH",
"111 392 LINE",
"108 370 LINE",
"317 370 LINE SMOOTH",
"429 370 OFFCURVE",
"487 325 OFFCURVE",
"487 223 CURVE SMOOTH",
"487 121 OFFCURVE",
"429 22 OFFCURVE",
"268 22 CURVE SMOOTH",
"59 22 LINE",
"56 0 LINE"
);
},
{
closed = 1;
nodes = (
"74 0 LINE",
"172 700 LINE",
"148 700 LINE",
"50 0 LINE"
);
},
{
closed = 1;
nodes = (
"377 381 LINE",
"601 700 LINE",
"573 700 LINE",
"349 381 LINE"
);
}
);
width = 568;
}
);
leftMetricsKey = R;
rightKerningGroup = rightR;
rightMetricsKey = R;
},
{
glyphname = a;
lastChange = "2025-01-09 17:03:55 +0000";
layers = (
{
anchors = (
{
name = bottom;
position = "{267, 0}";
},
{
name = ogonek;
position = "{480, 10}";
},
{
name = top;
position = "{267, 500}";
}
);
layerId = m003;
name = Regular;
paths = (
{
closed = 1;
nodes = (
"321 -15 OFFCURVE",
"406 36 OFFCURVE",
"431 138 CURVE",
"433 138 LINE",
"433 0 LINE",
"455 0 LINE",
"455 346 LINE SMOOTH",
"455 457 OFFCURVE",
"395 515 OFFCURVE",
"275 515 CURVE SMOOTH",
"167 515 OFFCURVE",
"111 471 OFFCURVE",
"80 361 CURVE",
"105 353 LINE",
"131 452 OFFCURVE",
"179 491 OFFCURVE",
"275 491 CURVE SMOOTH",
"376 491 OFFCURVE",
"430 441 OFFCURVE",
"430 361 CURVE SMOOTH",
"430 320 OFFCURVE",
"374 310 OFFCURVE",
"262 294 CURVE SMOOTH",
"111 272 OFFCURVE",
"63 215 OFFCURVE",
"63 134 CURVE SMOOTH",
"63 31 OFFCURVE",
"136 -15 OFFCURVE",
"229 -15 CURVE SMOOTH"
);
},
{
closed = 1;
nodes = (
"147 9 OFFCURVE",
"89 50 OFFCURVE",
"89 134 CURVE SMOOTH",
"89 218 OFFCURVE",
"151 255 OFFCURVE",
"267 272 CURVE SMOOTH",
"360 286 OFFCURVE",
"409 292 OFFCURVE",
"431 319 CURVE",
"431 199 LINE SMOOTH",
"431 93 OFFCURVE",
"347 9 OFFCURVE",
"230 9 CURVE SMOOTH"
);
}
);
width = 533;
},
{
anchors = (
{
name = bottom;
position = "{235, 0}";
},
{
name = ogonek;
position = "{451, 10}";
},
{
name = top;
position = "{305, 500}";
}
);
guideLines = (
{
angle = 82.0304;
position = "{584, 350}";
},
{
angle = 262.1199;
position = "{408, 556}";
}
);
layerId = "2146FA84-FF4E-4FEC-ADE7-E3206BD202A0";
name = "Ultra Black";
paths = (
{
closed = 1;
nodes = (
"220 -15 OFFCURVE",
"272 21 OFFCURVE",
"299 91 CURVE",
"309 91 LINE",
"298 0 LINE",
"464 0 LINE",
"510 330 LINE SMOOTH",
"528 462 OFFCURVE",
"450 515 OFFCURVE",
"311 515 CURVE SMOOTH",
"181 515 OFFCURVE",
"95 456 OFFCURVE",
"49 338 CURVE",
"221 303 LINE",
"230 336 OFFCURVE",
"250 353 OFFCURVE",
"285 353 CURVE SMOOTH",
"309 353 OFFCURVE",
"322 344 OFFCURVE",
"322 328 CURVE SMOOTH",
"322 302 OFFCURVE",
"307 291 OFFCURVE",
"233 288 CURVE SMOOTH",
"90 280 OFFCURVE",
"-9 228 OFFCURVE",
"-9 100 CURVE SMOOTH",
"-9 28 OFFCURVE",
"41 -15 OFFCURVE",
"136 -15 CURVE SMOOTH"
);
},
{
closed = 1;
nodes = (
"194 121 OFFCURVE",
"177 131 OFFCURVE",
"177 156 CURVE SMOOTH",
"177 189 OFFCURVE",
"195 206 OFFCURVE",
"256 215 CURVE SMOOTH",
"277 218 OFFCURVE",
"296 222 OFFCURVE",
"309 231 CURVE",
"306 209 LINE SMOOTH",
"299 154 OFFCURVE",
"265 121 OFFCURVE",
"221 121 CURVE SMOOTH"
);
}
);
width = 539;
},
{
anchors = (
{
name = bottom;
position = "{212, 0}";
},
{
name = ogonek;
position = "{410, 10}";
},
{
name = top;
position = "{282, 500}";
}
);
guideLines = (
{
angle = 262.0371;
position = "{480, 532}";
},
{
angle = 82.0304;
position = "{478, 350}";
}
);
layerId = "747A76F5-4D21-4F4C-BD8F-BF7AFE68B107";
name = Regular;
paths = (
{
closed = 1;
nodes = (
"272 -15 OFFCURVE",
"364 36 OFFCURVE",
"403 138 CURVE",
"405 138 LINE",
"386 0 LINE",
"408 0 LINE",
"456 346 LINE SMOOTH",
"471 457 OFFCURVE",
"418 515 OFFCURVE",
"300 515 CURVE SMOOTH",
"192 515 OFFCURVE",
"130 471 OFFCURVE",
"84 361 CURVE",
"107 353 LINE",
"147 452 OFFCURVE",
"204 491 OFFCURVE",
"296 491 CURVE SMOOTH",
"391 491 OFFCURVE",
"435 444 OFFCURVE",
"435 389 CURVE SMOOTH",
"435 306 OFFCURVE",
"339 306 OFFCURVE",
"256 294 CURVE SMOOTH",
"85 270 OFFCURVE",
"33 202 OFFCURVE",
"33 117 CURVE SMOOTH",
"33 23 OFFCURVE",
"96 -15 OFFCURVE",
"180 -15 CURVE SMOOTH"
);
},
{
closed = 1;
nodes = (
"109 9 OFFCURVE",
"59 42 OFFCURVE",
"59 117 CURVE SMOOTH",
"59 213 OFFCURVE",
"139 255 OFFCURVE",
"258 272 CURVE SMOOTH",
"353 286 OFFCURVE",
"403 292 OFFCURVE",
"429 319 CURVE",
"412 199 LINE SMOOTH",
"397 93 OFFCURVE",
"301 9 OFFCURVE",
"184 9 CURVE SMOOTH"
);
}
);
width = 521;
},
{
anchors = (
{
name = bottom;
position = "{245, 0}";
},
{
name = ogonek;
position = "{468, 10}";
},
{
name = top;
position = "{315, 500}";
}
);
layerId = "C724B7CD-248E-4D7B-8006-7CFF52EADE8B";
name = Italic;
paths = (
{
closed = 1;
nodes = (
"292 -15 OFFCURVE",
"353 34 OFFCURVE",
"393 141 CURVE",
"395 141 LINE",
"375 0 LINE",
"450 0 LINE",
"496 330 LINE SMOOTH",
"511 455 OFFCURVE",
"451 515 OFFCURVE",
"319 515 CURVE SMOOTH",
"204 515 OFFCURVE",
"126 464 OFFCURVE",
"92 367 CURVE",
"165 343 LINE",
"192 412 OFFCURVE",
"242 448 OFFCURVE",
"317 448 CURVE SMOOTH",
"381 448 OFFCURVE",
"416 422 OFFCURVE",
"416 376 CURVE SMOOTH",
"416 309 OFFCURVE",
"343 321 OFFCURVE",
"280 312 CURVE SMOOTH",
"137 292 OFFCURVE",
"34 241 OFFCURVE",
"34 119 CURVE SMOOTH",
"34 27 OFFCURVE",
"92 -15 OFFCURVE",
"189 -15 CURVE SMOOTH"
);
},
{
closed = 1;
nodes = (
"153 51 OFFCURVE",
"122 80 OFFCURVE",
"122 128 CURVE SMOOTH",
"122 199 OFFCURVE",
"190 232 OFFCURVE",
"275 244 CURVE SMOOTH",
"340 254 OFFCURVE",
"375 255 OFFCURVE",
"403 271 CURVE",
"396 219 LINE SMOOTH",
"381 114 OFFCURVE",
"314 51 OFFCURVE",
"217 51 CURVE SMOOTH"
);
}
);
visible = 1;
width = 557;
},
{
anchors = (
{
name = bottom;
position = "{276, 0}";
},
{
name = ogonek;
position = "{504, 10}";
},
{
name = top;
position = "{276, 500}";
}
);
layerId = "AAB0E2D1-7A47-467B-B788-A2CC53DD9722";
name = Regular;
paths = (
{
closed = 1;
nodes = (
"327 -15 OFFCURVE",
"381 34 OFFCURVE",
"406 141 CURVE",
"408 141 LINE",
"408 0 LINE",
"483 0 LINE",
"483 330 LINE SMOOTH",
"483 451 OFFCURVE",
"413 515 OFFCURVE",
"280 515 CURVE SMOOTH",
"165 515 OFFCURVE",
"94 464 OFFCURVE",
"74 367 CURVE",
"150 343 LINE",
"167 412 OFFCURVE",
"212 448 OFFCURVE",
"287 448 CURVE SMOOTH",
"357 448 OFFCURVE",
"398 417 OFFCURVE",
"398 359 CURVE SMOOTH",
"398 322 OFFCURVE",
"354 324 OFFCURVE",
"269 312 CURVE SMOOTH",
"119 291 OFFCURVE",
"50 240 OFFCURVE",
"50 137 CURVE SMOOTH",
"50 37 OFFCURVE",
"117 -15 OFFCURVE",
"224 -15 CURVE SMOOTH"
);
},
{
closed = 1;
nodes = (
"172 51 OFFCURVE",
"137 86 OFFCURVE",
"137 138 CURVE SMOOTH",
"137 199 OFFCURVE",
"184 231 OFFCURVE",
"274 244 CURVE SMOOTH",
"337 254 OFFCURVE",
"372 255 OFFCURVE",
"398 271 CURVE",
"398 219 LINE SMOOTH",
"398 114 OFFCURVE",
"340 51 OFFCURVE",
"243 51 CURVE SMOOTH"
);
}
);
width = 561;
},
{
anchors = (
{
name = bottom;
position = "{233, 0}";
},
{
name = ogonek;
position = "{492, 0}";
},
{
name = top;
position = "{285, 500}";
}
);
associatedMasterId = "AAB0E2D1-7A47-467B-B788-A2CC53DD9722";
layerId = "7B1BF49C-56AE-46C0-A17A-8C257BBEA883";
name = "20. Okt. 22, 18:28";
paths = (
{
closed = 1;
nodes = (
"319 -15 OFFCURVE",
"385 15 OFFCURVE",
"415 99 CURVE",
"417 99 LINE",
"417 0 LINE",
"492 0 LINE",
"492 330 LINE SMOOTH",
"492 461 OFFCURVE",
"410 515 OFFCURVE",
"289 515 CURVE SMOOTH",
"157 515 OFFCURVE",
"101 456 OFFCURVE",
"83 367 CURVE",
"159 343 LINE",
"177 415 OFFCURVE",
"215 448 OFFCURVE",
"288 448 CURVE SMOOTH",
"370 448 OFFCURVE",
"407 409 OFFCURVE",
"407 359 CURVE SMOOTH",
"407 322 OFFCURVE",
"363 324 OFFCURVE",
"278 312 CURVE SMOOTH",
"109 288 OFFCURVE",
"59 223 OFFCURVE",
"59 133 CURVE SMOOTH",
"59 24 OFFCURVE",
"136 -15 OFFCURVE",
"233 -15 CURVE SMOOTH"
);
},
{
closed = 1;
nodes = (
"189 51 OFFCURVE",
"146 78 OFFCURVE",
"146 136 CURVE SMOOTH",
"146 199 OFFCURVE",
"196 231 OFFCURVE",
"283 244 CURVE SMOOTH",
"346 254 OFFCURVE",
"381 255 OFFCURVE",
"407 271 CURVE",
"407 219 LINE SMOOTH",
"407 130 OFFCURVE",
"340 51 OFFCURVE",
"246 51 CURVE SMOOTH"
);
}
);
width = 570;
},
{
anchors = (
{
name = bottom;
position = "{267, 0}";
},
{
name = ogonek;
position = "{465, 10}";
},
{
name = top;
position = "{267, 500}";
}
);
associatedMasterId = m003;
layerId = "C6FB9B17-09B7-400E-8BAC-E440D3697374";
name = "4. Nov. 22, 17:13";
paths = (
{
closed = 1;
nodes = (
"321 -15 OFFCURVE",
"406 36 OFFCURVE",
"431 138 CURVE",
"433 138 LINE",
"433 0 LINE",
"455 0 LINE",
"455 346 LINE SMOOTH",
"455 461 OFFCURVE",
"381 515 OFFCURVE",
"273 515 CURVE SMOOTH",
"154 515 OFFCURVE",
"82 454 OFFCURVE",
"82 340 CURVE",
"107 340 LINE",
"110 454 OFFCURVE",
"177 491 OFFCURVE",
"273 491 CURVE SMOOTH",
"382 491 OFFCURVE",
"431 434 OFFCURVE",
"431 361 CURVE SMOOTH",
"431 320 OFFCURVE",
"375 310 OFFCURVE",
"262 294 CURVE SMOOTH",
"111 272 OFFCURVE",
"63 215 OFFCURVE",
"63 134 CURVE SMOOTH",
"63 31 OFFCURVE",
"136 -15 OFFCURVE",
"229 -15 CURVE SMOOTH"
);
},
{
closed = 1;
nodes = (
"147 9 OFFCURVE",
"89 50 OFFCURVE",
"89 134 CURVE SMOOTH",
"89 218 OFFCURVE",
"151 255 OFFCURVE",
"267 272 CURVE SMOOTH",
"360 286 OFFCURVE",
"409 292 OFFCURVE",
"431 319 CURVE",
"431 199 LINE SMOOTH",
"431 93 OFFCURVE",
"347 9 OFFCURVE",
"230 9 CURVE SMOOTH"
);
}
);
width = 533;
},
{
anchors = (
{
name = bottom;
position = "{231, 0}";
},
{
name = ogonek;
position = "{445, 10}";
},
{
name = top;
position = "{301, 500}";
}
);
associatedMasterId = "C724B7CD-248E-4D7B-8006-7CFF52EADE8B";
layerId = "E86CB23B-8C55-4E42-A56D-5B6F69773118";
name = "23. Nov. 22, 13:33";
paths = (
{
closed = 1;
nodes = (
"289 -15 OFFCURVE",
"348 29 OFFCURVE",
"390 141 CURVE",
"392 141 LINE",
"372 0 LINE",
"447 0 LINE",
"493 330 LINE SMOOTH",
"510 455 OFFCURVE",
"448 515 OFFCURVE",
"316 515 CURVE SMOOTH",
"201 515 OFFCURVE",
"123 464 OFFCURVE",
"89 367 CURVE",
"162 343 LINE",
"189 412 OFFCURVE",
"239 448 OFFCURVE",
"314 448 CURVE SMOOTH",
"378 448 OFFCURVE",
"413 422 OFFCURVE",
"413 372 CURVE SMOOTH",
"413 314 OFFCURVE",
"340 321 OFFCURVE",
"277 312 CURVE SMOOTH",
"130 292 OFFCURVE",
"31 237 OFFCURVE",
"31 111 CURVE SMOOTH",
"31 25 OFFCURVE",
"81 -15 OFFCURVE",
"183 -15 CURVE SMOOTH"
);
},
{
closed = 1;
nodes = (
"150 51 OFFCURVE",
"119 78 OFFCURVE",
"119 126 CURVE SMOOTH",
"119 197 OFFCURVE",
"187 232 OFFCURVE",
"272 244 CURVE SMOOTH",
"337 254 OFFCURVE",
"372 255 OFFCURVE",
"400 271 CURVE",
"393 219 LINE SMOOTH",
"379 114 OFFCURVE",
"311 51 OFFCURVE",
"214 51 CURVE SMOOTH"
);
}
);
width = 554;
},
{
anchors = (
{
name = bottom;
position = "{203, 0}";
},
{
name = ogonek;
position = "{401, 10}";
},
{
name = top;
position = "{273, 500}";
}
);
associatedMasterId = "747A76F5-4D21-4F4C-BD8F-BF7AFE68B107";
guideLines = (
{
angle = 262.0371;
position = "{471, 532}";
},
{
angle = 82.0304;
position = "{469, 350}";
}
);
layerId = "D60E5F73-7DB4-44E0-A980-66843C5332BF";
name = "23. Nov. 22, 13:35";
paths = (
{
closed = 1;
nodes = (
"273 -15 OFFCURVE",
"365 36 OFFCURVE",
"404 138 CURVE",
"406 138 LINE",
"387 0 LINE",
"409 0 LINE",
"457 346 LINE SMOOTH",
"473 457 OFFCURVE",
"421 515 OFFCURVE",
"301 515 CURVE SMOOTH",
"193 515 OFFCURVE",
"131 471 OFFCURVE",
"85 361 CURVE",
"108 353 LINE",
"148 452 OFFCURVE",
"202 491 OFFCURVE",
"298 491 CURVE SMOOTH",
"399 491 OFFCURVE",
"446 441 OFFCURVE",
"435 361 CURVE SMOOTH",
"429 320 OFFCURVE",
"371 310 OFFCURVE",
"257 294 CURVE SMOOTH",
"103 272 OFFCURVE",
"47 215 OFFCURVE",
"36 134 CURVE SMOOTH",
"21 31 OFFCURVE",
"88 -15 OFFCURVE",
"181 -15 CURVE SMOOTH"
);
},
{
closed = 1;
nodes = (
"102 9 OFFCURVE",
"50 50 OFFCURVE",
"62 134 CURVE SMOOTH",
"74 218 OFFCURVE",
"141 255 OFFCURVE",
"259 272 CURVE SMOOTH",
"354 286 OFFCURVE",
"404 292 OFFCURVE",
"430 319 CURVE",
"413 199 LINE SMOOTH",
"398 93 OFFCURVE",
"302 9 OFFCURVE",
"185 9 CURVE SMOOTH"
);
}
);
width = 522;
},
{
anchors = (
{
name = bottom;
position = "{276, 0}";
},
{
name = ogonek;
position = "{504, 10}";
},
{
name = top;
position = "{276, 500}";
}
);
associatedMasterId = "AAB0E2D1-7A47-467B-B788-A2CC53DD9722";
layerId = "EE41A907-850C-4C29-8E9C-DCD70BE4B4ED";
name = "29. Jan. 23, 18:13";
paths = (
{
closed = 1;
nodes = (
"327 -15 OFFCURVE",
"381 34 OFFCURVE",
"406 141 CURVE",
"408 141 LINE",
"408 96 LINE SMOOTH",
"408 26 OFFCURVE",
"445 -15 OFFCURVE",
"512 -15 CURVE SMOOTH",
"533 -15 OFFCURVE",
"553 -11 OFFCURVE",
"566 -8 CURVE",
"566 67 LINE",
"557 63 OFFCURVE",
"541 58 OFFCURVE",
"527 58 CURVE SMOOTH",
"494 58 OFFCURVE",
"483 85 OFFCURVE",
"483 124 CURVE SMOOTH",
"483 330 LINE SMOOTH",
"483 451 OFFCURVE",
"413 515 OFFCURVE",
"280 515 CURVE SMOOTH",
"165 515 OFFCURVE",
"94 464 OFFCURVE",
"74 367 CURVE",
"150 343 LINE",
"167 412 OFFCURVE",
"212 448 OFFCURVE",
"287 448 CURVE SMOOTH",
"357 448 OFFCURVE",
"398 417 OFFCURVE",
"398 359 CURVE SMOOTH",
"398 322 OFFCURVE",
"354 324 OFFCURVE",
"269 312 CURVE SMOOTH",
"119 291 OFFCURVE",
"50 240 OFFCURVE",
"50 137 CURVE SMOOTH",
"50 37 OFFCURVE",
"117 -15 OFFCURVE",
"224 -15 CURVE SMOOTH"
);
},
{
closed = 1;
nodes = (
"137 199 OFFCURVE",
"184 231 OFFCURVE",
"274 244 CURVE SMOOTH",
"337 254 OFFCURVE",
"372 255 OFFCURVE",
"398 271 CURVE",
"398 219 LINE SMOOTH",
"398 114 OFFCURVE",
"340 51 OFFCURVE",
"243 51 CURVE SMOOTH",
"172 51 OFFCURVE",
"137 86 OFFCURVE",
"137 138 CURVE SMOOTH"
);
}
);
width = 561;
},
{
anchors = (
{
name = bottom;
position = "{254, 0}";
},
{
name = ogonek;
position = "{513, 0}";
},
{
name = top;
position = "{306, 500}";
}
);
associatedMasterId = "1BF19B54-F320-4FA0-AF52-273918486B89";
layerId = "67AD44D5-A149-46FB-B795-784F4C939E04";
name = "8. Jan. 25, 22:45";
paths = (
{
closed = 1;
nodes = (
"288 -15 OFFCURVE",
"347 17 OFFCURVE",
"367 128 CURVE",
"377 128 LINE",
"382 0 LINE",
"573 0 LINE",
"573 330 LINE SMOOTH",
"573 457 OFFCURVE",
"489 515 OFFCURVE",
"311 515 CURVE SMOOTH",
"163 515 OFFCURVE",
"76 474 OFFCURVE",
"47 369 CURVE",
"250 329 LINE",
"256 368 OFFCURVE",
"277 378 OFFCURVE",
"308 378 CURVE SMOOTH",
"336 378 OFFCURVE",
"358 370 OFFCURVE",
"358 346 CURVE SMOOTH",
"358 324 OFFCURVE",
"340 322 OFFCURVE",
"249 309 CURVE SMOOTH",
"85 286 OFFCURVE",
"20 221 OFFCURVE",
"20 127 CURVE SMOOTH",
"20 32 OFFCURVE",
"86 -15 OFFCURVE",
"197 -15 CURVE SMOOTH"
);
},
{
closed = 1;
nodes = (
"249 121 OFFCURVE",
"230 136 OFFCURVE",
"230 161 CURVE SMOOTH",
"230 188 OFFCURVE",
"254 207 OFFCURVE",
"294 213 CURVE SMOOTH",
"325 218 OFFCURVE",
"346 222 OFFCURVE",
"358 231 CURVE",
"358 209 LINE SMOOTH",
"358 154 OFFCURVE",
"329 121 OFFCURVE",
"281 121 CURVE SMOOTH"
);
}
);
width = 617;
},
{
anchors = (
{
name = bottom;
position = "{280, 0}";
},
{
name = ogonek;
position = "{503, 10}";
},
{
name = top;
position = "{280, 500}";
}
);
layerId = "1BF19B54-F320-4FA0-AF52-273918486B89";
name = "Ultra Black";
paths = (
{
closed = 1;
nodes = (
"273 -15 OFFCURVE",
"323 24 OFFCURVE",
"331 101 CURVE",
"337 101 LINE",
"339 0 LINE",
"509 0 LINE",
"509 330 LINE SMOOTH",
"509 453 OFFCURVE",
"430 515 OFFCURVE",
"284 515 CURVE SMOOTH",
"154 515 OFFCURVE",
"76 456 OFFCURVE",
"47 338 CURVE",
"224 303 LINE",
"228 336 OFFCURVE",
"246 353 OFFCURVE",
"281 353 CURVE SMOOTH",
"307 353 OFFCURVE",
"322 342 OFFCURVE",
"322 323 CURVE SMOOTH",
"322 301 OFFCURVE",
"306 291 OFFCURVE",
"238 288 CURVE SMOOTH",
"88 280 OFFCURVE",
"20 228 OFFCURVE",
"20 127 CURVE SMOOTH",
"20 38 OFFCURVE",
"77 -15 OFFCURVE",
"183 -15 CURVE SMOOTH"
);
},
{
closed = 1;
nodes = (
"228 131 OFFCURVE",
"211 142 OFFCURVE",
"211 170 CURVE SMOOTH",
"211 196 OFFCURVE",
"226 209 OFFCURVE",
"276 216 CURVE SMOOTH",
"294 219 OFFCURVE",
"311 223 OFFCURVE",
"322 231 CURVE",
"322 211 LINE SMOOTH",
"322 161 OFFCURVE",
"296 131 OFFCURVE",
"256 131 CURVE SMOOTH"
);
}
);
width = 559;
},
{
anchors = (
{
name = bottom;
position = "{280, 0}";
},
{
name = ogonek;
position = "{503, 10}";
},
{
name = top;
position = "{280, 500}";
}
);
associatedMasterId = "1BF19B54-F320-4FA0-AF52-273918486B89";
layerId = "B8719B0E-54C3-4F4E-8FC4-9C6D325910ED";
name = "9. Jan. 25, 14:03";
paths = (
{
closed = 1;
nodes = (
"267 -15 OFFCURVE",
"314 21 OFFCURVE",
"331 91 CURVE",
"341 91 LINE",
"344 0 LINE",
"509 0 LINE",
"509 330 LINE SMOOTH",
"509 453 OFFCURVE",
"430 515 OFFCURVE",
"284 515 CURVE SMOOTH",
"154 515 OFFCURVE",
"76 464 OFFCURVE",
"47 363 CURVE",
"224 328 LINE",
"229 361 OFFCURVE",
"247 378 OFFCURVE",
"280 378 CURVE SMOOTH",
"307 378 OFFCURVE",
"322 367 OFFCURVE",
"322 346 CURVE SMOOTH",
"322 324 OFFCURVE",
"305 323 OFFCURVE",
"209 310 CURVE SMOOTH",
"88 294 OFFCURVE",
"20 230 OFFCURVE",
"20 133 CURVE SMOOTH",
"20 44 OFFCURVE",
"77 -15 OFFCURVE",
"183 -15 CURVE SMOOTH"
);
},
{
closed = 1;
nodes = (
"219 121 OFFCURVE",
"200 136 OFFCURVE",
"200 164 CURVE SMOOTH",
"200 195 OFFCURVE",
"224 207 OFFCURVE",
"261 213 CURVE SMOOTH",
"291 218 OFFCURVE",
"310 222 OFFCURVE",
"322 231 CURVE",
"322 209 LINE SMOOTH",
"322 154 OFFCURVE",
"293 121 OFFCURVE",
"249 121 CURVE SMOOTH"
);
}
);
width = 559;
},
{
anchors = (
{
name = bottom;
position = "{255, 0}";
},
{
name = ogonek;
position = "{506, 10}";
},
{
name = top;
position = "{333, 500}";
}
);
associatedMasterId = "2146FA84-FF4E-4FEC-ADE7-E3206BD202A0";
guideLines = (
{
angle = 82.0304;
position = "{594, 350}";
},
{
angle = 262.1199;
position = "{418, 556}";
}
);
layerId = "40C83B99-17D8-4FDA-9A4A-B7697D2B70BC";
name = "9. Jan. 25, 16:03";
paths = (
{
closed = 1;
nodes = (
"242 -15 OFFCURVE",
"305 17 OFFCURVE",
"341 128 CURVE",
"351 128 LINE",
"338 0 LINE",
"529 0 LINE",
"575 330 LINE SMOOTH",
"596 479 OFFCURVE",
"489 515 OFFCURVE",
"339 515 CURVE SMOOTH",
"191 515 OFFCURVE",
"98 474 OFFCURVE",
"55 369 CURVE",
"252 329 LINE",
"264 368 OFFCURVE",
"286 378 OFFCURVE",
"317 378 CURVE SMOOTH",
"343 378 OFFCURVE",
"362 371 OFFCURVE",
"362 352 CURVE SMOOTH",
"362 324 OFFCURVE",
"348 323 OFFCURVE",
"248 309 CURVE SMOOTH",
"105 289 OFFCURVE",
"-8 231 OFFCURVE",
"-8 110 CURVE SMOOTH",
"-8 23 OFFCURVE",
"51 -15 OFFCURVE",
"151 -15 CURVE SMOOTH"
);
},
{
closed = 1;
nodes = (
"224 121 OFFCURVE",
"208 134 OFFCURVE",
"208 156 CURVE SMOOTH",
"208 185 OFFCURVE",
"236 207 OFFCURVE",
"280 213 CURVE SMOOTH",
"312 218 OFFCURVE",
"333 222 OFFCURVE",
"346 231 CURVE",
"343 209 LINE SMOOTH",
"336 154 OFFCURVE",
"302 121 OFFCURVE",
"254 121 CURVE SMOOTH"
);
}
);
width = 604;
},
{
anchors = (
{
name = bottom;
position = "{255, 0}";
},
{
name = ogonek;
position = "{506, 10}";
},
{
name = top;
position = "{333, 500}";
}
);
associatedMasterId = "2146FA84-FF4E-4FEC-ADE7-E3206BD202A0";
guideLines = (
{
angle = 82.0304;
position = "{594, 350}";
},
{
angle = 262.1199;
position = "{418, 556}";
}
);
layerId = "8984B19B-4316-44B0-951B-01C528BF6D8F";
name = "9. Jan. 25, 16:03";
paths = (
{
closed = 1;
nodes = (
"230 -15 OFFCURVE",
"282 21 OFFCURVE",
"309 91 CURVE",
"319 91 LINE",
"308 0 LINE",
"474 0 LINE",
"520 330 LINE SMOOTH",
"538 453 OFFCURVE",
"467 515 OFFCURVE",
"321 515 CURVE SMOOTH",
"191 515 OFFCURVE",
"105 456 OFFCURVE",
"59 338 CURVE",
"231 303 LINE",
"240 336 OFFCURVE",
"260 353 OFFCURVE",
"295 353 CURVE SMOOTH",
"321 353 OFFCURVE",
"335 342 OFFCURVE",
"332 323 CURVE SMOOTH",
"329 301 OFFCURVE",
"312 291 OFFCURVE",
"243 288 CURVE SMOOTH",
"92 280 OFFCURVE",
"17 228 OFFCURVE",
"3 127 CURVE SMOOTH",
"-10 38 OFFCURVE",
"40 -15 OFFCURVE",
"146 -15 CURVE SMOOTH"
);
},
{
closed = 1;
nodes = (
"201 121 OFFCURVE",
"184 133 OFFCURVE",
"188 164 CURVE SMOOTH",
"192 192 OFFCURVE",
"210 207 OFFCURVE",
"266 215 CURVE SMOOTH",
"287 218 OFFCURVE",
"306 222 OFFCURVE",
"319 231 CURVE",
"316 209 LINE SMOOTH",
"309 154 OFFCURVE",
"275 121 OFFCURVE",
"231 121 CURVE SMOOTH"
);
}
);
visible = 1;
width = 604;
}
);
rightMetricsKey = i;
unicode = 0061;
},
{
glyphname = b;
lastChange = "2025-01-09 16:19:00 +0000";
layers = (
{
layerId = "AAB0E2D1-7A47-467B-B788-A2CC53DD9722";
paths = (
{
closed = 1;
nodes = (
"476 -15 OFFCURVE",
"551 85 OFFCURVE",
"551 250 CURVE SMOOTH",
"551 415 OFFCURVE",
"477 515 OFFCURVE",
"338 515 CURVE SMOOTH",
"251 515 OFFCURVE",
"191 473 OFFCURVE",
"167 380 CURVE",
"163 380 LINE",
"163 715 LINE",
"78 715 LINE",
"78 0 LINE",
"143 0 LINE",
"158 131 LINE",
"162 131 LINE",
"182 31 OFFCURVE",
"243 -15 OFFCURVE",
"336 -15 CURVE SMOOTH"
);
},
{
closed = 1;
nodes = (
"214 52 OFFCURVE",
"161 120 OFFCURVE",
"161 250 CURVE SMOOTH",
"161 380 OFFCURVE",
"214 448 OFFCURVE",
"313 448 CURVE SMOOTH",
"412 448 OFFCURVE",
"464 380 OFFCURVE",
"464 250 CURVE SMOOTH",
"464 120 OFFCURVE",
"412 52 OFFCURVE",
"313 52 CURVE SMOOTH"
);
}
);
width = 610;
},
{
layerId = m003;
paths = (
{
closed = 1;
nodes = (
"430 -15 OFFCURVE",
"505 85 OFFCURVE",
"505 250 CURVE SMOOTH",
"505 415 OFFCURVE",
"431 515 OFFCURVE",
"295 515 CURVE SMOOTH",
"183 515 OFFCURVE",
"114 448 OFFCURVE",
"104 352 CURVE",
"102 352 LINE",
"102 715 LINE",
"78 715 LINE",
"78 0 LINE",
"96 0 LINE",
"99 157 LINE",
"101 157 LINE",
"117 50 OFFCURVE",
"181 -15 OFFCURVE",
"293 -15 CURVE SMOOTH"
);
},
{
closed = 1;
nodes = (
"171 9 OFFCURVE",
"100 85 OFFCURVE",
"100 250 CURVE SMOOTH",
"100 415 OFFCURVE",
"172 491 OFFCURVE",
"290 491 CURVE SMOOTH",
"420 491 OFFCURVE",
"479 400 OFFCURVE",
"479 250 CURVE SMOOTH",
"479 100 OFFCURVE",
"419 9 OFFCURVE",
"290 9 CURVE SMOOTH"
);
}
);
width = 568;
},
{
guideLines = (
{
angle = 82.1199;
position = "{325, 556}";
}
);
layerId = "2146FA84-FF4E-4FEC-ADE7-E3206BD202A0";
paths = (
{
closed = 1;
nodes = (
"496 -15 OFFCURVE",
"558 170 OFFCURVE",
"558 326 CURVE SMOOTH",
"558 451 OFFCURVE",
"501 515 OFFCURVE",
"400 515 CURVE SMOOTH",
"317 515 OFFCURVE",
"269 470 OFFCURVE",
"248 394 CURVE",
"238 394 LINE",
"283 715 LINE",
"105 715 LINE",
"5 0 LINE",
"189 0 LINE",
"206 99 LINE",
"212 99 LINE",
"207 27 OFFCURVE",
"243 -15 OFFCURVE",
"326 -15 CURVE SMOOTH"
);
},
{
closed = 1;
nodes = (
"236 153 OFFCURVE",
"215 177 OFFCURVE",
"215 225 CURVE SMOOTH",
"215 278 OFFCURVE",
"236 349 OFFCURVE",
"303 349 CURVE SMOOTH",
"343 349 OFFCURVE",
"363 325 OFFCURVE",
"363 280 CURVE SMOOTH",
"363 227 OFFCURVE",
"343 153 OFFCURVE",
"275 153 CURVE SMOOTH"
);
}
);
width = 583;
},
{
layerId = "C724B7CD-248E-4D7B-8006-7CFF52EADE8B";
paths = (
{
closed = 1;
nodes = (
"472 -15 OFFCURVE",
"550 152 OFFCURVE",
"550 307 CURVE SMOOTH",
"550 441 OFFCURVE",
"489 515 OFFCURVE",
"369 515 CURVE SMOOTH",
"282 515 OFFCURVE",
"216 473 OFFCURVE",
"179 380 CURVE",
"175 380 LINE",
"222 715 LINE",
"137 715 LINE",
"37 0 LINE",
"102 0 LINE",
"135 131 LINE",
"139 131 LINE",
"145 31 OFFCURVE",
"200 -15 OFFCURVE",
"293 -15 CURVE SMOOTH"
);
},
{
closed = 1;
nodes = (
"195 52 OFFCURVE",
"151 101 OFFCURVE",
"151 205 CURVE SMOOTH",
"151 316 OFFCURVE",
"200 448 OFFCURVE",
"335 448 CURVE SMOOTH",
"419 448 OFFCURVE",
"462 399 OFFCURVE",
"462 295 CURVE SMOOTH",
"462 184 OFFCURVE",
"414 52 OFFCURVE",
"279 52 CURVE SMOOTH"
);
}
);
width = 595;
},
{
guideLines = (
{
angle = 262.0304;
position = "{92, 350}";
}
);
layerId = "747A76F5-4D21-4F4C-BD8F-BF7AFE68B107";
paths = (
{
closed = 1;
nodes = (
"434 -15 OFFCURVE",
"510 153 OFFCURVE",
"510 306 CURVE SMOOTH",
"510 442 OFFCURVE",
"449 515 OFFCURVE",
"332 515 CURVE SMOOTH",
"220 515 OFFCURVE",
"142 448 OFFCURVE",
"118 352 CURVE",
"116 352 LINE",
"167 715 LINE",
"143 715 LINE",
"43 0 LINE",
"61 0 LINE",
"86 157 LINE",
"88 157 LINE",
"89 50 OFFCURVE",
"144 -15 OFFCURVE",
"255 -15 CURVE SMOOTH"
);
},
{
closed = 1;
nodes = (
"154 9 OFFCURVE",
"96 62 OFFCURVE",
"96 194 CURVE SMOOTH",
"96 327 OFFCURVE",
"157 491 OFFCURVE",
"326 491 CURVE SMOOTH",
"434 491 OFFCURVE",
"484 427 OFFCURVE",
"484 306 CURVE SMOOTH",
"484 165 OFFCURVE",
"422 9 OFFCURVE",
"254 9 CURVE SMOOTH"
);
}
);
width = 559;
},
{
associatedMasterId = "AAB0E2D1-7A47-467B-B788-A2CC53DD9722";
layerId = "0FD97D4E-CD3B-4DBC-B85A-D9387204DCAA";
name = "19. Okt. 22, 21:37";
paths = (
{
closed = 1;
nodes = (
"78 0 LINE",
"158 0 LINE",
"158 91 LINE",
"162 91 LINE",
"179 39 OFFCURVE",
"233 -15 OFFCURVE",
"326 -15 CURVE SMOOTH",
"448 -15 OFFCURVE",
"551 78 OFFCURVE",
"551 250 CURVE SMOOTH",
"551 422 OFFCURVE",
"447 515 OFFCURVE",
"328 515 CURVE SMOOTH",
"240 515 OFFCURVE",
"187 465 OFFCURVE",
"167 420 CURVE",
"163 420 LINE",
"163 700 LINE",
"78 700 LINE"
);
},
{
closed = 1;
nodes = (
"407 448 OFFCURVE",
"464 374 OFFCURVE",
"464 250 CURVE SMOOTH",
"464 126 OFFCURVE",
"405 52 OFFCURVE",
"313 52 CURVE SMOOTH",
"211 52 OFFCURVE",
"161 140 OFFCURVE",
"161 250 CURVE SMOOTH",
"161 360 OFFCURVE",
"211 448 OFFCURVE",
"313 448 CURVE SMOOTH"
);
}
);
width = 610;
},
{
associatedMasterId = "AAB0E2D1-7A47-467B-B788-A2CC53DD9722";
layerId = "65D8C8FA-A758-4AC6-BF36-E94492FA2377";
name = "20. Okt. 22, 18:15";
paths = (
{
closed = 1;
nodes = (
"466 -15 OFFCURVE",
"551 85 OFFCURVE",
"551 250 CURVE SMOOTH",
"551 415 OFFCURVE",
"467 515 OFFCURVE",
"328 515 CURVE SMOOTH",
"254 515 OFFCURVE",
"193 479 OFFCURVE",
"167 420 CURVE",
"163 420 LINE",
"163 700 LINE",
"78 700 LINE",
"78 0 LINE",
"158 0 LINE",
"158 91 LINE",
"162 91 LINE",
"183 25 OFFCURVE",
"245 -15 OFFCURVE",
"326 -15 CURVE SMOOTH"
);
},
{
closed = 1;
nodes = (
"214 52 OFFCURVE",
"161 120 OFFCURVE",
"161 250 CURVE SMOOTH",
"161 380 OFFCURVE",
"214 448 OFFCURVE",
"313 448 CURVE SMOOTH",
"412 448 OFFCURVE",
"464 380 OFFCURVE",
"464 250 CURVE SMOOTH",
"464 120 OFFCURVE",
"412 52 OFFCURVE",
"313 52 CURVE SMOOTH"
);
}
);
width = 610;
},
{
associatedMasterId = m003;
layerId = "8C0EF327-9FB4-4CE2-9EC5-A93FAA308525";
name = "4. Nov. 22, 17:19";
paths = (
{
closed = 1;
nodes = (
"421 -15 OFFCURVE",
"511 78 OFFCURVE",
"511 250 CURVE SMOOTH",
"511 422 OFFCURVE",
"420 515 OFFCURVE",
"300 515 CURVE SMOOTH",
"196 515 OFFCURVE",
"120 439 OFFCURVE",
"110 352 CURVE",
"108 352 LINE",
"108 700 LINE",
"84 700 LINE",
"84 0 LINE",
"105 0 LINE",
"105 157 LINE",
"107 157 LINE",
"122 59 OFFCURVE",
"197 -15 OFFCURVE",
"300 -15 CURVE SMOOTH"
);
},
{
closed = 1;
nodes = (
"179 9 OFFCURVE",
"106 106 OFFCURVE",
"106 250 CURVE SMOOTH",
"106 393 OFFCURVE",
"179 491 OFFCURVE",
"300 491 CURVE SMOOTH",
"417 491 OFFCURVE",
"485 400 OFFCURVE",
"485 250 CURVE SMOOTH",
"485 99 OFFCURVE",
"416 9 OFFCURVE",
"300 9 CURVE SMOOTH"
);
}
);
width = 574;
},
{
associatedMasterId = "C724B7CD-248E-4D7B-8006-7CFF52EADE8B";
layerId = "94D8155B-F7C4-4F3A-9535-D982CBB3C3D0";
name = "23. Nov. 22, 13:43";
paths = (
{
closed = 1;
nodes = (
"433 -15 OFFCURVE",
"522 85 OFFCURVE",
"545 250 CURVE SMOOTH",
"568 415 OFFCURVE",
"508 515 OFFCURVE",
"369 515 CURVE SMOOTH",
"282 515 OFFCURVE",
"216 473 OFFCURVE",
"179 380 CURVE",
"175 380 LINE",
"220 700 LINE",
"135 700 LINE",
"37 0 LINE",
"117 0 LINE",
"135 131 LINE",
"139 131 LINE",
"145 31 OFFCURVE",
"200 -15 OFFCURVE",
"293 -15 CURVE SMOOTH"
);
},
{
closed = 1;
nodes = (
"180 52 OFFCURVE",
"137 120 OFFCURVE",
"155 250 CURVE SMOOTH",
"173 380 OFFCURVE",
"236 448 OFFCURVE",
"335 448 CURVE SMOOTH",
"434 448 OFFCURVE",
"476 380 OFFCURVE",
"458 250 CURVE SMOOTH",
"440 120 OFFCURVE",
"378 52 OFFCURVE",
"279 52 CURVE SMOOTH"
);
}
);
width = 593;
},
{
associatedMasterId = "747A76F5-4D21-4F4C-BD8F-BF7AFE68B107";
layerId = "0EED61FC-1E93-44B0-8F45-BBDC458D8C53";
name = "23. Nov. 22, 13:44";
paths = (
{
closed = 1;
nodes = (
"393 -15 OFFCURVE",
"482 85 OFFCURVE",
"505 250 CURVE SMOOTH",
"528 415 OFFCURVE",
"468 515 OFFCURVE",
"332 515 CURVE SMOOTH",
"220 515 OFFCURVE",
"142 448 OFFCURVE",
"118 352 CURVE",
"116 352 LINE",
"165 700 LINE",
"141 700 LINE",
"43 0 LINE",
"64 0 LINE",
"86 157 LINE",
"88 157 LINE",
"89 50 OFFCURVE",
"144 -15 OFFCURVE",
"256 -15 CURVE SMOOTH"
);
},
{
closed = 1;
nodes = (
"137 9 OFFCURVE",
"77 85 OFFCURVE",
"100 250 CURVE SMOOTH",
"123 415 OFFCURVE",
"206 491 OFFCURVE",
"324 491 CURVE SMOOTH",
"454 491 OFFCURVE",
"500 400 OFFCURVE",
"479 250 CURVE SMOOTH",
"458 100 OFFCURVE",
"385 9 OFFCURVE",
"256 9 CURVE SMOOTH"
);
}
);
width = 557;
},
{
layerId = "1BF19B54-F320-4FA0-AF52-273918486B89";
name = "Ultra Black";
paths = (
{
closed = 1;
nodes = (
"493 -15 OFFCURVE",
"562 74 OFFCURVE",
"562 250 CURVE SMOOTH",
"562 426 OFFCURVE",
"493 515 OFFCURVE",
"373 515 CURVE SMOOTH",
"290 515 OFFCURVE",
"248 470 OFFCURVE",
"238 394 CURVE",
"228 394 LINE",
"228 715 LINE",
"50 715 LINE",
"50 0 LINE",
"234 0 LINE",
"237 99 LINE",
"243 99 LINE",
"248 27 OFFCURVE",
"290 -15 OFFCURVE",
"373 -15 CURVE SMOOTH"
);
},
{
closed = 1;
nodes = (
"253 153 OFFCURVE",
"227 187 OFFCURVE",
"227 252 CURVE SMOOTH",
"227 316 OFFCURVE",
"253 349 OFFCURVE",
"299 349 CURVE SMOOTH",
"346 349 OFFCURVE",
"371 316 OFFCURVE",
"371 252 CURVE SMOOTH",
"371 187 OFFCURVE",
"346 153 OFFCURVE",
"299 153 CURVE SMOOTH"
);
}
);
width = 595;
},
{
associatedMasterId = "2146FA84-FF4E-4FEC-ADE7-E3206BD202A0";
guideLines = (
{
angle = 82.1199;
position = "{321, 556}";
}
);
layerId = "798AF665-4EFB-4269-8973-A9CA08D0C585";
name = "9. Jan. 25, 16:05";
paths = (
{
closed = 1;
nodes = (
"537 -15 OFFCURVE",
"605 157 OFFCURVE",
"605 310 CURVE SMOOTH",
"605 448 OFFCURVE",
"547 515 OFFCURVE",
"437 515 CURVE SMOOTH",
"358 515 OFFCURVE",
"302 479 OFFCURVE",
"274 411 CURVE",
"268 411 LINE",
"310 715 LINE",
"105 715 LINE",
"5 0 LINE",
"173 0 LINE",
"214 96 LINE",
"224 96 LINE",
"230 24 OFFCURVE",
"278 -15 OFFCURVE",
"360 -15 CURVE SMOOTH"
);
},
{
closed = 1;
nodes = (
"253 122 OFFCURVE",
"232 150 OFFCURVE",
"232 207 CURVE SMOOTH",
"232 272 OFFCURVE",
"260 378 OFFCURVE",
"332 378 CURVE SMOOTH",
"370 378 OFFCURVE",
"389 351 OFFCURVE",
"389 297 CURVE SMOOTH",
"389 239 OFFCURVE",
"368 122 OFFCURVE",
"291 122 CURVE SMOOTH"
);
}
);
width = 672;
}
);
leftMetricsKey = i;
rightKerningGroup = RightLowo;
rightMetricsKey = o;
unicode = 0062;
},
